<?xml version="1.0" encoding="UTF-8"?> <!-- Generator: Adobe Illustrator 16.0.0, SVG Export Plug-In . SVG Version: 6.00 Build 0) --> <svg xmlns="http://www.w3.org/2000/svg" xmlns:xlink="http://www.w3.org/1999/xlink" id="Layer_1" x="0px" y="0px" width="672.144px" height="761.717px" viewBox="0 0 672.144 761.717" xml:space="preserve"> <g> <path fill="#FFFFFF" d="M272.987,116.965v86.206H91.594v172.413c8.377-8.376,19.153-15.406,32.328-21.102 c13.161-5.683,27.837-8.531,44.001-8.531c31.121,0,56.418,9.429,75.879,28.286c19.448,18.858,29.185,47.144,29.185,84.86v165.229 c0,21.552-3.746,40.718-11.225,57.472c-7.492,16.767-17.51,31.135-30.082,43.103c-12.572,11.982-27.094,21.103-43.552,27.389 c-16.473,6.286-33.675,9.429-51.635,9.429c-17.959,0-35.175-3.143-51.633-9.429c-16.473-6.286-30.981-15.406-43.553-27.389 c-12.571-11.968-22.604-26.336-30.082-43.103C3.732,665.043,0,645.877,0,624.325v-26.939h91.594v23.348 c0,15.574,4.336,27.697,13.021,36.368c8.671,8.686,19.896,13.021,33.674,13.021c13.765,0,24.386-4.182,31.879-12.572 c7.478-8.376,11.225-20.05,11.225-35.022V472.566c0-12.572-4.041-23.348-12.123-32.328c-8.082-8.979-18.409-13.47-30.981-13.47 c-7.787,0-14.367,1.348-19.755,4.041c-5.388,2.694-9.878,5.837-13.47,9.429c-3.592,3.593-6.286,7.493-8.082,11.675 c-3.002,5.388-4.798,8.685-5.388,9.877H10.776V116.965H272.987z"></path> <polygon fill="#FFFFFF" points="402.701,756.329 402.701,213.947 311.106,281.296 311.106,184.313 402.701,116.965 494.295,116.965 494.295,756.329 "></polygon> <path fill="#FFFFFF" d="M522.013,30.079c0-19.337,9.938-30.08,28.469-30.08s28.468,10.743,28.468,30.08v61.772 c0,19.337-9.937,30.08-28.468,30.08s-28.469-10.743-28.469-30.08V30.079z M540.813,93.194c0,8.325,3.491,11.817,9.668,11.817 c5.909,0,9.669-3.492,9.669-11.817V28.737c0-8.326-3.76-11.818-9.669-11.818c-6.177,0-9.668,3.492-9.668,11.818V93.194z M624.607,1.342h17.457l-74.126,188.001h-17.457L624.607,1.342z M615.207,98.834c0-19.338,9.938-30.08,28.469-30.08 s28.469,10.742,28.469,30.08v61.771c0,19.337-9.938,30.08-28.469,30.08s-28.469-10.743-28.469-30.08V98.834z M634.008,161.948 c0,8.326,3.49,11.817,9.668,11.817c5.908,0,9.669-3.491,9.669-11.817V97.491c0-8.326-3.761-11.817-9.669-11.817 c-6.178,0-9.668,3.491-9.668,11.817V161.948z"></path> </g> </svg> 