<?xml version="1.0" encoding="UTF-8"?> <!-- Generator: Adobe Illustrator 16.0.0, SVG Export Plug-In . SVG Version: 6.00 Build 0) --> <svg xmlns="http://www.w3.org/2000/svg" xmlns:xlink="http://www.w3.org/1999/xlink" id="Layer_1" x="0px" y="0px" width="274.201px" height="234.51px" viewBox="0 0 274.201 234.51" xml:space="preserve"> <path d="M98.794,232.566v-34.334h15.872v-31.095H98.794v-65.753h-33.04v65.753H33.04L82.598,1.943H47.616L0,167.137v31.095h65.754 v34.334H98.794z"></path> <path d="M112.396,184.952c0,7.774,1.346,14.687,4.049,20.73c2.697,6.048,6.316,11.23,10.851,15.548 c4.535,4.322,9.768,7.612,15.709,9.879c5.937,2.268,12.147,3.401,18.625,3.401c6.479,0,12.683-1.134,18.625-3.401 c5.937-2.267,11.175-5.557,15.71-9.879c4.535-4.317,8.148-9.5,10.851-15.548c2.698-6.043,4.049-12.956,4.049-20.73V49.558 c0-7.774-1.351-14.682-4.049-20.73c-2.703-6.043-6.316-11.225-10.851-15.547c-4.535-4.317-9.773-7.612-15.71-9.879 C174.314,1.134,168.109,0,161.631,0c-6.478,0-12.688,1.134-18.625,3.401c-5.942,2.268-11.175,5.562-15.709,9.879 c-4.535,4.322-8.154,9.504-10.851,15.547c-2.703,6.048-4.049,12.957-4.049,20.73V184.952z M145.435,49.558 c0-4.748,1.508-8.69,4.535-11.823c3.021-3.128,6.908-4.697,11.661-4.697c4.748,0,8.634,1.569,11.661,4.697 c3.021,3.133,4.535,7.075,4.535,11.823v135.394c0,4.752-1.513,8.695-4.535,11.823c-3.027,3.133-6.914,4.697-11.661,4.697 c-4.752,0-8.639-1.564-11.661-4.697c-3.027-3.128-4.535-7.07-4.535-11.823V49.558z"></path> <path d="M241.097,32.087c-0.621-0.621-0.932-1.386-0.932-2.298v-6.335c0-0.91,0.311-1.677,0.932-2.298s1.345-0.932,2.174-0.932 c0.827,0,1.553,0.311,2.174,0.932s0.931,1.388,0.931,2.298v6.335c0,0.913-0.31,1.677-0.931,2.298s-1.347,0.932-2.174,0.932 C242.442,33.019,241.718,32.708,241.097,32.087z M250.972,37.863c1.904-1.739,2.857-4.016,2.857-6.832v-8.074 c0-3.146-0.953-5.631-2.857-7.453c-1.906-1.82-4.472-2.733-7.701-2.733c-3.23,0-5.798,0.913-7.702,2.733 c-1.906,1.822-2.857,4.307-2.857,7.453v8.074c0,2.816,0.951,5.093,2.857,6.832c1.904,1.739,4.472,2.608,7.702,2.608 C246.5,40.472,249.066,39.602,250.972,37.863z M260.537,85.687c0-0.911,0.311-1.677,0.932-2.298s1.345-0.932,2.174-0.932 c0.827,0,1.553,0.311,2.174,0.932s0.932,1.388,0.932,2.298v6.335c0,0.912-0.311,1.677-0.932,2.298s-1.347,0.932-2.174,0.932 c-0.829,0-1.553-0.311-2.174-0.932s-0.932-1.386-0.932-2.298V85.687z M271.344,100.095c1.904-1.739,2.857-4.016,2.857-6.832v-8.074 c0-3.146-0.953-5.63-2.857-7.453c-1.906-1.82-4.472-2.732-7.701-2.732c-3.23,0-5.797,0.912-7.702,2.732 c-1.906,1.823-2.857,4.307-2.857,7.453v8.074c0,2.816,0.951,5.093,2.857,6.832c1.904,1.739,4.472,2.609,7.702,2.609 C266.872,102.704,269.438,101.834,271.344,100.095z M242.401,101.958l30.309-88.441h-8.198l-30.309,88.441H242.401z"></path> </svg> 