<?xml version="1.0" encoding="UTF-8"?> <!-- Generator: Adobe Illustrator 16.0.0, SVG Export Plug-In . SVG Version: 6.00 Build 0) --> <svg xmlns="http://www.w3.org/2000/svg" xmlns:xlink="http://www.w3.org/1999/xlink" id="Layer_1" x="0px" y="0px" width="1527.153px" height="1881.188px" viewBox="0 0 1527.153 1881.188" xml:space="preserve"> <g> <defs> <rect id="SVGID_1_" x="205.255" y="-239.975" transform="matrix(-0.8949 0.4462 -0.4462 -0.8949 1790.3103 1270.7064)" width="1080.571" height="2172.243"></rect> </defs> <clipPath id="SVGID_2_"> <use xlink:href="#SVGID_1_" overflow="visible"></use> </clipPath> <path clip-path="url(#SVGID_2_)" fill="none" stroke="#000000" stroke-width="60" stroke-miterlimit="10" d="M911.524,1179.038 c-108.626,54.162-170.396,164.867-167.44,278.697c89.133,70.863,214.723,88.148,323.348,33.986 c108.629-54.164,170.4-164.871,167.443-278.701C1145.743,1142.159,1020.153,1124.874,911.524,1179.038z"></path> <path clip-path="url(#SVGID_2_)" fill="none" stroke="#000000" stroke-width="60" stroke-miterlimit="10" d="M912.468,1373.778 c21.209,42.531,72.879,59.816,115.411,38.613c42.532-21.209,59.818-72.879,38.612-115.412 c-21.207-42.531-72.879-59.818-115.41-38.611C908.55,1279.577,891.263,1331.247,912.468,1373.778z"></path> <circle clip-path="url(#SVGID_2_)" fill="none" stroke="#000000" stroke-width="60" stroke-linecap="round" stroke-miterlimit="10" cx="989.104" cy="1334.626" r="510.285"></circle> <path clip-path="url(#SVGID_2_)" fill="none" stroke="#000000" stroke-width="60" stroke-linecap="round" stroke-miterlimit="10" d=" M274.276-98.999l355.239,712.449l70.705-35.255c24.161-12.048,53.514-2.227,65.561,21.935l0,0 c12.047,24.161,2.227,53.513-21.934,65.559L602.434,736.2c-24.161,12.046-33.979,41.398-21.933,65.56l1.889,3.789 c12.046,24.16,41.399,33.98,65.559,21.934l185.158-92.323"></path> <line clip-path="url(#SVGID_2_)" fill="none" stroke="#000000" stroke-width="60" stroke-linecap="round" stroke-miterlimit="10" x1="159.824" y1="-41.931" x2="515.062" y2="670.519"></line> <circle clip-path="url(#SVGID_2_)" fill="none" stroke="#000000" stroke-width="60" stroke-linecap="round" stroke-miterlimit="10" cx="989.104" cy="1334.627" r="418.471"></circle> </g> </svg> 