<?xml version="1.0" encoding="UTF-8"?> <!-- Generator: Adobe Illustrator 16.0.0, SVG Export Plug-In . SVG Version: 6.00 Build 0) --> <svg xmlns="http://www.w3.org/2000/svg" xmlns:xlink="http://www.w3.org/1999/xlink" id="Layer_1" x="0px" y="0px" width="242.04px" height="342.061px" viewBox="0 0 242.04 342.061" xml:space="preserve"> <g> <path d="M10.222,217.364C3.439,231.901,0,247.464,0,263.622l0.221,78.439h122.761v-0.016c15.666-0.232,30.869-3.42,45.217-9.489 c14.399-6.09,27.328-14.806,38.428-25.907c11.102-11.101,19.817-24.029,25.907-38.428c6.308-14.912,9.505-30.746,9.505-47.063 c0-16.318-3.197-32.153-9.505-47.064c-6.09-14.399-14.806-27.328-25.907-38.428c-11.1-11.101-24.028-19.817-38.428-25.907 c-14.911-6.307-30.746-9.505-47.063-9.505H19.027V18.832h81.168v55.244h18.832V0H0.195v119.085h120.94 c13.783,0,27.149,2.698,39.728,8.018c12.154,5.14,23.071,12.502,32.448,21.878c9.377,9.377,16.738,20.294,21.879,32.448 c5.319,12.578,8.017,25.944,8.017,39.729c0,13.782-2.697,27.149-8.017,39.728c-5.141,12.153-12.502,23.07-21.879,32.448 c-9.377,9.377-20.294,16.736-32.448,21.878c-12.578,5.319-25.944,8.018-39.728,8.018H19.001l-0.169-59.621 c0.001-6.808,0.739-13.485,2.202-19.987c8.047,11.019,18.115,20.491,29.739,27.892c17.542,11.168,37.854,17.072,58.74,17.072 c21.248,0,41.857-6.096,59.6-17.624c17.275-11.227,31-27.006,39.692-45.633l1.856-3.982l-1.856-3.981 c-8.692-18.628-22.417-34.407-39.692-45.633c-17.743-11.529-38.353-17.624-59.6-17.624c-21.247,0-41.856,6.095-59.599,17.624 C32.639,182.957,18.914,198.736,10.222,217.364 M60.175,187.522c14.682-9.541,31.742-14.583,49.338-14.583 c17.596,0,34.657,5.042,49.339,14.583c13.066,8.491,23.682,20.125,30.909,33.823c-7.228,13.699-17.843,25.332-30.909,33.823 c-14.683,9.541-31.743,14.583-49.339,14.583c-17.296,0-34.111-4.884-48.627-14.125c-13.368-8.511-24.253-20.324-31.62-34.282 C36.493,207.646,47.108,196.013,60.175,187.522"></path> <path d="M109.514,260.262c21.528,0,39.043-17.516,39.043-39.044s-17.515-39.044-39.043-39.044 c-21.529,0-39.043,17.516-39.043,39.044S87.985,260.262,109.514,260.262 M109.514,201.503c10.871,0,19.715,8.845,19.715,19.715 s-8.844,19.716-19.715,19.716s-19.715-8.846-19.715-19.716S98.643,201.503,109.514,201.503"></path> </g> </svg> 