<?xml version="1.0" encoding="UTF-8"?> <svg xmlns="http://www.w3.org/2000/svg" id="Layer_1" data-name="Layer 1" viewBox="0 0 823.17 1367.59"><title>BigeyeStory_Diagram</title><rect x="413.76" y="778.22" width="2" height="275.5" style="fill:#fff"></rect><path d="M428,835a256.41,256.41,0,1,1-100.13,20.21A255.68,255.68,0,0,1,428,835m0-20c-153.13,0-277.26,124.13-277.26,277.26S274.86,1369.5,428,1369.5s277.27-124.14,277.27-277.27S581.12,815,428,815Z" transform="translate(-13.23 -38.52)" style="fill:#fff"></path><rect x="546.91" y="1022.92" width="2" height="277.27" transform="translate(-745.2 1016.72) rotate(-60)" style="fill:#fff"></rect><rect x="169.16" y="1160.55" width="277.27" height="2" transform="translate(-552.69 270.92) rotate(-29.99)" style="fill:#fff"></rect><circle cx="549.43" cy="990.4" r="14.75" style="fill:#fff"></circle><path d="M562.66,1029.92a1,1,0,0,1-.55-1.84l123.11-80.2a34.42,34.42,0,0,1,16-4H835.39a1,1,0,0,1,0,2H701.2a32.39,32.39,0,0,0-15,3.68l-123,80.16A1,1,0,0,1,562.66,1029.92Z" transform="translate(-13.23 -38.52)" style="fill:#fff"></path><path d="M733.94,934.66H708.88a2.23,2.23,0,0,1-2.23-2.23v-21.8a2.23,2.23,0,0,1,2.23-2.23h25.06a2.23,2.23,0,0,1,2.23,2.23v21.8A2.23,2.23,0,0,1,733.94,934.66ZM708.88,910.4a.23.23,0,0,0-.23.23v21.8a.23.23,0,0,0,.23.23h25.06a.23.23,0,0,0,.23-.23v-21.8a.23.23,0,0,0-.23-.23Z" transform="translate(-13.23 -38.52)" style="fill:#fff"></path><path d="M772.05,934.66H747a2.23,2.23,0,0,1-2.23-2.23v-37.8A2.23,2.23,0,0,1,747,892.4h25.06a2.23,2.23,0,0,1,2.23,2.23v37.8A2.23,2.23,0,0,1,772.05,934.66ZM747,894.4a.23.23,0,0,0-.23.23v37.8a.23.23,0,0,0,.23.23h25.06a.23.23,0,0,0,.23-.23v-37.8a.23.23,0,0,0-.23-.23Z" transform="translate(-13.23 -38.52)" style="fill:#fff"></path><path d="M810.16,934.66H785.1a2.23,2.23,0,0,1-2.23-2.23v-57.8a2.23,2.23,0,0,1,2.23-2.23h25.06a2.23,2.23,0,0,1,2.23,2.23v57.8A2.23,2.23,0,0,1,810.16,934.66ZM785.1,874.4a.23.23,0,0,0-.23.23v57.8a.23.23,0,0,0,.23.23h25.06a.23.23,0,0,0,.23-.23v-57.8a.23.23,0,0,0-.23-.23Z" transform="translate(-13.23 -38.52)" style="fill:#fff"></path><circle cx="414.43" cy="1202.63" r="14.75" style="fill:#fff"></circle><path d="M810.16,1394.66H785.1a2.23,2.23,0,0,1-2.23-2.23v-11.8a2.23,2.23,0,0,1,2.23-2.23h25.06a2.23,2.23,0,0,1,2.23,2.23v11.8A2.23,2.23,0,0,1,810.16,1394.66ZM785.1,1380.4a.23.23,0,0,0-.23.23v11.8a.23.23,0,0,0,.23.23h25.06a.23.23,0,0,0,.23-.23v-11.8a.23.23,0,0,0-.23-.23Z" transform="translate(-13.23 -38.52)" style="fill:#fff"></path><path d="M772.05,1394.66H747a2.23,2.23,0,0,1-2.23-2.23v-37.8a2.23,2.23,0,0,1,2.23-2.23h25.06a2.23,2.23,0,0,1,2.23,2.23v37.8A2.23,2.23,0,0,1,772.05,1394.66ZM747,1354.4a.23.23,0,0,0-.23.23v37.8a.23.23,0,0,0,.23.23h25.06a.23.23,0,0,0,.23-.23v-37.8a.23.23,0,0,0-.23-.23Z" transform="translate(-13.23 -38.52)" style="fill:#fff"></path><path d="M733.94,1394.66H708.88a2.23,2.23,0,0,1-2.23-2.23v-87.8a2.23,2.23,0,0,1,2.23-2.23h25.06a2.23,2.23,0,0,1,2.23,2.23v87.8A2.23,2.23,0,0,1,733.94,1394.66Zm-25.06-90.26a.23.23,0,0,0-.23.23v87.8a.23.23,0,0,0,.23.23h25.06a.23.23,0,0,0,.23-.23v-87.8a.23.23,0,0,0-.23-.23Z" transform="translate(-13.23 -38.52)" style="fill:#fff"></path><circle cx="280.43" cy="990.4" r="14.75" style="fill:#fff"></circle><path d="M293.66,1029.92a1,1,0,0,1-.55-.16L170,949.56a32.28,32.28,0,0,0-14.89-3.64H20.93a1,1,0,1,1,0-2H155.12a34.42,34.42,0,0,1,15.9,3.91l123.19,80.25a1,1,0,0,1-.55,1.84Z" transform="translate(-13.23 -38.52)" style="fill:#fff"></path><path d="M147.44,934.66H122.38a2.23,2.23,0,0,1-2.23-2.23v-91.8a2.23,2.23,0,0,1,2.23-2.23h25.06a2.23,2.23,0,0,1,2.23,2.23v91.8A2.23,2.23,0,0,1,147.44,934.66ZM122.38,840.4a.23.23,0,0,0-.23.23v91.8a.23.23,0,0,0,.23.23h25.06a.23.23,0,0,0,.23-.23v-91.8a.23.23,0,0,0-.23-.23Z" transform="translate(-13.23 -38.52)" style="fill:#fff"></path><path d="M109.33,934.66H84.27A2.23,2.23,0,0,1,82,932.43v-57.8a2.23,2.23,0,0,1,2.23-2.23h25.06a2.23,2.23,0,0,1,2.23,2.23v57.8A2.23,2.23,0,0,1,109.33,934.66ZM84.27,874.4a.23.23,0,0,0-.23.23v57.8a.23.23,0,0,0,.23.23h25.06a.23.23,0,0,0,.23-.23v-57.8a.23.23,0,0,0-.23-.23Z" transform="translate(-13.23 -38.52)" style="fill:#fff"></path><path d="M71.22,934.66H46.16a2.23,2.23,0,0,1-2.23-2.23v-27.8a2.23,2.23,0,0,1,2.23-2.23H71.22a2.23,2.23,0,0,1,2.23,2.23v27.8A2.23,2.23,0,0,1,71.22,934.66ZM46.16,904.4a.23.23,0,0,0-.23.23v27.8a.23.23,0,0,0,.23.23H71.22a.23.23,0,0,0,.23-.23v-27.8a.23.23,0,0,0-.23-.23Z" transform="translate(-13.23 -38.52)" style="fill:#fff"></path><path d="M835.39,1405.52H706.3a33.18,33.18,0,0,1-16.59-4.45L427.33,1242a1,1,0,0,1-.33-1.38,1,1,0,0,1,1.37-.33l262.36,159a31.09,31.09,0,0,0,15.57,4.17H835.39a1,1,0,0,1,0,2Z" transform="translate(-13.23 -38.52)" style="fill:#fff"></path><path d="M642.1,348.52a10,10,0,0,1,0-20,75.77,75.77,0,0,0,75.66-79.86,75.79,75.79,0,0,0-110.34-63.28,14.78,14.78,0,0,1-20.82-8.5A115.08,115.08,0,0,0,477.24,98.06a116.5,116.5,0,0,0-22.37,2.17l-5.2,1-3.76-3.72a134.17,134.17,0,0,0-94.92-39c-74.44,0-135,60.56-135,135,0,3.14.12,6.34.34,9.52a13.75,13.75,0,0,1-12.26,14.65,54.49,54.49,0,0,0,6.08,108.65,10,10,0,1,1,0,20,74.5,74.5,0,0,1-14.07-147.66q-.09-2.6-.09-5.16c0-85.47,69.54-155,155-155a154,154,0,0,1,105.2,41.17,137.31,137.31,0,0,1,21.05-1.63,135,135,0,0,1,126.37,87,96,96,0,0,1,39.9-8.06c50.21.73,91.6,40.53,94.22,90.62a95.77,95.77,0,0,1-95.63,100.9Z" transform="translate(-13.23 -38.52)" style="fill:#fff"></path><circle cx="196.42" cy="233.62" r="14.75" style="fill:#fff"></circle><path d="M214.9,274.13a1.67,1.67,0,0,1-.39,0,1.82,1.82,0,0,1-.38-.11,2.91,2.91,0,0,1-.35-.18,1.8,1.8,0,0,1-.29-.25,1,1,0,0,1-.25-.31,1.41,1.41,0,0,1-.19-.34,1.66,1.66,0,0,1-.11-.38,1.26,1.26,0,0,1,0-.39,2,2,0,0,1,.59-1.41,1.41,1.41,0,0,1,.29-.25,2.91,2.91,0,0,1,.35-.18,2.78,2.78,0,0,1,.38-.12,2,2,0,0,1,1.79.55,2,2,0,0,1,.6,1.41,2.45,2.45,0,0,1,0,.39,1.66,1.66,0,0,1-.11.38,1.9,1.9,0,0,1-.2.34,1.22,1.22,0,0,1-.25.31A2,2,0,0,1,214.9,274.13Z" transform="translate(-13.23 -38.52)" style="fill:#fff"></path><path d="M259.9,790.61a2,2,0,0,1,2-2h0a2,2,0,0,1,2,2h0a2,2,0,0,1-2,2h0A2,2,0,0,1,259.9,790.61Zm0-10.05a2,2,0,0,1,2-2h0a2,2,0,0,1,2,2h0a2,2,0,0,1-2,2h0A2,2,0,0,1,259.9,780.56Zm0-10.06a2,2,0,0,1,2-2h0a2,2,0,0,1,2,2h0a2,2,0,0,1-2,2h0A2,2,0,0,1,259.9,770.5Zm0-10a2,2,0,0,1,2-2h0a2,2,0,0,1,2,2h0a2,2,0,0,1-2,2h0A2,2,0,0,1,259.9,760.45Zm0-10.05a2,2,0,0,1,2-2h0a2,2,0,0,1,2,2h0a2,2,0,0,1-2,2h0A2,2,0,0,1,259.9,750.4Zm0-10a2,2,0,0,1,2-2h0a2,2,0,0,1,2,2h0a2,2,0,0,1-2,2h0A2,2,0,0,1,259.9,740.35Zm0-10.05a2,2,0,0,1,2-2h0a2,2,0,0,1,2,2h0a2,2,0,0,1-2,2h0A2,2,0,0,1,259.9,730.3Zm0-10a2,2,0,0,1,2-2h0a2,2,0,0,1,2,2h0a2,2,0,0,1-2,2h0A2,2,0,0,1,259.9,720.25Zm0-10a2,2,0,0,1,2-2h0a2,2,0,0,1,2,2h0a2,2,0,0,1-2,2h0A2,2,0,0,1,259.9,710.2Zm0-10.05a2,2,0,0,1,2-2h0a2,2,0,0,1,2,2h0a2,2,0,0,1-2,2h0A2,2,0,0,1,259.9,700.15Zm0-10a2,2,0,0,1,2-2h0a2,2,0,0,1,2,2h0a2,2,0,0,1-2,2h0A2,2,0,0,1,259.9,690.1Zm0-10.06a2,2,0,0,1,2-2h0a2,2,0,0,1,2,2h0a2,2,0,0,1-2,2h0A2,2,0,0,1,259.9,680Zm0-10a2,2,0,0,1,2-2h0a2,2,0,0,1,2,2h0a2,2,0,0,1-2,2h0A2,2,0,0,1,259.9,670Zm0-10a2,2,0,0,1,2-2h0a2,2,0,0,1,2,2h0a2,2,0,0,1-2,2h0A2,2,0,0,1,259.9,659.94Zm0-10.05a2,2,0,0,1,2-2h0a2,2,0,0,1,2,2h0a2,2,0,0,1-2,2h0A2,2,0,0,1,259.9,649.89Zm0-10a2,2,0,0,1,2-2h0a2,2,0,0,1,2,2h0a2,2,0,0,1-2,2h0A2,2,0,0,1,259.9,639.84Zm0-10.05a2,2,0,0,1,2-2h0a2,2,0,0,1,2,2h0a2,2,0,0,1-2,2h0A2,2,0,0,1,259.9,629.79Zm0-10a2,2,0,0,1,2-2h0a2,2,0,0,1,2,2h0a2,2,0,0,1-2,2h0A2,2,0,0,1,259.9,619.74Zm0-10a2,2,0,0,1,2-2h0a2,2,0,0,1,2,2h0a2,2,0,0,1-2,2h0A2,2,0,0,1,259.9,609.69Zm0-10.05a2,2,0,0,1,2-2h0a2,2,0,0,1,2,2h0a2,2,0,0,1-2,2h0A2,2,0,0,1,259.9,599.64Zm0-10.06a2,2,0,0,1,2-2h0a2,2,0,0,1,2,2h0a2,2,0,0,1-2,2h0A2,2,0,0,1,259.9,589.58Zm0-10.05a2,2,0,0,1,2-2h0a2,2,0,0,1,2,2h0a2,2,0,0,1-2,2h0A2,2,0,0,1,259.9,579.53Zm0-10a2,2,0,0,1,2-2h0a2,2,0,0,1,2,2h0a2,2,0,0,1-2,2h0A2,2,0,0,1,259.9,569.48Zm0-10.05a2,2,0,0,1,2-2h0a2,2,0,0,1,2,2h0a2,2,0,0,1-2,2h0A2,2,0,0,1,259.9,559.43Zm0-10a2,2,0,0,1,2-2h0a2,2,0,0,1,2,2h0a2,2,0,0,1-2,2h0A2,2,0,0,1,259.9,549.38Zm0-10a2,2,0,0,1,2-2h0a2,2,0,0,1,2,2h0a2,2,0,0,1-2,2h0A2,2,0,0,1,259.9,539.33Zm0-10.05a2,2,0,0,1,2-2h0a2,2,0,0,1,2,2h0a2,2,0,0,1-2,2h0A2,2,0,0,1,259.9,529.28Zm0-10a2,2,0,0,1,2-2h0a2,2,0,0,1,2,2h0a2,2,0,0,1-2,2h0A2,2,0,0,1,259.9,519.23Zm0-10.05a2,2,0,0,1,2-2h0a2,2,0,0,1,2,2h0a2,2,0,0,1-2,2h0A2,2,0,0,1,259.9,509.18Zm0-10.06a2,2,0,0,1,2-2h0a2,2,0,0,1,2,2h0a2,2,0,0,1-2,2h0A2,2,0,0,1,259.9,499.12Zm0-10.05a2,2,0,0,1,2-2h0a2,2,0,0,1,2,2h0a2,2,0,0,1-2,2h0A2,2,0,0,1,259.9,489.07Zm0-10.05a2,2,0,0,1,2-2h0a2,2,0,0,1,2,2h0a2,2,0,0,1-2,2h0A2,2,0,0,1,259.9,479Zm0-10a2,2,0,0,1,2-2h0a2,2,0,0,1,2,2h0a2,2,0,0,1-2,2h0A2,2,0,0,1,259.9,469Zm0-10.05a2,2,0,0,1,2-2h0a2,2,0,0,1,2,2h0a2,2,0,0,1-2,2h0A2,2,0,0,1,259.9,458.92Zm0-10.05a2,2,0,0,1,2-2h0a2,2,0,0,1,2,2h0a2,2,0,0,1-2,2h0A2,2,0,0,1,259.9,448.87Zm0-10.05a2,2,0,0,1,2-2h0a2,2,0,0,1,2,2h0a2,2,0,0,1-2,2h0A2,2,0,0,1,259.9,438.82Zm0-10.05a2,2,0,0,1,2-2h0a2,2,0,0,1,2,2h0a2,2,0,0,1-2,2h0A2,2,0,0,1,259.9,428.77Zm0-10.06a2,2,0,0,1,2-2h0a2,2,0,0,1,2,2h0a2,2,0,0,1-2,2h0A2,2,0,0,1,259.9,418.71Zm0-10a2,2,0,0,1,2-2h0a2,2,0,0,1,2,2h0a2,2,0,0,1-2,2h0A2,2,0,0,1,259.9,408.66Zm0-10.05a2,2,0,0,1,2-2h0a2,2,0,0,1,2,2h0a2,2,0,0,1-2,2h0A2,2,0,0,1,259.9,398.61Zm0-10.05a2,2,0,0,1,2-2h0a2,2,0,0,1,2,2h0a2,2,0,0,1-2,2h0A2,2,0,0,1,259.9,388.56Zm0-10.05a2,2,0,0,1,2-2h0a2,2,0,0,1,2,2h0a2,2,0,0,1-2,2h0A2,2,0,0,1,259.9,378.51Zm0-10.05a2,2,0,0,1,2-2h0a2,2,0,0,1,2,2h0a2,2,0,0,1-2,2h0A2,2,0,0,1,259.9,368.46Zm0-10a2,2,0,0,1,2-2h0a2,2,0,0,1,2,2h0a2,2,0,0,1-2,2h0A2,2,0,0,1,259.9,358.41Zm0-10.05a2,2,0,0,1,2-2h0a2,2,0,0,1,2,2h0a2,2,0,0,1-2,2h0A2,2,0,0,1,259.9,348.36Zm0-10.05a2,2,0,0,1,2-2h0a2,2,0,0,1,2,2h0a2,2,0,0,1-2,2h0A2,2,0,0,1,259.9,338.31Zm0-10.06a2,2,0,0,1,2-2h0a2,2,0,0,1,2,2h0a2,2,0,0,1-2,2h0A2,2,0,0,1,259.9,328.25Zm0-10.05a2,2,0,0,1,2-2h0a2,2,0,0,1,2,2h0a2,2,0,0,1-2,2h0A2,2,0,0,1,259.9,318.2Zm0-10.05a2,2,0,0,1,2-2h0a2,2,0,0,1,2,2h0a2,2,0,0,1-2,2h0A2,2,0,0,1,259.9,308.15Zm-.21-9.8a2,2,0,0,1,1.75-2.22h0a2,2,0,0,1,2.23,1.74h0a2,2,0,0,1-1.75,2.23h-.23A2,2,0,0,1,259.69,298.35ZM257,289.42a2,2,0,0,1,.89-2.68h0a2,2,0,0,1,2.69.9h0a2,2,0,0,1-.9,2.68h0a2.07,2.07,0,0,1-.89.21h0A2,2,0,0,1,257,289.42Zm-5.5-7.52a2,2,0,0,1-.05-2.83h0a2,2,0,0,1,2.82-.05h0a2,2,0,0,1,0,2.83h0a1.92,1.92,0,0,1-1.42.61h0A2,2,0,0,1,251.53,281.9Zm-7.71-5.27a2,2,0,0,1-1-2.65h0a2,2,0,0,1,2.66-1h0a2,2,0,0,1,1,2.66h0a2,2,0,0,1-1.83,1.16h0A2.07,2.07,0,0,1,243.82,276.63Zm-9-2.39a2,2,0,0,1-1.81-2.17h0a2,2,0,0,1,2.16-1.81h0a2,2,0,0,1,1.82,2.17h0a2,2,0,0,1-2,1.82h-.18Zm-11.88-2.11a2,2,0,0,1,2-2h0a2,2,0,0,1,2,2h0a2,2,0,0,1-2,2h0A2,2,0,0,1,222.94,272.13Z" transform="translate(-13.23 -38.52)" style="fill:#fff"></path><path d="M261.9,802.69a2,2,0,0,1-2-2,2,2,0,0,1,.59-1.42,2.06,2.06,0,0,1,2.81,0,2,2,0,0,1,.6,1.42,1.94,1.94,0,0,1-.6,1.41,2.26,2.26,0,0,1-.29.25,2.9,2.9,0,0,1-.34.19,2.85,2.85,0,0,1-.39.11A1.64,1.64,0,0,1,261.9,802.69Z" transform="translate(-13.23 -38.52)" style="fill:#fff"></path><path d="M261.9,803.49a5.53,5.53,0,0,1-3.93-1.62l-9-9a2,2,0,0,1,2.83-2.83l9,9a1.55,1.55,0,0,0,2.19,0l9-9a2,2,0,1,1,2.83,2.83l-9,9A5.53,5.53,0,0,1,261.9,803.49Z" transform="translate(-13.23 -38.52)" style="fill:#fff"></path><circle cx="251.42" cy="173.62" r="14.75" style="fill:#fff"></circle><path d="M269.9,214.13a2.47,2.47,0,0,1-.39,0,2.78,2.78,0,0,1-.38-.12,2.91,2.91,0,0,1-.35-.18,1.8,1.8,0,0,1-.29-.25,2,2,0,0,1,0-2.83,1.41,1.41,0,0,1,.29-.25,2.91,2.91,0,0,1,.35-.18,2.78,2.78,0,0,1,.38-.12,2,2,0,0,1,1.79.55,2,2,0,0,1,0,2.83A2,2,0,0,1,269.9,214.13Z" transform="translate(-13.23 -38.52)" style="fill:#fff"></path><path d="M314.9,770.61a2,2,0,0,1,2-2h0a2,2,0,0,1,2,2h0a2,2,0,0,1-2,2h0A2,2,0,0,1,314.9,770.61Zm0-10.05a2,2,0,0,1,2-2h0a2,2,0,0,1,2,2h0a2,2,0,0,1-2,2h0A2,2,0,0,1,314.9,760.56Zm0-10a2,2,0,0,1,2-2h0a2,2,0,0,1,2,2h0a2,2,0,0,1-2,2h0A2,2,0,0,1,314.9,750.51Zm0-10a2,2,0,0,1,2-2h0a2,2,0,0,1,2,2h0a2,2,0,0,1-2,2h0A2,2,0,0,1,314.9,740.47Zm0-10.05a2,2,0,0,1,2-2h0a2,2,0,0,1,2,2h0a2,2,0,0,1-2,2h0A2,2,0,0,1,314.9,730.42Zm0-10a2,2,0,0,1,2-2h0a2,2,0,0,1,2,2h0a2,2,0,0,1-2,2h0A2,2,0,0,1,314.9,720.37Zm0-10a2,2,0,0,1,2-2h0a2,2,0,0,1,2,2h0a2,2,0,0,1-2,2h0A2,2,0,0,1,314.9,710.32Zm0-10a2,2,0,0,1,2-2h0a2,2,0,0,1,2,2h0a2,2,0,0,1-2,2h0A2,2,0,0,1,314.9,700.28Zm0-10a2,2,0,0,1,2-2h0a2,2,0,0,1,2,2h0a2,2,0,0,1-2,2h0A2,2,0,0,1,314.9,690.23Zm0-10.05a2,2,0,0,1,2-2h0a2,2,0,0,1,2,2h0a2,2,0,0,1-2,2h0A2,2,0,0,1,314.9,680.18Zm0-10a2,2,0,0,1,2-2h0a2,2,0,0,1,2,2h0a2,2,0,0,1-2,2h0A2,2,0,0,1,314.9,670.13Zm0-10a2,2,0,0,1,2-2h0a2,2,0,0,1,2,2h0a2,2,0,0,1-2,2h0A2,2,0,0,1,314.9,660.08Zm0-10a2,2,0,0,1,2-2h0a2,2,0,0,1,2,2h0a2,2,0,0,1-2,2h0A2,2,0,0,1,314.9,650Zm0-10a2,2,0,0,1,2-2h0a2,2,0,0,1,2,2h0a2,2,0,0,1-2,2h0A2,2,0,0,1,314.9,640Zm0-10a2,2,0,0,1,2-2h0a2,2,0,0,1,2,2h0a2,2,0,0,1-2,2h0A2,2,0,0,1,314.9,629.94Zm0-10.05a2,2,0,0,1,2-2h0a2,2,0,0,1,2,2h0a2,2,0,0,1-2,2h0A2,2,0,0,1,314.9,619.89Zm0-10a2,2,0,0,1,2-2h0a2,2,0,0,1,2,2h0a2,2,0,0,1-2,2h0A2,2,0,0,1,314.9,609.85Zm0-10.05a2,2,0,0,1,2-2h0a2,2,0,0,1,2,2h0a2,2,0,0,1-2,2h0A2,2,0,0,1,314.9,599.8Zm0-10a2,2,0,0,1,2-2h0a2,2,0,0,1,2,2h0a2,2,0,0,1-2,2h0A2,2,0,0,1,314.9,589.75Zm0-10a2,2,0,0,1,2-2h0a2,2,0,0,1,2,2h0a2,2,0,0,1-2,2h0A2,2,0,0,1,314.9,579.7Zm0-10a2,2,0,0,1,2-2h0a2,2,0,0,1,2,2h0a2,2,0,0,1-2,2h0A2,2,0,0,1,314.9,569.66Zm0-10a2,2,0,0,1,2-2h0a2,2,0,0,1,2,2h0a2,2,0,0,1-2,2h0A2,2,0,0,1,314.9,559.61Zm0-10.05a2,2,0,0,1,2-2h0a2,2,0,0,1,2,2h0a2,2,0,0,1-2,2h0A2,2,0,0,1,314.9,549.56Zm0-10a2,2,0,0,1,2-2h0a2,2,0,0,1,2,2h0a2,2,0,0,1-2,2h0A2,2,0,0,1,314.9,539.51Zm0-10a2,2,0,0,1,2-2h0a2,2,0,0,1,2,2h0a2,2,0,0,1-2,2h0A2,2,0,0,1,314.9,529.46Zm0-10a2,2,0,0,1,2-2h0a2,2,0,0,1,2,2h0a2,2,0,0,1-2,2h0A2,2,0,0,1,314.9,519.42Zm0-10a2,2,0,0,1,2-2h0a2,2,0,0,1,2,2h0a2,2,0,0,1-2,2h0A2,2,0,0,1,314.9,509.37Zm0-10.05a2,2,0,0,1,2-2h0a2,2,0,0,1,2,2h0a2,2,0,0,1-2,2h0A2,2,0,0,1,314.9,499.32Zm0-10.05a2,2,0,0,1,2-2h0a2,2,0,0,1,2,2h0a2,2,0,0,1-2,2h0A2,2,0,0,1,314.9,489.27Zm0-10a2,2,0,0,1,2-2h0a2,2,0,0,1,2,2h0a2,2,0,0,1-2,2h0A2,2,0,0,1,314.9,479.23Zm0-10.05a2,2,0,0,1,2-2h0a2,2,0,0,1,2,2h0a2,2,0,0,1-2,2h0A2,2,0,0,1,314.9,469.18Zm0-10.05a2,2,0,0,1,2-2h0a2,2,0,0,1,2,2h0a2,2,0,0,1-2,2h0A2,2,0,0,1,314.9,459.13Zm0-10.05a2,2,0,0,1,2-2h0a2,2,0,0,1,2,2h0a2,2,0,0,1-2,2h0A2,2,0,0,1,314.9,449.08Zm0-10a2,2,0,0,1,2-2h0a2,2,0,0,1,2,2h0a2,2,0,0,1-2,2h0A2,2,0,0,1,314.9,439Zm0-10.05a2,2,0,0,1,2-2h0a2,2,0,0,1,2,2h0a2,2,0,0,1-2,2h0A2,2,0,0,1,314.9,429Zm0-10.05a2,2,0,0,1,2-2h0a2,2,0,0,1,2,2h0a2,2,0,0,1-2,2h0A2,2,0,0,1,314.9,418.94Zm0-10.05a2,2,0,0,1,2-2h0a2,2,0,0,1,2,2h0a2,2,0,0,1-2,2h0A2,2,0,0,1,314.9,408.89Zm0-10.05a2,2,0,0,1,2-2h0a2,2,0,0,1,2,2h0a2,2,0,0,1-2,2h0A2,2,0,0,1,314.9,398.84Zm0-10a2,2,0,0,1,2-2h0a2,2,0,0,1,2,2h0a2,2,0,0,1-2,2h0A2,2,0,0,1,314.9,388.8Zm0-10.05a2,2,0,0,1,2-2h0a2,2,0,0,1,2,2h0a2,2,0,0,1-2,2h0A2,2,0,0,1,314.9,378.75Zm0-10.05a2,2,0,0,1,2-2h0a2,2,0,0,1,2,2h0a2,2,0,0,1-2,2h0A2,2,0,0,1,314.9,368.7Zm0-10.05a2,2,0,0,1,2-2h0a2,2,0,0,1,2,2h0a2,2,0,0,1-2,2h0A2,2,0,0,1,314.9,358.65Zm0-10a2,2,0,0,1,2-2h0a2,2,0,0,1,2,2h0a2,2,0,0,1-2,2h0A2,2,0,0,1,314.9,348.61Zm0-10.05a2,2,0,0,1,2-2h0a2,2,0,0,1,2,2h0a2,2,0,0,1-2,2h0A2,2,0,0,1,314.9,338.56Zm0-10.05a2,2,0,0,1,2-2h0a2,2,0,0,1,2,2h0a2,2,0,0,1-2,2h0A2,2,0,0,1,314.9,328.51Zm0-10.05a2,2,0,0,1,2-2h0a2,2,0,0,1,2,2h0a2,2,0,0,1-2,2h0A2,2,0,0,1,314.9,318.46Zm0-10a2,2,0,0,1,2-2h0a2,2,0,0,1,2,2h0a2,2,0,0,1-2,2h0A2,2,0,0,1,314.9,308.41Zm0-10a2,2,0,0,1,2-2h0a2,2,0,0,1,2,2h0a2,2,0,0,1-2,2h0A2,2,0,0,1,314.9,298.37Zm0-10.05a2,2,0,0,1,2-2h0a2,2,0,0,1,2,2h0a2,2,0,0,1-2,2h0A2,2,0,0,1,314.9,288.32Zm0-10.05a2,2,0,0,1,2-2h0a2,2,0,0,1,2,2h0a2,2,0,0,1-2,2h0A2,2,0,0,1,314.9,278.27Zm0-10a2,2,0,0,1,2-2h0a2,2,0,0,1,2,2h0a2,2,0,0,1-2,2h0A2,2,0,0,1,314.9,268.22Zm0-10a2,2,0,0,1,2-2h0a2,2,0,0,1,2,2h0a2,2,0,0,1-2,2h0A2,2,0,0,1,314.9,258.18Zm0-10.05a2,2,0,0,1,2-2h0a2,2,0,0,1,2,2h0a2,2,0,0,1-2,2h0A2,2,0,0,1,314.9,248.13Zm-.21-9.8a2,2,0,0,1,1.75-2.23h0a2,2,0,0,1,2.23,1.75h0a2,2,0,0,1-1.75,2.23h-.25A2,2,0,0,1,314.69,238.33ZM312,229.41a2,2,0,0,1,.9-2.68h0a2,2,0,0,1,2.69.89h0a2,2,0,0,1-.9,2.69h0a2.07,2.07,0,0,1-.89.21h0A2,2,0,0,1,312,229.41Zm-5.5-7.52a2,2,0,0,1-.06-2.83h0a2,2,0,0,1,2.84,0h0a2,2,0,0,1,0,2.82h0a2,2,0,0,1-1.44.61h0A1.94,1.94,0,0,1,306.52,221.89Zm-7.7-5.27a2,2,0,0,1-1-2.65h0a2,2,0,0,1,2.65-1h0a2,2,0,0,1,1,2.65h0a2,2,0,0,1-1.83,1.17h0A1.93,1.93,0,0,1,298.82,216.62Zm-9-2.38a2,2,0,0,1-1.82-2.17h0a2,2,0,0,1,2.17-1.81h0a2,2,0,0,1,1.81,2.17h0a2,2,0,0,1-2,1.82h-.17Zm-11.88-2.11a2,2,0,0,1,2-2h0a2,2,0,0,1,2,2h0a2,2,0,0,1-2,2h0A2,2,0,0,1,277.94,212.13Z" transform="translate(-13.23 -38.52)" style="fill:#fff"></path><path d="M316.9,782.69a2,2,0,0,1-1.41-3.41,2,2,0,0,1,2.81,0,2,2,0,0,1-1.4,3.41Z" transform="translate(-13.23 -38.52)" style="fill:#fff"></path><path d="M316.9,783.49a5.53,5.53,0,0,1-3.93-1.62l-9-9a2,2,0,1,1,2.83-2.83l9,9a1.55,1.55,0,0,0,2.19,0l9-9a2,2,0,1,1,2.83,2.83l-9,9A5.53,5.53,0,0,1,316.9,783.49Z" transform="translate(-13.23 -38.52)" style="fill:#fff"></path><circle cx="301.42" cy="93.62" r="14.75" style="fill:#fff"></circle><path d="M324.9,134.13a2,2,0,0,1-1.41-.58,1,1,0,0,1-.25-.31,1.41,1.41,0,0,1-.19-.34,1.66,1.66,0,0,1-.11-.38,1.26,1.26,0,0,1,0-.39,2,2,0,0,1,.59-1.41,2.06,2.06,0,0,1,2.81,0,2,2,0,0,1,.6,1.41,2.45,2.45,0,0,1,0,.39,1.66,1.66,0,0,1-.11.38,1.9,1.9,0,0,1-.2.34,1.22,1.22,0,0,1-.25.31,3.47,3.47,0,0,1-.29.25,2,2,0,0,1-.36.18,1.45,1.45,0,0,1-.37.11A1.64,1.64,0,0,1,324.9,134.13Z" transform="translate(-13.23 -38.52)" style="fill:#fff"></path><path d="M369.9,759.63a2,2,0,0,1,2-2h0a2,2,0,0,1,2,2h0a2,2,0,0,1-2,2h0A2,2,0,0,1,369.9,759.63Zm0-10a2,2,0,0,1,2-2h0a2,2,0,0,1,2,2h0a2,2,0,0,1-2,2h0A2,2,0,0,1,369.9,749.6Zm0-10a2,2,0,0,1,2-2h0a2,2,0,0,1,2,2h0a2,2,0,0,1-2,2h0A2,2,0,0,1,369.9,739.57Zm0-10a2,2,0,0,1,2-2h0a2,2,0,0,1,2,2h0a2,2,0,0,1-2,2h0A2,2,0,0,1,369.9,729.55Zm0-10a2,2,0,0,1,2-2h0a2,2,0,0,1,2,2h0a2,2,0,0,1-2,2h0A2,2,0,0,1,369.9,719.52Zm0-10a2,2,0,0,1,2-2h0a2,2,0,0,1,2,2h0a2,2,0,0,1-2,2h0A2,2,0,0,1,369.9,709.49Zm0-10a2,2,0,0,1,2-2h0a2,2,0,0,1,2,2h0a2,2,0,0,1-2,2h0A2,2,0,0,1,369.9,699.46Zm0-10a2,2,0,0,1,2-2h0a2,2,0,0,1,2,2h0a2,2,0,0,1-2,2h0A2,2,0,0,1,369.9,689.43Zm0-10a2,2,0,0,1,2-2h0a2,2,0,0,1,2,2h0a2,2,0,0,1-2,2h0A2,2,0,0,1,369.9,679.41Zm0-10a2,2,0,0,1,2-2h0a2,2,0,0,1,2,2h0a2,2,0,0,1-2,2h0A2,2,0,0,1,369.9,669.38Zm0-10a2,2,0,0,1,2-2h0a2,2,0,0,1,2,2h0a2,2,0,0,1-2,2h0A2,2,0,0,1,369.9,659.35Zm0-10a2,2,0,0,1,2-2h0a2,2,0,0,1,2,2h0a2,2,0,0,1-2,2h0A2,2,0,0,1,369.9,649.32Zm0-10a2,2,0,0,1,2-2h0a2,2,0,0,1,2,2h0a2,2,0,0,1-2,2h0A2,2,0,0,1,369.9,639.3Zm0-10a2,2,0,0,1,2-2h0a2,2,0,0,1,2,2h0a2,2,0,0,1-2,2h0A2,2,0,0,1,369.9,629.27Zm0-10a2,2,0,0,1,2-2h0a2,2,0,0,1,2,2h0a2,2,0,0,1-2,2h0A2,2,0,0,1,369.9,619.24Zm0-10a2,2,0,0,1,2-2h0a2,2,0,0,1,2,2h0a2,2,0,0,1-2,2h0A2,2,0,0,1,369.9,609.21Zm0-10a2,2,0,0,1,2-2h0a2,2,0,0,1,2,2h0a2,2,0,0,1-2,2h0A2,2,0,0,1,369.9,599.19Zm0-10a2,2,0,0,1,2-2h0a2,2,0,0,1,2,2h0a2,2,0,0,1-2,2h0A2,2,0,0,1,369.9,589.16Zm0-10a2,2,0,0,1,2-2h0a2,2,0,0,1,2,2h0a2,2,0,0,1-2,2h0A2,2,0,0,1,369.9,579.13Zm0-10a2,2,0,0,1,2-2h0a2,2,0,0,1,2,2h0a2,2,0,0,1-2,2h0A2,2,0,0,1,369.9,569.1Zm0-10a2,2,0,0,1,2-2h0a2,2,0,0,1,2,2h0a2,2,0,0,1-2,2h0A2,2,0,0,1,369.9,559.07Zm0-10a2,2,0,0,1,2-2h0a2,2,0,0,1,2,2h0a2,2,0,0,1-2,2h0A2,2,0,0,1,369.9,549.05Zm0-10a2,2,0,0,1,2-2h0a2,2,0,0,1,2,2h0a2,2,0,0,1-2,2h0A2,2,0,0,1,369.9,539Zm0-10a2,2,0,0,1,2-2h0a2,2,0,0,1,2,2h0a2,2,0,0,1-2,2h0A2,2,0,0,1,369.9,529Zm0-10a2,2,0,0,1,2-2h0a2,2,0,0,1,2,2h0a2,2,0,0,1-2,2h0A2,2,0,0,1,369.9,519Zm0-10a2,2,0,0,1,2-2h0a2,2,0,0,1,2,2h0a2,2,0,0,1-2,2h0A2,2,0,0,1,369.9,508.93Zm0-10a2,2,0,0,1,2-2h0a2,2,0,0,1,2,2h0a2,2,0,0,1-2,2h0A2,2,0,0,1,369.9,498.91Zm0-10a2,2,0,0,1,2-2h0a2,2,0,0,1,2,2h0a2,2,0,0,1-2,2h0A2,2,0,0,1,369.9,488.88Zm0-10a2,2,0,0,1,2-2h0a2,2,0,0,1,2,2h0a2,2,0,0,1-2,2h0A2,2,0,0,1,369.9,478.85Zm0-10a2,2,0,0,1,2-2h0a2,2,0,0,1,2,2h0a2,2,0,0,1-2,2h0A2,2,0,0,1,369.9,468.82Zm0-10a2,2,0,0,1,2-2h0a2,2,0,0,1,2,2h0a2,2,0,0,1-2,2h0A2,2,0,0,1,369.9,458.8Zm0-10a2,2,0,0,1,2-2h0a2,2,0,0,1,2,2h0a2,2,0,0,1-2,2h0A2,2,0,0,1,369.9,448.77Zm0-10a2,2,0,0,1,2-2h0a2,2,0,0,1,2,2h0a2,2,0,0,1-2,2h0A2,2,0,0,1,369.9,438.74Zm0-10a2,2,0,0,1,2-2h0a2,2,0,0,1,2,2h0a2,2,0,0,1-2,2h0A2,2,0,0,1,369.9,428.71Zm0-10a2,2,0,0,1,2-2h0a2,2,0,0,1,2,2h0a2,2,0,0,1-2,2h0A2,2,0,0,1,369.9,418.68Zm0-10a2,2,0,0,1,2-2h0a2,2,0,0,1,2,2h0a2,2,0,0,1-2,2h0A2,2,0,0,1,369.9,408.66Zm0-10a2,2,0,0,1,2-2h0a2,2,0,0,1,2,2h0a2,2,0,0,1-2,2h0A2,2,0,0,1,369.9,398.63Zm0-10a2,2,0,0,1,2-2h0a2,2,0,0,1,2,2h0a2,2,0,0,1-2,2h0A2,2,0,0,1,369.9,388.6Zm0-10a2,2,0,0,1,2-2h0a2,2,0,0,1,2,2h0a2,2,0,0,1-2,2h0A2,2,0,0,1,369.9,378.57Zm0-10a2,2,0,0,1,2-2h0a2,2,0,0,1,2,2h0a2,2,0,0,1-2,2h0A2,2,0,0,1,369.9,368.55Zm0-10a2,2,0,0,1,2-2h0a2,2,0,0,1,2,2h0a2,2,0,0,1-2,2h0A2,2,0,0,1,369.9,358.52Zm0-10a2,2,0,0,1,2-2h0a2,2,0,0,1,2,2h0a2,2,0,0,1-2,2h0A2,2,0,0,1,369.9,348.49Zm0-10a2,2,0,0,1,2-2h0a2,2,0,0,1,2,2h0a2,2,0,0,1-2,2h0A2,2,0,0,1,369.9,338.46Zm0-10a2,2,0,0,1,2-2h0a2,2,0,0,1,2,2h0a2,2,0,0,1-2,2h0A2,2,0,0,1,369.9,328.44Zm0-10a2,2,0,0,1,2-2h0a2,2,0,0,1,2,2h0a2,2,0,0,1-2,2h0A2,2,0,0,1,369.9,318.41Zm0-10a2,2,0,0,1,2-2h0a2,2,0,0,1,2,2h0a2,2,0,0,1-2,2h0A2,2,0,0,1,369.9,308.38Zm0-10a2,2,0,0,1,2-2h0a2,2,0,0,1,2,2h0a2,2,0,0,1-2,2h0A2,2,0,0,1,369.9,298.35Zm0-10a2,2,0,0,1,2-2h0a2,2,0,0,1,2,2h0a2,2,0,0,1-2,2h0A2,2,0,0,1,369.9,288.32Zm0-10a2,2,0,0,1,2-2h0a2,2,0,0,1,2,2h0a2,2,0,0,1-2,2h0A2,2,0,0,1,369.9,278.29Zm0-10a2,2,0,0,1,2-2h0a2,2,0,0,1,2,2h0a2,2,0,0,1-2,2h0A2,2,0,0,1,369.9,268.27Zm0-10a2,2,0,0,1,2-2h0a2,2,0,0,1,2,2h0a2,2,0,0,1-2,2h0A2,2,0,0,1,369.9,258.24Zm0-10a2,2,0,0,1,2-2h0a2,2,0,0,1,2,2h0a2,2,0,0,1-2,2h0A2,2,0,0,1,369.9,248.21Zm0-10a2,2,0,0,1,2-2h0a2,2,0,0,1,2,2h0a2,2,0,0,1-2,2h0A2,2,0,0,1,369.9,238.18Zm0-10a2,2,0,0,1,2-2h0a2,2,0,0,1,2,2h0a2,2,0,0,1-2,2h0A2,2,0,0,1,369.9,228.16Zm0-10a2,2,0,0,1,2-2h0a2,2,0,0,1,2,2h0a2,2,0,0,1-2,2h0A2,2,0,0,1,369.9,218.13Zm0-10a2,2,0,0,1,2-2h0a2,2,0,0,1,2,2h0a2,2,0,0,1-2,2h0A2,2,0,0,1,369.9,208.1Zm0-10a2,2,0,0,1,2-2h0a2,2,0,0,1,2,2h0a2,2,0,0,1-2,2h0A2,2,0,0,1,369.9,198.07Zm0-10a2,2,0,0,1,2-2h0a2,2,0,0,1,2,2h0a2,2,0,0,1-2,2h0A2,2,0,0,1,369.9,188Zm0-10a2,2,0,0,1,2-2h0a2,2,0,0,1,2,2h0a2,2,0,0,1-2,2h0A2,2,0,0,1,369.9,178Zm0-10a2,2,0,0,1,2-2h0a2,2,0,0,1,2,2h0a2,2,0,0,1-2,2h0A2,2,0,0,1,369.9,168Zm-.21-9.77a2,2,0,0,1,1.73-2.23h0a2,2,0,0,1,2.23,1.73h0a2,2,0,0,1-1.73,2.24h-.25A2,2,0,0,1,369.69,158.22ZM367,149.33a2,2,0,0,1,.88-2.69h0a2,2,0,0,1,2.69.89h0a2,2,0,0,1-.88,2.68h0a2,2,0,0,1-.9.22h0A2,2,0,0,1,367,149.33Zm-5.52-7.49a2,2,0,0,1-.06-2.83h0a2,2,0,0,1,2.84,0h0a2,2,0,0,1,0,2.82h0a2,2,0,0,1-1.44.62h0A2,2,0,0,1,361.46,141.84Zm-7.69-5.24h0a2,2,0,0,1-1-2.65h0a2,2,0,0,1,2.64-1h0a2,2,0,0,1,1,2.65h0a2,2,0,0,1-1.83,1.17h0A2,2,0,0,1,353.77,136.6Zm-9-2.36h0a2,2,0,0,1-1.82-2.17h0a2,2,0,0,1,2.15-1.82h0a2,2,0,0,1,1.83,2.17h0a2,2,0,0,1-2,1.83h-.16Zm-11.86-2.11a2,2,0,0,1,2-2h0a2,2,0,0,1,2,2h0a2,2,0,0,1-2,2h0A2,2,0,0,1,332.92,132.13Z" transform="translate(-13.23 -38.52)" style="fill:#fff"></path><path d="M371.9,771.69a2,2,0,0,1-1.41-.59,1,1,0,0,1-.25-.3,1.7,1.7,0,0,1-.19-.35,1.58,1.58,0,0,1-.11-.37,1.29,1.29,0,0,1,0-.39,2,2,0,0,1,2.38-2,1.9,1.9,0,0,1,.39.11,1.93,1.93,0,0,1,.34.19,1.68,1.68,0,0,1,.29.25,1.94,1.94,0,0,1,.6,1.41,2.58,2.58,0,0,1,0,.39,1.58,1.58,0,0,1-.11.37,2.43,2.43,0,0,1-.2.35,1.18,1.18,0,0,1-.25.3,1.68,1.68,0,0,1-.29.25,2.9,2.9,0,0,1-.34.19,1.9,1.9,0,0,1-.39.11A1.64,1.64,0,0,1,371.9,771.69Z" transform="translate(-13.23 -38.52)" style="fill:#fff"></path><path d="M371.9,772.49a5.53,5.53,0,0,1-3.93-1.62l-9-9a2,2,0,1,1,2.83-2.83l9,9a1.55,1.55,0,0,0,2.19,0l9-9a2,2,0,1,1,2.83,2.83l-9,9A5.53,5.53,0,0,1,371.9,772.49Z" transform="translate(-13.23 -38.52)" style="fill:#fff"></path><circle cx="650.39" cy="233.62" r="14.75" style="fill:#fff"></circle><path d="M658.36,274.13a1.69,1.69,0,0,1-.38,0,1.45,1.45,0,0,1-.37-.11,1.92,1.92,0,0,1-.35-.18,2.48,2.48,0,0,1-.3-.25,1.48,1.48,0,0,1-.25-.31,1.11,1.11,0,0,1-.18-.34c0-.12-.09-.25-.13-.38a2.45,2.45,0,0,1,0-.39,2,2,0,0,1,.6-1.41,1.81,1.81,0,0,1,.3-.25,1.92,1.92,0,0,1,.35-.18,2,2,0,0,1,.37-.12,2,2,0,0,1,.78,0,2.29,2.29,0,0,1,.37.12,2.31,2.31,0,0,1,.35.18,1.81,1.81,0,0,1,.3.25,2,2,0,0,1,.58,1.41,2.2,2.2,0,0,1-.15.77,1.11,1.11,0,0,1-.18.34,1.48,1.48,0,0,1-.25.31,2.48,2.48,0,0,1-.3.25,2.31,2.31,0,0,1-.35.18,1.58,1.58,0,0,1-.37.11A1.75,1.75,0,0,1,658.36,274.13Z" transform="translate(-13.23 -38.52)" style="fill:#fff"></path><path d="M589.36,790.61a2,2,0,0,1,2-2h0a2,2,0,0,1,2,2h0a2,2,0,0,1-2,2h0A2,2,0,0,1,589.36,790.61Zm0-10.05a2,2,0,0,1,2-2h0a2,2,0,0,1,2,2h0a2,2,0,0,1-2,2h0A2,2,0,0,1,589.36,780.56Zm0-10a2,2,0,0,1,2-2h0a2,2,0,0,1,2,2h0a2,2,0,0,1-2,2h0A2,2,0,0,1,589.36,770.51Zm0-10a2,2,0,0,1,2-2h0a2,2,0,0,1,2,2h0a2,2,0,0,1-2,2h0A2,2,0,0,1,589.36,760.46Zm0-10.05a2,2,0,0,1,2-2h0a2,2,0,0,1,2,2h0a2,2,0,0,1-2,2h0A2,2,0,0,1,589.36,750.41Zm0-10a2,2,0,0,1,2-2h0a2,2,0,0,1,2,2h0a2,2,0,0,1-2,2h0A2,2,0,0,1,589.36,740.36Zm0-10.05a2,2,0,0,1,2-2h0a2,2,0,0,1,2,2h0a2,2,0,0,1-2,2h0A2,2,0,0,1,589.36,730.31Zm0-10a2,2,0,0,1,2-2h0a2,2,0,0,1,2,2h0a2,2,0,0,1-2,2h0A2,2,0,0,1,589.36,720.26Zm0-10a2,2,0,0,1,2-2h0a2,2,0,0,1,2,2h0a2,2,0,0,1-2,2h0A2,2,0,0,1,589.36,710.21Zm0-10a2,2,0,0,1,2-2h0a2,2,0,0,1,2,2h0a2,2,0,0,1-2,2h0A2,2,0,0,1,589.36,700.17Zm0-10a2,2,0,0,1,2-2h0a2,2,0,0,1,2,2h0a2,2,0,0,1-2,2h0A2,2,0,0,1,589.36,690.12Zm0-10.06a2,2,0,0,1,2-2h0a2,2,0,0,1,2,2h0a2,2,0,0,1-2,2h0A2,2,0,0,1,589.36,680.06Zm0-10a2,2,0,0,1,2-2h0a2,2,0,0,1,2,2h0a2,2,0,0,1-2,2h0A2,2,0,0,1,589.36,670Zm0-10a2,2,0,0,1,2-2h0a2,2,0,0,1,2,2h0a2,2,0,0,1-2,2h0A2,2,0,0,1,589.36,660Zm0-10.05a2,2,0,0,1,2-2h0a2,2,0,0,1,2,2h0a2,2,0,0,1-2,2h0A2,2,0,0,1,589.36,649.92Zm0-10a2,2,0,0,1,2-2h0a2,2,0,0,1,2,2h0a2,2,0,0,1-2,2h0A2,2,0,0,1,589.36,639.87Zm0-10a2,2,0,0,1,2-2h0a2,2,0,0,1,2,2h0a2,2,0,0,1-2,2h0A2,2,0,0,1,589.36,629.82Zm0-10.05a2,2,0,0,1,2-2h0a2,2,0,0,1,2,2h0a2,2,0,0,1-2,2h0A2,2,0,0,1,589.36,619.77Zm0-10a2,2,0,0,1,2-2h0a2,2,0,0,1,2,2h0a2,2,0,0,1-2,2h0A2,2,0,0,1,589.36,609.72Zm0-10.05a2,2,0,0,1,2-2h0a2,2,0,0,1,2,2h0a2,2,0,0,1-2,2h0A2,2,0,0,1,589.36,599.67Zm0-10a2,2,0,0,1,2-2h0a2,2,0,0,1,2,2h0a2,2,0,0,1-2,2h0A2,2,0,0,1,589.36,589.62Zm0-10a2,2,0,0,1,2-2h0a2,2,0,0,1,2,2h0a2,2,0,0,1-2,2h0A2,2,0,0,1,589.36,579.57Zm0-10.05a2,2,0,0,1,2-2h0a2,2,0,0,1,2,2h0a2,2,0,0,1-2,2h0A2,2,0,0,1,589.36,569.52Zm0-10a2,2,0,0,1,2-2h0a2,2,0,0,1,2,2h0a2,2,0,0,1-2,2h0A2,2,0,0,1,589.36,559.47Zm0-10.05a2,2,0,0,1,2-2h0a2,2,0,0,1,2,2h0a2,2,0,0,1-2,2h0A2,2,0,0,1,589.36,549.42Zm0-10a2,2,0,0,1,2-2h0a2,2,0,0,1,2,2h0a2,2,0,0,1-2,2h0A2,2,0,0,1,589.36,539.38Zm0-10a2,2,0,0,1,2-2h0a2,2,0,0,1,2,2h0a2,2,0,0,1-2,2h0A2,2,0,0,1,589.36,529.33Zm0-10.06a2,2,0,0,1,2-2h0a2,2,0,0,1,2,2h0a2,2,0,0,1-2,2h0A2,2,0,0,1,589.36,519.27Zm0-10a2,2,0,0,1,2-2h0a2,2,0,0,1,2,2h0a2,2,0,0,1-2,2h0A2,2,0,0,1,589.36,509.23Zm0-10.05a2,2,0,0,1,2-2h0a2,2,0,0,1,2,2h0a2,2,0,0,1-2,2h0A2,2,0,0,1,589.36,499.18Zm0-10.05a2,2,0,0,1,2-2h0a2,2,0,0,1,2,2h0a2,2,0,0,1-2,2h0A2,2,0,0,1,589.36,489.13Zm0-10.05a2,2,0,0,1,2-2h0a2,2,0,0,1,2,2h0a2,2,0,0,1-2,2h0A2,2,0,0,1,589.36,479.08Zm0-10.05a2,2,0,0,1,2-2h0a2,2,0,0,1,2,2h0a2,2,0,0,1-2,2h0A2,2,0,0,1,589.36,469Zm0-10a2,2,0,0,1,2-2h0a2,2,0,0,1,2,2h0a2,2,0,0,1-2,2h0A2,2,0,0,1,589.36,459Zm0-10.05a2,2,0,0,1,2-2h0a2,2,0,0,1,2,2h0a2,2,0,0,1-2,2h0A2,2,0,0,1,589.36,448.93Zm0-10.05a2,2,0,0,1,2-2h0a2,2,0,0,1,2,2h0a2,2,0,0,1-2,2h0A2,2,0,0,1,589.36,438.88Zm0-10.05a2,2,0,0,1,2-2h0a2,2,0,0,1,2,2h0a2,2,0,0,1-2,2h0A2,2,0,0,1,589.36,428.83Zm0-10.05a2,2,0,0,1,2-2h0a2,2,0,0,1,2,2h0a2,2,0,0,1-2,2h0A2,2,0,0,1,589.36,418.78Zm0-10a2,2,0,0,1,2-2h0a2,2,0,0,1,2,2h0a2,2,0,0,1-2,2h0A2,2,0,0,1,589.36,408.73Zm0-10.05a2,2,0,0,1,2-2h0a2,2,0,0,1,2,2h0a2,2,0,0,1-2,2h0A2,2,0,0,1,589.36,398.68Zm0-10.05a2,2,0,0,1,2-2h0a2,2,0,0,1,2,2h0a2,2,0,0,1-2,2h0A2,2,0,0,1,589.36,388.63Zm0-10.05a2,2,0,0,1,2-2h0a2,2,0,0,1,2,2h0a2,2,0,0,1-2,2h0A2,2,0,0,1,589.36,378.58Zm0-10a2,2,0,0,1,2-2h0a2,2,0,0,1,2,2h0a2,2,0,0,1-2,2h0A2,2,0,0,1,589.36,368.54Zm0-10.05a2,2,0,0,1,2-2h0a2,2,0,0,1,2,2h0a2,2,0,0,1-2,2h0A2,2,0,0,1,589.36,358.49Zm0-10.05a2,2,0,0,1,2-2h0a2,2,0,0,1,2,2h0a2,2,0,0,1-2,2h0A2,2,0,0,1,589.36,348.44Zm0-10.05a2,2,0,0,1,2-2h0a2,2,0,0,1,2,2h0a2,2,0,0,1-2,2h0A2,2,0,0,1,589.36,338.39Zm0-10.05a2,2,0,0,1,2-2h0a2,2,0,0,1,2,2h0a2,2,0,0,1-2,2h0A2,2,0,0,1,589.36,328.34Zm0-10a2,2,0,0,1,2-2h0a2,2,0,0,1,2,2h0a2,2,0,0,1-2,2h0A2,2,0,0,1,589.36,318.29Zm0-10.05a2,2,0,0,1,2-2h0a2,2,0,0,1,2,2h0a2,2,0,0,1-2,2h0A2,2,0,0,1,589.36,308.24Zm2-8.05a2,2,0,0,1-1.75-2.22h0a2,2,0,0,1,2.21-1.76h0a2,2,0,0,1,1.75,2.22h0a2,2,0,0,1-2,1.77h-.23Zm2.18-9.79a2,2,0,0,1-.91-2.67h0a2,2,0,0,1,2.69-.91h0a2,2,0,0,1,.89,2.68h0a2,2,0,0,1-1.79,1.11h0A2,2,0,0,1,593.52,290.4Zm5.34-8.48a2,2,0,0,1,0-2.83h0a2,2,0,0,1,2.83,0h0a2,2,0,0,1,0,2.83h0a2,2,0,0,1-1.41.57h0A2,2,0,0,1,598.86,281.92Zm7.85-6.23a2,2,0,0,1,1-2.65h0a2,2,0,0,1,2.67,1h0a2,2,0,0,1-1,2.66h0a1.94,1.94,0,0,1-.84.19h0A2,2,0,0,1,606.71,275.69Zm9.48-3.25a2,2,0,0,1,1.81-2.17h0a2,2,0,0,1,2.17,1.81h0a2,2,0,0,1-1.81,2.17h-.19A2,2,0,0,1,616.19,272.44Zm30.13-.31a2,2,0,0,1,2-2h0a2,2,0,0,1,2,2h0a2,2,0,0,1-2,2h0A2,2,0,0,1,646.32,272.13Zm-10.05,0a2,2,0,0,1,2-2h0a2,2,0,0,1,2,2h0a2,2,0,0,1-2,2h0A2,2,0,0,1,636.27,272.13Zm-10.06,0a2,2,0,0,1,2-2h0a2,2,0,0,1,2,2h0a2,2,0,0,1-2,2h0A2,2,0,0,1,626.21,272.13Z" transform="translate(-13.23 -38.52)" style="fill:#fff"></path><path d="M591.36,802.69a1.94,1.94,0,0,1-1.4-.59,2,2,0,0,1-.6-1.41,2,2,0,1,1,4,0,1.29,1.29,0,0,1,0,.39,1.21,1.21,0,0,1-.11.37,1.29,1.29,0,0,1-.18.35,1.42,1.42,0,0,1-.25.3,1.81,1.81,0,0,1-.3.25,2.37,2.37,0,0,1-.35.19,2.26,2.26,0,0,1-.37.11A1.75,1.75,0,0,1,591.36,802.69Z" transform="translate(-13.23 -38.52)" style="fill:#fff"></path><path d="M591.37,803.49a5.55,5.55,0,0,1-3.93-1.62l-9-9a2,2,0,0,1,2.83-2.83l9,9a1.56,1.56,0,0,0,2.2,0l9-9a2,2,0,0,1,2.82,2.83l-9,9A5.57,5.57,0,0,1,591.37,803.49Z" transform="translate(-13.23 -38.52)" style="fill:#fff"></path><circle cx="585.39" cy="193.62" r="14.75" style="fill:#fff"></circle><path d="M593.36,234.13a2,2,0,0,1-1.4-.58,2,2,0,0,1-.6-1.42,2.58,2.58,0,0,1,0-.39c0-.12.08-.25.13-.37a1.29,1.29,0,0,1,.18-.35,1.42,1.42,0,0,1,.25-.3,2.07,2.07,0,0,1,2.82,0,2,2,0,0,1,0,2.83A2,2,0,0,1,593.36,234.13Z" transform="translate(-13.23 -38.52)" style="fill:#fff"></path><path d="M534.36,770.61a2,2,0,0,1,2-2h0a2,2,0,0,1,2,2h0a2,2,0,0,1-2,2h0A2,2,0,0,1,534.36,770.61Zm0-10.05a2,2,0,0,1,2-2h0a2,2,0,0,1,2,2h0a2,2,0,0,1-2,2h0A2,2,0,0,1,534.36,760.56Zm0-10a2,2,0,0,1,2-2h0a2,2,0,0,1,2,2h0a2,2,0,0,1-2,2h0A2,2,0,0,1,534.36,750.51Zm0-10a2,2,0,0,1,2-2h0a2,2,0,0,1,2,2h0a2,2,0,0,1-2,2h0A2,2,0,0,1,534.36,740.46Zm0-10a2,2,0,0,1,2-2h0a2,2,0,0,1,2,2h0a2,2,0,0,1-2,2h0A2,2,0,0,1,534.36,730.42Zm0-10a2,2,0,0,1,2-2h0a2,2,0,0,1,2,2h0a2,2,0,0,1-2,2h0A2,2,0,0,1,534.36,720.37Zm0-10a2,2,0,0,1,2-2h0a2,2,0,0,1,2,2h0a2,2,0,0,1-2,2h0A2,2,0,0,1,534.36,710.32Zm0-10.05a2,2,0,0,1,2-2h0a2,2,0,0,1,2,2h0a2,2,0,0,1-2,2h0A2,2,0,0,1,534.36,700.27Zm0-10a2,2,0,0,1,2-2h0a2,2,0,0,1,2,2h0a2,2,0,0,1-2,2h0A2,2,0,0,1,534.36,690.22Zm0-10.05a2,2,0,0,1,2-2h0a2,2,0,0,1,2,2h0a2,2,0,0,1-2,2h0A2,2,0,0,1,534.36,680.17Zm0-10a2,2,0,0,1,2-2h0a2,2,0,0,1,2,2h0a2,2,0,0,1-2,2h0A2,2,0,0,1,534.36,670.12Zm0-10a2,2,0,0,1,2-2h0a2,2,0,0,1,2,2h0a2,2,0,0,1-2,2h0A2,2,0,0,1,534.36,660.07Zm0-10a2,2,0,0,1,2-2h0a2,2,0,0,1,2,2h0a2,2,0,0,1-2,2h0A2,2,0,0,1,534.36,650Zm0-10a2,2,0,0,1,2-2h0a2,2,0,0,1,2,2h0a2,2,0,0,1-2,2h0A2,2,0,0,1,534.36,640Zm0-10.05a2,2,0,0,1,2-2h0a2,2,0,0,1,2,2h0a2,2,0,0,1-2,2h0A2,2,0,0,1,534.36,629.93Zm0-10a2,2,0,0,1,2-2h0a2,2,0,0,1,2,2h0a2,2,0,0,1-2,2h0A2,2,0,0,1,534.36,619.88Zm0-10a2,2,0,0,1,2-2h0a2,2,0,0,1,2,2h0a2,2,0,0,1-2,2h0A2,2,0,0,1,534.36,609.83Zm0-10.05a2,2,0,0,1,2-2h0a2,2,0,0,1,2,2h0a2,2,0,0,1-2,2h0A2,2,0,0,1,534.36,599.78Zm0-10a2,2,0,0,1,2-2h0a2,2,0,0,1,2,2h0a2,2,0,0,1-2,2h0A2,2,0,0,1,534.36,589.74Zm0-10a2,2,0,0,1,2-2h0a2,2,0,0,1,2,2h0a2,2,0,0,1-2,2h0A2,2,0,0,1,534.36,579.69Zm0-10.05a2,2,0,0,1,2-2h0a2,2,0,0,1,2,2h0a2,2,0,0,1-2,2h0A2,2,0,0,1,534.36,569.64Zm0-10a2,2,0,0,1,2-2h0a2,2,0,0,1,2,2h0a2,2,0,0,1-2,2h0A2,2,0,0,1,534.36,559.59Zm0-10.05a2,2,0,0,1,2-2h0a2,2,0,0,1,2,2h0a2,2,0,0,1-2,2h0A2,2,0,0,1,534.36,549.54Zm0-10a2,2,0,0,1,2-2h0a2,2,0,0,1,2,2h0a2,2,0,0,1-2,2h0A2,2,0,0,1,534.36,539.49Zm0-10a2,2,0,0,1,2-2h0a2,2,0,0,1,2,2h0a2,2,0,0,1-2,2h0A2,2,0,0,1,534.36,529.44Zm0-10a2,2,0,0,1,2-2h0a2,2,0,0,1,2,2h0a2,2,0,0,1-2,2h0A2,2,0,0,1,534.36,519.4Zm0-10a2,2,0,0,1,2-2h0a2,2,0,0,1,2,2h0a2,2,0,0,1-2,2h0A2,2,0,0,1,534.36,509.35Zm0-10.05a2,2,0,0,1,2-2h0a2,2,0,0,1,2,2h0a2,2,0,0,1-2,2h0A2,2,0,0,1,534.36,499.3Zm0-10.05a2,2,0,0,1,2-2h0a2,2,0,0,1,2,2h0a2,2,0,0,1-2,2h0A2,2,0,0,1,534.36,489.25Zm0-10.05a2,2,0,0,1,2-2h0a2,2,0,0,1,2,2h0a2,2,0,0,1-2,2h0A2,2,0,0,1,534.36,479.2Zm0-10.05a2,2,0,0,1,2-2h0a2,2,0,0,1,2,2h0a2,2,0,0,1-2,2h0A2,2,0,0,1,534.36,469.15Zm0-10a2,2,0,0,1,2-2h0a2,2,0,0,1,2,2h0a2,2,0,0,1-2,2h0A2,2,0,0,1,534.36,459.11Zm0-10.05a2,2,0,0,1,2-2h0a2,2,0,0,1,2,2h0a2,2,0,0,1-2,2h0A2,2,0,0,1,534.36,449.06Zm0-10.05a2,2,0,0,1,2-2h0a2,2,0,0,1,2,2h0a2,2,0,0,1-2,2h0A2,2,0,0,1,534.36,439Zm0-10.05a2,2,0,0,1,2-2h0a2,2,0,0,1,2,2h0a2,2,0,0,1-2,2h0A2,2,0,0,1,534.36,429Zm0-10a2,2,0,0,1,2-2h0a2,2,0,0,1,2,2h0a2,2,0,0,1-2,2h0A2,2,0,0,1,534.36,418.91Zm0-10.05a2,2,0,0,1,2-2h0a2,2,0,0,1,2,2h0a2,2,0,0,1-2,2h0A2,2,0,0,1,534.36,408.86Zm0-10.05a2,2,0,0,1,2-2h0a2,2,0,0,1,2,2h0a2,2,0,0,1-2,2h0A2,2,0,0,1,534.36,398.81Zm0-10a2,2,0,0,1,2-2h0a2,2,0,0,1,2,2h0a2,2,0,0,1-2,2h0A2,2,0,0,1,534.36,388.77Zm0-10a2,2,0,0,1,2-2h0a2,2,0,0,1,2,2h0a2,2,0,0,1-2,2h0A2,2,0,0,1,534.36,378.72Zm0-10.05a2,2,0,0,1,2-2h0a2,2,0,0,1,2,2h0a2,2,0,0,1-2,2h0A2,2,0,0,1,534.36,368.67Zm0-10.05a2,2,0,0,1,2-2h0a2,2,0,0,1,2,2h0a2,2,0,0,1-2,2h0A2,2,0,0,1,534.36,358.62Zm0-10.05a2,2,0,0,1,2-2h0a2,2,0,0,1,2,2h0a2,2,0,0,1-2,2h0A2,2,0,0,1,534.36,348.57Zm0-10.05a2,2,0,0,1,2-2h0a2,2,0,0,1,2,2h0a2,2,0,0,1-2,2h0A2,2,0,0,1,534.36,338.52Zm0-10a2,2,0,0,1,2-2h0a2,2,0,0,1,2,2h0a2,2,0,0,1-2,2h0A2,2,0,0,1,534.36,328.47Zm0-10.05a2,2,0,0,1,2-2h0a2,2,0,0,1,2,2h0a2,2,0,0,1-2,2h0A2,2,0,0,1,534.36,318.42Zm0-10a2,2,0,0,1,2-2h0a2,2,0,0,1,2,2h0a2,2,0,0,1-2,2h0A2,2,0,0,1,534.36,308.38Zm0-10.05a2,2,0,0,1,2-2h0a2,2,0,0,1,2,2h0a2,2,0,0,1-2,2h0A2,2,0,0,1,534.36,298.33Zm0-10.05a2,2,0,0,1,2-2h0a2,2,0,0,1,2,2h0a2,2,0,0,1-2,2h0A2,2,0,0,1,534.36,288.28Zm0-10a2,2,0,0,1,2-2h0a2,2,0,0,1,2,2h0a2,2,0,0,1-2,2h0A2,2,0,0,1,534.36,278.23Zm0-10.05a2,2,0,0,1,2-2h0a2,2,0,0,1,2,2h0a2,2,0,0,1-2,2h0A2,2,0,0,1,534.36,268.18Zm2-8.05a2,2,0,0,1-1.75-2.22h0a2,2,0,0,1,2.23-1.75h0a2,2,0,0,1,1.75,2.22h0a2,2,0,0,1-2,1.76h-.23Zm2.19-9.78a2,2,0,0,1-.9-2.68h0a2,2,0,0,1,2.69-.9h0a2,2,0,0,1,.91,2.68h0a2,2,0,0,1-1.81,1.11h0A1.94,1.94,0,0,1,538.53,250.35Zm5.35-8.47a2,2,0,0,1,0-2.83h0a2,2,0,0,1,2.84,0h0a2,2,0,0,1,0,2.82h0a2,2,0,0,1-1.39.57h0A2,2,0,0,1,543.88,241.88Zm7.87-6.21a2,2,0,0,1,1-2.66h0a2,2,0,0,1,2.65,1h0a2,2,0,0,1-1,2.65h0a1.93,1.93,0,0,1-.83.19h0A2,2,0,0,1,551.75,235.67Zm9.49-3.24a2,2,0,0,1,1.81-2.17h0a2,2,0,0,1,2.16,1.81h0a2,2,0,0,1-1.81,2.18h-.17A2,2,0,0,1,561.24,232.43Zm20.08-.3a2,2,0,0,1,2-2h0a2,2,0,0,1,2,2h0a2,2,0,0,1-2,2h0A2,2,0,0,1,581.32,232.13Zm-10.05,0a2,2,0,0,1,2-2h0a2,2,0,0,1,2,2h0a2,2,0,0,1-2,2h0A2,2,0,0,1,571.27,232.13Z" transform="translate(-13.23 -38.52)" style="fill:#fff"></path><path d="M536.36,782.69a1.94,1.94,0,0,1-1.4-.59,2,2,0,0,1,0-2.82,2,2,0,0,1,2.82,0,1.42,1.42,0,0,1,.25.3,1.24,1.24,0,0,1,.18.34,1.27,1.27,0,0,1,.11.38,1.92,1.92,0,0,1,0,.78,1.21,1.21,0,0,1-.11.37,1.29,1.29,0,0,1-.18.35,1.42,1.42,0,0,1-.25.3A2,2,0,0,1,536.36,782.69Z" transform="translate(-13.23 -38.52)" style="fill:#fff"></path><path d="M536.37,783.49a5.55,5.55,0,0,1-3.93-1.62l-9-9a2,2,0,0,1,2.83-2.83l9,9a1.56,1.56,0,0,0,2.2,0l9-9a2,2,0,0,1,2.82,2.83l-9,9A5.57,5.57,0,0,1,536.37,783.49Z" transform="translate(-13.23 -38.52)" style="fill:#fff"></path><path d="M481.36,164.68a2,2,0,0,1-1.4-.59,1.48,1.48,0,0,1-.25-.31,1.11,1.11,0,0,1-.18-.34c0-.12-.09-.25-.13-.37a2,2,0,0,1,0-.79c0-.12.08-.25.13-.37a1.29,1.29,0,0,1,.18-.35,1.42,1.42,0,0,1,.25-.3,2,2,0,0,1,1.8-.55,2.29,2.29,0,0,1,.37.12,2.31,2.31,0,0,1,.35.18,1.81,1.81,0,0,1,.3.25,1.42,1.42,0,0,1,.25.3,2.09,2.09,0,0,1,.33,1.11,2,2,0,0,1-.58,1.42,2.48,2.48,0,0,1-.3.25,2.31,2.31,0,0,1-.35.18,2.29,2.29,0,0,1-.37.12A2.58,2.58,0,0,1,481.36,164.68Z" transform="translate(-13.23 -38.52)" style="fill:#fff"></path><path d="M479.36,759.74a2,2,0,0,1,2-2h0a2,2,0,0,1,2,2h0a2,2,0,0,1-2,2h0A2,2,0,0,1,479.36,759.74Zm0-10a2,2,0,0,1,2-2h0a2,2,0,0,1,2,2h0a2,2,0,0,1-2,2h0A2,2,0,0,1,479.36,749.79Zm0-10a2,2,0,0,1,2-2h0a2,2,0,0,1,2,2h0a2,2,0,0,1-2,2h0A2,2,0,0,1,479.36,739.83Zm0-10a2,2,0,0,1,2-2h0a2,2,0,0,1,2,2h0a2,2,0,0,1-2,2h0A2,2,0,0,1,479.36,729.88Zm0-10a2,2,0,0,1,2-2h0a2,2,0,0,1,2,2h0a2,2,0,0,1-2,2h0A2,2,0,0,1,479.36,719.93Zm0-9.95a2,2,0,0,1,2-2h0a2,2,0,0,1,2,2h0a2,2,0,0,1-2,2h0A2,2,0,0,1,479.36,710Zm0-10a2,2,0,0,1,2-2h0a2,2,0,0,1,2,2h0a2,2,0,0,1-2,2h0A2,2,0,0,1,479.36,700Zm0-9.95a2,2,0,0,1,2-2h0a2,2,0,0,1,2,2h0a2,2,0,0,1-2,2h0A2,2,0,0,1,479.36,690.08Zm0-10a2,2,0,0,1,2-2h0a2,2,0,0,1,2,2h0a2,2,0,0,1-2,2h0A2,2,0,0,1,479.36,680.13Zm0-10a2,2,0,0,1,2-2h0a2,2,0,0,1,2,2h0a2,2,0,0,1-2,2h0A2,2,0,0,1,479.36,670.18Zm0-9.95a2,2,0,0,1,2-2h0a2,2,0,0,1,2,2h0a2,2,0,0,1-2,2h0A2,2,0,0,1,479.36,660.23Zm0-10a2,2,0,0,1,2-2h0a2,2,0,0,1,2,2h0a2,2,0,0,1-2,2h0A2,2,0,0,1,479.36,650.27Zm0-9.95a2,2,0,0,1,2-2h0a2,2,0,0,1,2,2h0a2,2,0,0,1-2,2h0A2,2,0,0,1,479.36,640.32Zm0-10a2,2,0,0,1,2-2h0a2,2,0,0,1,2,2h0a2,2,0,0,1-2,2h0A2,2,0,0,1,479.36,630.37Zm0-10a2,2,0,0,1,2-2h0a2,2,0,0,1,2,2h0a2,2,0,0,1-2,2h0A2,2,0,0,1,479.36,620.42Zm0-9.95a2,2,0,0,1,2-2h0a2,2,0,0,1,2,2h0a2,2,0,0,1-2,2h0A2,2,0,0,1,479.36,610.47Zm0-10a2,2,0,0,1,2-2h0a2,2,0,0,1,2,2h0a2,2,0,0,1-2,2h0A2,2,0,0,1,479.36,600.52Zm0-9.95a2,2,0,0,1,2-2h0a2,2,0,0,1,2,2h0a2,2,0,0,1-2,2h0A2,2,0,0,1,479.36,590.57Zm0-10a2,2,0,0,1,2-2h0a2,2,0,0,1,2,2h0a2,2,0,0,1-2,2h0A2,2,0,0,1,479.36,580.62Zm0-10a2,2,0,0,1,2-2h0a2,2,0,0,1,2,2h0a2,2,0,0,1-2,2h0A2,2,0,0,1,479.36,570.67Zm0-9.95a2,2,0,0,1,2-2h0a2,2,0,0,1,2,2h0a2,2,0,0,1-2,2h0A2,2,0,0,1,479.36,560.72Zm0-10a2,2,0,0,1,2-2h0a2,2,0,0,1,2,2h0a2,2,0,0,1-2,2h0A2,2,0,0,1,479.36,550.76Zm0-10a2,2,0,0,1,2-2h0a2,2,0,0,1,2,2h0a2,2,0,0,1-2,2h0A2,2,0,0,1,479.36,540.81Zm0-9.95a2,2,0,0,1,2-2h0a2,2,0,0,1,2,2h0a2,2,0,0,1-2,2h0A2,2,0,0,1,479.36,530.86Zm0-10a2,2,0,0,1,2-2h0a2,2,0,0,1,2,2h0a2,2,0,0,1-2,2h0A2,2,0,0,1,479.36,520.91Zm0-9.95a2,2,0,0,1,2-2h0a2,2,0,0,1,2,2h0a2,2,0,0,1-2,2h0A2,2,0,0,1,479.36,511Zm0-9.95a2,2,0,0,1,2-2h0a2,2,0,0,1,2,2h0a2,2,0,0,1-2,2h0A2,2,0,0,1,479.36,501Zm0-9.95a2,2,0,0,1,2-2h0a2,2,0,0,1,2,2h0a2,2,0,0,1-2,2h0A2,2,0,0,1,479.36,491.06Zm0-9.95a2,2,0,0,1,2-2h0a2,2,0,0,1,2,2h0a2,2,0,0,1-2,2h0A2,2,0,0,1,479.36,481.11Zm0-9.95a2,2,0,0,1,2-2h0a2,2,0,0,1,2,2h0a2,2,0,0,1-2,2h0A2,2,0,0,1,479.36,471.16Zm0-10a2,2,0,0,1,2-2h0a2,2,0,0,1,2,2h0a2,2,0,0,1-2,2h0A2,2,0,0,1,479.36,461.21Zm0-10a2,2,0,0,1,2-2h0a2,2,0,0,1,2,2h0a2,2,0,0,1-2,2h0A2,2,0,0,1,479.36,451.25Zm0-9.95a2,2,0,0,1,2-2h0a2,2,0,0,1,2,2h0a2,2,0,0,1-2,2h0A2,2,0,0,1,479.36,441.3Zm0-9.95a2,2,0,0,1,2-2h0a2,2,0,0,1,2,2h0a2,2,0,0,1-2,2h0A2,2,0,0,1,479.36,431.35Zm0-10a2,2,0,0,1,2-2h0a2,2,0,0,1,2,2h0a2,2,0,0,1-2,2h0A2,2,0,0,1,479.36,421.4Zm0-9.95a2,2,0,0,1,2-2h0a2,2,0,0,1,2,2h0a2,2,0,0,1-2,2h0A2,2,0,0,1,479.36,411.45Zm0-9.95a2,2,0,0,1,2-2h0a2,2,0,0,1,2,2h0a2,2,0,0,1-2,2h0A2,2,0,0,1,479.36,401.5Zm0-9.95a2,2,0,0,1,2-2h0a2,2,0,0,1,2,2h0a2,2,0,0,1-2,2h0A2,2,0,0,1,479.36,391.55Zm0-9.95a2,2,0,0,1,2-2h0a2,2,0,0,1,2,2h0a2,2,0,0,1-2,2h0A2,2,0,0,1,479.36,381.6Zm0-10a2,2,0,0,1,2-2h0a2,2,0,0,1,2,2h0a2,2,0,0,1-2,2h0A2,2,0,0,1,479.36,371.65Zm0-9.95a2,2,0,0,1,2-2h0a2,2,0,0,1,2,2h0a2,2,0,0,1-2,2h0A2,2,0,0,1,479.36,361.7Zm0-10a2,2,0,0,1,2-2h0a2,2,0,0,1,2,2h0a2,2,0,0,1-2,2h0A2,2,0,0,1,479.36,351.74Zm0-9.95a2,2,0,0,1,2-2h0a2,2,0,0,1,2,2h0a2,2,0,0,1-2,2h0A2,2,0,0,1,479.36,341.79Zm0-10a2,2,0,0,1,2-2h0a2,2,0,0,1,2,2h0a2,2,0,0,1-2,2h0A2,2,0,0,1,479.36,331.84Zm0-9.95a2,2,0,0,1,2-2h0a2,2,0,0,1,2,2h0a2,2,0,0,1-2,2h0A2,2,0,0,1,479.36,321.89Zm0-9.95a2,2,0,0,1,2-2h0a2,2,0,0,1,2,2h0a2,2,0,0,1-2,2h0A2,2,0,0,1,479.36,311.94Zm0-9.95a2,2,0,0,1,2-2h0a2,2,0,0,1,2,2h0a2,2,0,0,1-2,2h0A2,2,0,0,1,479.36,302Zm0-9.95a2,2,0,0,1,2-2h0a2,2,0,0,1,2,2h0a2,2,0,0,1-2,2h0A2,2,0,0,1,479.36,292Zm0-10a2,2,0,0,1,2-2h0a2,2,0,0,1,2,2h0a2,2,0,0,1-2,2h0A2,2,0,0,1,479.36,282.09Zm0-9.95a2,2,0,0,1,2-2h0a2,2,0,0,1,2,2h0a2,2,0,0,1-2,2h0A2,2,0,0,1,479.36,272.14Zm0-10a2,2,0,0,1,2-2h0a2,2,0,0,1,2,2h0a2,2,0,0,1-2,2h0A2,2,0,0,1,479.36,262.18Zm0-10a2,2,0,0,1,2-2h0a2,2,0,0,1,2,2h0a2,2,0,0,1-2,2h0A2,2,0,0,1,479.36,252.23Zm0-9.95a2,2,0,0,1,2-2h0a2,2,0,0,1,2,2h0a2,2,0,0,1-2,2h0A2,2,0,0,1,479.36,242.28Zm0-9.95a2,2,0,0,1,2-2h0a2,2,0,0,1,2,2h0a2,2,0,0,1-2,2h0A2,2,0,0,1,479.36,232.33Zm0-10a2,2,0,0,1,2-2h0a2,2,0,0,1,2,2h0a2,2,0,0,1-2,2h0A2,2,0,0,1,479.36,222.38Zm0-9.95a2,2,0,0,1,2-2h0a2,2,0,0,1,2,2h0a2,2,0,0,1-2,2h0A2,2,0,0,1,479.36,212.43Zm0-10a2,2,0,0,1,2-2h0a2,2,0,0,1,2,2h0a2,2,0,0,1-2,2h0A2,2,0,0,1,479.36,202.48Zm0-9.95a2,2,0,0,1,2-2h0a2,2,0,0,1,2,2h0a2,2,0,0,1-2,2h0A2,2,0,0,1,479.36,192.53Zm0-9.95a2,2,0,0,1,2-2h0a2,2,0,0,1,2,2h0a2,2,0,0,1-2,2h0A2,2,0,0,1,479.36,182.58Zm0-10a2,2,0,0,1,2-2h0a2,2,0,0,1,2,2h0a2,2,0,0,1-2,2h0A2,2,0,0,1,479.36,172.63Z" transform="translate(-13.23 -38.52)" style="fill:#fff"></path><path d="M481.36,771.69a1.94,1.94,0,0,1-1.4-.59,1.42,1.42,0,0,1-.25-.3,1.29,1.29,0,0,1-.18-.35c0-.12-.09-.24-.13-.37a2.58,2.58,0,0,1,0-.39,2,2,0,0,1,.6-1.41,2,2,0,0,1,2.82,0,2,2,0,0,1,.58,1.41,1.29,1.29,0,0,1,0,.39,1.21,1.21,0,0,1-.11.37,1.29,1.29,0,0,1-.18.35,1.42,1.42,0,0,1-.25.3A2,2,0,0,1,481.36,771.69Z" transform="translate(-13.23 -38.52)" style="fill:#fff"></path><path d="M481.37,772.49a5.55,5.55,0,0,1-3.93-1.62l-9-9a2,2,0,1,1,2.83-2.83l9,9a1.56,1.56,0,0,0,2.2,0l9-9a2,2,0,1,1,2.82,2.83l-8.95,9A5.57,5.57,0,0,1,481.37,772.49Z" transform="translate(-13.23 -38.52)" style="fill:#fff"></path><circle cx="412.53" cy="173.16" r="14.75" style="fill:#fff"></circle><path d="M426.9,213.68a2,2,0,0,1-2-2,1.29,1.29,0,0,1,0-.39,1.73,1.73,0,0,1,.11-.37,1.7,1.7,0,0,1,.19-.35,1.32,1.32,0,0,1,.24-.3,2,2,0,0,1,1.8-.55,2.91,2.91,0,0,1,.39.12,2.79,2.79,0,0,1,.34.18,2.26,2.26,0,0,1,.29.25,1.37,1.37,0,0,1,.25.3,2.43,2.43,0,0,1,.2.35c.05.12.07.25.11.37a2.58,2.58,0,0,1,0,.39,2,2,0,0,1-.6,1.42A2,2,0,0,1,426.9,213.68Z" transform="translate(-13.23 -38.52)" style="fill:#fff"></path><path d="M424.9,752.67a2,2,0,0,1,2-2h0a2,2,0,0,1,2,2h0a2,2,0,0,1-2,2h0A2,2,0,0,1,424.9,752.67Zm0-10a2,2,0,0,1,2-2h0a2,2,0,0,1,2,2h0a2,2,0,0,1-2,2h0A2,2,0,0,1,424.9,742.65Zm0-10a2,2,0,0,1,2-2h0a2,2,0,0,1,2,2h0a2,2,0,0,1-2,2h0A2,2,0,0,1,424.9,732.63Zm0-10a2,2,0,0,1,2-2h0a2,2,0,0,1,2,2h0a2,2,0,0,1-2,2h0A2,2,0,0,1,424.9,722.61Zm0-10a2,2,0,0,1,2-2h0a2,2,0,0,1,2,2h0a2,2,0,0,1-2,2h0A2,2,0,0,1,424.9,712.6Zm0-10a2,2,0,0,1,2-2h0a2,2,0,0,1,2,2h0a2,2,0,0,1-2,2h0A2,2,0,0,1,424.9,702.58Zm0-10a2,2,0,0,1,2-2h0a2,2,0,0,1,2,2h0a2,2,0,0,1-2,2h0A2,2,0,0,1,424.9,692.56Zm0-10a2,2,0,0,1,2-2h0a2,2,0,0,1,2,2h0a2,2,0,0,1-2,2h0A2,2,0,0,1,424.9,682.54Zm0-10a2,2,0,0,1,2-2h0a2,2,0,0,1,2,2h0a2,2,0,0,1-2,2h0A2,2,0,0,1,424.9,672.52Zm0-10a2,2,0,0,1,2-2h0a2,2,0,0,1,2,2h0a2,2,0,0,1-2,2h0A2,2,0,0,1,424.9,662.5Zm0-10a2,2,0,0,1,2-2h0a2,2,0,0,1,2,2h0a2,2,0,0,1-2,2h0A2,2,0,0,1,424.9,652.48Zm0-10a2,2,0,0,1,2-2h0a2,2,0,0,1,2,2h0a2,2,0,0,1-2,2h0A2,2,0,0,1,424.9,642.47Zm0-10a2,2,0,0,1,2-2h0a2,2,0,0,1,2,2h0a2,2,0,0,1-2,2h0A2,2,0,0,1,424.9,632.45Zm0-10a2,2,0,0,1,2-2h0a2,2,0,0,1,2,2h0a2,2,0,0,1-2,2h0A2,2,0,0,1,424.9,622.43Zm0-10a2,2,0,0,1,2-2h0a2,2,0,0,1,2,2h0a2,2,0,0,1-2,2h0A2,2,0,0,1,424.9,612.41Zm0-10a2,2,0,0,1,2-2h0a2,2,0,0,1,2,2h0a2,2,0,0,1-2,2h0A2,2,0,0,1,424.9,602.39Zm0-10a2,2,0,0,1,2-2h0a2,2,0,0,1,2,2h0a2,2,0,0,1-2,2h0A2,2,0,0,1,424.9,592.37Zm0-10a2,2,0,0,1,2-2h0a2,2,0,0,1,2,2h0a2,2,0,0,1-2,2h0A2,2,0,0,1,424.9,582.36Zm0-10a2,2,0,0,1,2-2h0a2,2,0,0,1,2,2h0a2,2,0,0,1-2,2h0A2,2,0,0,1,424.9,572.34Zm0-10a2,2,0,0,1,2-2h0a2,2,0,0,1,2,2h0a2,2,0,0,1-2,2h0A2,2,0,0,1,424.9,562.32Zm0-10a2,2,0,0,1,2-2h0a2,2,0,0,1,2,2h0a2,2,0,0,1-2,2h0A2,2,0,0,1,424.9,552.3Zm0-10a2,2,0,0,1,2-2h0a2,2,0,0,1,2,2h0a2,2,0,0,1-2,2h0A2,2,0,0,1,424.9,542.28Zm0-10a2,2,0,0,1,2-2h0a2,2,0,0,1,2,2h0a2,2,0,0,1-2,2h0A2,2,0,0,1,424.9,532.27Zm0-10a2,2,0,0,1,2-2h0a2,2,0,0,1,2,2h0a2,2,0,0,1-2,2h0A2,2,0,0,1,424.9,522.25Zm0-10a2,2,0,0,1,2-2h0a2,2,0,0,1,2,2h0a2,2,0,0,1-2,2h0A2,2,0,0,1,424.9,512.23Zm0-10a2,2,0,0,1,2-2h0a2,2,0,0,1,2,2h0a2,2,0,0,1-2,2h0A2,2,0,0,1,424.9,502.21Zm0-10a2,2,0,0,1,2-2h0a2,2,0,0,1,2,2h0a2,2,0,0,1-2,2h0A2,2,0,0,1,424.9,492.19Zm0-10a2,2,0,0,1,2-2h0a2,2,0,0,1,2,2h0a2,2,0,0,1-2,2h0A2,2,0,0,1,424.9,482.17Zm0-10a2,2,0,0,1,2-2h0a2,2,0,0,1,2,2h0a2,2,0,0,1-2,2h0A2,2,0,0,1,424.9,472.15Zm0-10a2,2,0,0,1,2-2h0a2,2,0,0,1,2,2h0a2,2,0,0,1-2,2h0A2,2,0,0,1,424.9,462.14Zm0-10a2,2,0,0,1,2-2h0a2,2,0,0,1,2,2h0a2,2,0,0,1-2,2h0A2,2,0,0,1,424.9,452.12Zm0-10a2,2,0,0,1,2-2h0a2,2,0,0,1,2,2h0a2,2,0,0,1-2,2h0A2,2,0,0,1,424.9,442.1Zm0-10a2,2,0,0,1,2-2h0a2,2,0,0,1,2,2h0a2,2,0,0,1-2,2h0A2,2,0,0,1,424.9,432.08Zm0-10a2,2,0,0,1,2-2h0a2,2,0,0,1,2,2h0a2,2,0,0,1-2,2h0A2,2,0,0,1,424.9,422.06Zm0-10a2,2,0,0,1,2-2h0a2,2,0,0,1,2,2h0a2,2,0,0,1-2,2h0A2,2,0,0,1,424.9,412Zm0-10a2,2,0,0,1,2-2h0a2,2,0,0,1,2,2h0a2,2,0,0,1-2,2h0A2,2,0,0,1,424.9,402Zm0-10a2,2,0,0,1,2-2h0a2,2,0,0,1,2,2h0a2,2,0,0,1-2,2h0A2,2,0,0,1,424.9,392Zm0-10a2,2,0,0,1,2-2h0a2,2,0,0,1,2,2h0a2,2,0,0,1-2,2h0A2,2,0,0,1,424.9,382Zm0-10a2,2,0,0,1,2-2h0a2,2,0,0,1,2,2h0a2,2,0,0,1-2,2h0A2,2,0,0,1,424.9,372Zm0-10a2,2,0,0,1,2-2h0a2,2,0,0,1,2,2h0a2,2,0,0,1-2,2h0A2,2,0,0,1,424.9,362Zm0-10a2,2,0,0,1,2-2h0a2,2,0,0,1,2,2h0a2,2,0,0,1-2,2h0A2,2,0,0,1,424.9,351.93Zm0-10a2,2,0,0,1,2-2h0a2,2,0,0,1,2,2h0a2,2,0,0,1-2,2h0A2,2,0,0,1,424.9,341.91Zm0-10a2,2,0,0,1,2-2h0a2,2,0,0,1,2,2h0a2,2,0,0,1-2,2h0A2,2,0,0,1,424.9,331.9Zm0-10a2,2,0,0,1,2-2h0a2,2,0,0,1,2,2h0a2,2,0,0,1-2,2h0A2,2,0,0,1,424.9,321.88Zm0-10a2,2,0,0,1,2-2h0a2,2,0,0,1,2,2h0a2,2,0,0,1-2,2h0A2,2,0,0,1,424.9,311.86Zm0-10a2,2,0,0,1,2-2h0a2,2,0,0,1,2,2h0a2,2,0,0,1-2,2h0A2,2,0,0,1,424.9,301.84Zm0-10a2,2,0,0,1,2-2h0a2,2,0,0,1,2,2h0a2,2,0,0,1-2,2h0A2,2,0,0,1,424.9,291.82Zm0-10a2,2,0,0,1,2-2h0a2,2,0,0,1,2,2h0a2,2,0,0,1-2,2h0A2,2,0,0,1,424.9,281.8Zm0-10a2,2,0,0,1,2-2h0a2,2,0,0,1,2,2h0a2,2,0,0,1-2,2h0A2,2,0,0,1,424.9,271.78Zm0-10a2,2,0,0,1,2-2h0a2,2,0,0,1,2,2h0a2,2,0,0,1-2,2h0A2,2,0,0,1,424.9,261.77Zm0-10a2,2,0,0,1,2-2h0a2,2,0,0,1,2,2h0a2,2,0,0,1-2,2h0A2,2,0,0,1,424.9,251.75Zm0-10a2,2,0,0,1,2-2h0a2,2,0,0,1,2,2h0a2,2,0,0,1-2,2h0A2,2,0,0,1,424.9,241.73Zm0-10a2,2,0,0,1,2-2h0a2,2,0,0,1,2,2h0a2,2,0,0,1-2,2h0A2,2,0,0,1,424.9,231.71Zm0-10a2,2,0,0,1,2-2h0a2,2,0,0,1,2,2h0a2,2,0,0,1-2,2h0A2,2,0,0,1,424.9,221.69Z" transform="translate(-13.23 -38.52)" style="fill:#fff"></path><path d="M426.9,764.69a2,2,0,0,1-2-2,2,2,0,0,1,.59-1.42,2.08,2.08,0,0,1,2.83,0,2.26,2.26,0,0,1,.23.31,2.33,2.33,0,0,1,.2.34c.05.12.07.25.11.38a2.58,2.58,0,0,1,0,.39,2,2,0,0,1-.58,1.41A2,2,0,0,1,426.9,764.69Z" transform="translate(-13.23 -38.52)" style="fill:#fff"></path><path d="M426.9,765.49a5.53,5.53,0,0,1-3.93-1.62l-9-9a2,2,0,1,1,2.83-2.83l9,9a1.55,1.55,0,0,0,2.19,0l9-9a2,2,0,1,1,2.83,2.83l-9,9A5.53,5.53,0,0,1,426.9,765.49Z" transform="translate(-13.23 -38.52)" style="fill:#fff"></path><circle cx="468.14" cy="115.16" r="14.75" style="fill:#fff"></circle><circle cx="414.43" cy="1053.71" r="56.81" style="fill:#fff"></circle><circle cx="414.43" cy="1053.71" r="26.62"></circle><path d="M49.15,807.15l17.26-59.38H55.61v7.91H46.94V738.52h29.3v9.83l-16.67,58.8Z" transform="translate(-13.23 -38.52)" style="fill:#fff"></path><path d="M80.39,756.45c0-1.87.06-3.46.19-4.78a15.43,15.43,0,0,1,.68-3.42,16.94,16.94,0,0,1,1.1-2.6,17.6,17.6,0,0,1,1.6-2.41,13.33,13.33,0,0,1,4.82-3.91,14.81,14.81,0,0,1,12.53,0,13.42,13.42,0,0,1,4.82,3.91,23,23,0,0,1,1.64,2.41,13.79,13.79,0,0,1,1.15,2.6,14.5,14.5,0,0,1,.63,3.42c.1,1.32.14,2.91.14,4.78,0,2,0,3.79-.09,5.2a16.23,16.23,0,0,1-.58,3.76,8.78,8.78,0,0,1-1.49,2.94,18.22,18.22,0,0,1-2.75,2.75,14.72,14.72,0,0,1,2.75,2.7A9.16,9.16,0,0,1,109,777a21.35,21.35,0,0,1,.58,4.48q.09,2.65.09,6.51c0,2.12,0,3.87-.14,5.25a33.45,33.45,0,0,1-.43,3.62,10.21,10.21,0,0,1-.82,2.6,22.24,22.24,0,0,1-1.3,2.22,14.52,14.52,0,0,1-23.91,0,19,19,0,0,1-1.3-2.22,9.48,9.48,0,0,1-.82-2.6,30.93,30.93,0,0,1-.44-3.62c-.09-1.38-.14-3.13-.14-5.25q0-3.86.09-6.51a21.35,21.35,0,0,1,.58-4.48,9,9,0,0,1,1.5-3.18,14.64,14.64,0,0,1,2.74-2.7,18.11,18.11,0,0,1-2.74-2.75,8.62,8.62,0,0,1-1.5-2.94,16.23,16.23,0,0,1-.58-3.76C80.42,760.24,80.39,758.5,80.39,756.45Zm19.47-3.86a4.58,4.58,0,0,0-1.44-3.42,4.77,4.77,0,0,0-6.75,0,4.55,4.55,0,0,0-1.45,3.42v10A4.55,4.55,0,0,0,91.67,766a4.77,4.77,0,0,0,6.75,0,4.58,4.58,0,0,0,1.44-3.42Zm0,27a4.58,4.58,0,0,0-1.44-3.42,4.77,4.77,0,0,0-6.75,0,4.55,4.55,0,0,0-1.45,3.42v13.5a4.55,4.55,0,0,0,1.45,3.42,4.77,4.77,0,0,0,6.75,0,4.58,4.58,0,0,0,1.44-3.42Z" transform="translate(-13.23 -38.52)" style="fill:#fff"></path><path d="M116.38,744.56c0-4.33,2.22-6.73,6.36-6.73s6.36,2.4,6.36,6.73v13.81c0,4.32-2.22,6.72-6.36,6.72s-6.36-2.4-6.36-6.72Zm4.2,14.11c0,1.86.78,2.64,2.16,2.64s2.16-.78,2.16-2.64V744.26c0-1.86-.84-2.65-2.16-2.65s-2.16.79-2.16,2.65Zm18.73-20.54h3.91l-16.58,42h-3.9Zm-2.1,21.8c0-4.33,2.22-6.73,6.37-6.73s6.36,2.4,6.36,6.73v13.81c0,4.32-2.22,6.72-6.36,6.72s-6.37-2.4-6.37-6.72Zm4.2,14.11c0,1.86.78,2.64,2.17,2.64s2.16-.78,2.16-2.64V759.63c0-1.86-.84-2.64-2.16-2.64s-2.17.78-2.17,2.64Z" transform="translate(-13.23 -38.52)" style="fill:#fff"></path><path d="M741.1,807.15V796.94H721.53v-9.26l14.17-49.16h10.41l-14.75,49.16h9.74V768.11h9.83v19.57h4.72v9.26h-4.72v10.21Z" transform="translate(-13.23 -38.52)" style="fill:#fff"></path><path d="M757.39,807.15V797.9l17.74-33.45a12.26,12.26,0,0,0,1.54-4.39,46.66,46.66,0,0,0,.19-4.67c0-.84,0-1.72-.05-2.66a6.18,6.18,0,0,0-.53-2.45,4.12,4.12,0,0,0-4.24-2.51,4.43,4.43,0,0,0-4.82,4.92v5.59h-9.83v-5.4a14.35,14.35,0,0,1,1.16-5.78,14.92,14.92,0,0,1,3.18-4.73,14.44,14.44,0,0,1,4.62-3.23,14.09,14.09,0,0,1,5.79-1.2,14.42,14.42,0,0,1,6.6,1.39,13.35,13.35,0,0,1,4.58,3.81,16.43,16.43,0,0,1,2.55,5.5,25.22,25.22,0,0,1,.82,6.55q0,2.5-.09,4.2a25.25,25.25,0,0,1-.39,3.23,14,14,0,0,1-1,3.08c-.45,1-1.06,2.28-1.83,3.76L769,797.32h17.73v9.83Z" transform="translate(-13.23 -38.52)" style="fill:#fff"></path><path d="M793.38,744.56c0-4.33,2.22-6.73,6.36-6.73s6.36,2.4,6.36,6.73v13.81c0,4.32-2.22,6.72-6.36,6.72s-6.36-2.4-6.36-6.72Zm4.2,14.11c0,1.86.78,2.64,2.16,2.64s2.16-.78,2.16-2.64V744.26c0-1.86-.84-2.65-2.16-2.65s-2.16.79-2.16,2.65Zm18.73-20.54h3.91l-16.58,42h-3.9Zm-2.1,21.8c0-4.33,2.22-6.73,6.37-6.73s6.36,2.4,6.36,6.73v13.81c0,4.32-2.22,6.72-6.36,6.72s-6.37-2.4-6.37-6.72Zm4.2,14.11c0,1.86.78,2.64,2.17,2.64s2.16-.78,2.16-2.64V759.63c0-1.86-.84-2.64-2.16-2.64s-2.17.78-2.17,2.64Z" transform="translate(-13.23 -38.52)" style="fill:#fff"></path><path d="M723.94,1218.45c0-1.87.06-3.46.19-4.78a16.06,16.06,0,0,1,.67-3.42,16.93,16.93,0,0,1,1.11-2.6,18.44,18.44,0,0,1,1.59-2.41,13.5,13.5,0,0,1,4.82-3.91,14.84,14.84,0,0,1,12.54,0,13.5,13.5,0,0,1,4.82,3.91,24.6,24.6,0,0,1,1.64,2.41,13.52,13.52,0,0,1,1.78,6c.09,1.32.14,2.91.14,4.78,0,2,0,3.79-.09,5.2a16.23,16.23,0,0,1-.58,3.76,8.71,8.71,0,0,1-1.5,2.94,18.58,18.58,0,0,1-2.74,2.75,14.64,14.64,0,0,1,2.74,2.7,9,9,0,0,1,1.5,3.18,21.35,21.35,0,0,1,.58,4.48q.09,2.65.09,6.51c0,2.12,0,3.87-.14,5.25a33.45,33.45,0,0,1-.43,3.62,10.21,10.21,0,0,1-.82,2.6,20.63,20.63,0,0,1-1.31,2.22,13.9,13.9,0,0,1-4.62,4.29,16,16,0,0,1-14.66,0,13.9,13.9,0,0,1-4.62-4.29,20.63,20.63,0,0,1-1.31-2.22,10.21,10.21,0,0,1-.82-2.6,33.45,33.45,0,0,1-.43-3.62c-.09-1.38-.14-3.13-.14-5.25q0-3.85.09-6.51a21.35,21.35,0,0,1,.58-4.48,9,9,0,0,1,1.5-3.18,14.64,14.64,0,0,1,2.74-2.7,18.58,18.58,0,0,1-2.74-2.75,8.71,8.71,0,0,1-1.5-2.94,16.23,16.23,0,0,1-.58-3.76C724,1222.24,723.94,1220.5,723.94,1218.45Zm19.47-3.86a4.55,4.55,0,0,0-1.45-3.42,4.76,4.76,0,0,0-6.74,0,4.55,4.55,0,0,0-1.45,3.42v10a4.57,4.57,0,0,0,1.45,3.42,4.76,4.76,0,0,0,6.74,0,4.57,4.57,0,0,0,1.45-3.42Zm0,27a4.55,4.55,0,0,0-1.45-3.42,4.76,4.76,0,0,0-6.74,0,4.55,4.55,0,0,0-1.45,3.42v13.5a4.55,4.55,0,0,0,1.45,3.42,4.76,4.76,0,0,0,6.74,0,4.55,4.55,0,0,0,1.45-3.42Z" transform="translate(-13.23 -38.52)" style="fill:#fff"></path><path d="M761,1269.15l11.18-28.82-.19-.19a4,4,0,0,1-1.5.62,11.85,11.85,0,0,1-2.65.24,10,10,0,0,1-8.29-4.43,8.1,8.1,0,0,1-1.06-2.07,13.26,13.26,0,0,1-.58-2.85,36.57,36.57,0,0,1-.39-4.38q-.09-2.65-.09-6.7,0-3.37.09-5.55a28.45,28.45,0,0,1,.39-3.71,10.13,10.13,0,0,1,.63-2.5,16.4,16.4,0,0,1,1.11-2.22,13.3,13.3,0,0,1,5.15-4.92,15.12,15.12,0,0,1,7.28-1.73,14.51,14.51,0,0,1,7.23,1.78,14,14,0,0,1,5.11,4.87,23.91,23.91,0,0,1,1.16,2.22,11.36,11.36,0,0,1,.77,2.5c.13,1,.22,2.27.29,3.71s.09,3.3.09,5.55,0,3.87-.09,5.25-.16,2.56-.29,3.52-.4,1.94-.63,2.75-.5,1.65-.82,2.55L772,1269.15Zm6.26-41.74a4.64,4.64,0,0,0,1.45,3.57,4.89,4.89,0,0,0,6.75,0,4.66,4.66,0,0,0,1.44-3.57v-12.72a4.66,4.66,0,0,0-1.44-3.57,4.89,4.89,0,0,0-6.75,0,4.64,4.64,0,0,0-1.45,3.57Z" transform="translate(-13.23 -38.52)" style="fill:#fff"></path><path d="M793.38,1206.56c0-4.33,2.22-6.73,6.36-6.73s6.36,2.4,6.36,6.73v13.81c0,4.32-2.22,6.72-6.36,6.72s-6.36-2.4-6.36-6.72Zm4.2,14.11c0,1.86.78,2.64,2.16,2.64s2.16-.78,2.16-2.64v-14.41c0-1.86-.84-2.65-2.16-2.65s-2.16.79-2.16,2.65Zm18.73-20.54h3.91l-16.58,42h-3.9Zm-2.1,21.8c0-4.33,2.22-6.73,6.37-6.73s6.36,2.4,6.36,6.73v13.81c0,4.32-2.22,6.72-6.36,6.72s-6.37-2.4-6.37-6.72Zm4.2,14.11c0,1.86.78,2.64,2.17,2.64s2.16-.78,2.16-2.64v-14.41c0-1.86-.84-2.64-2.16-2.64s-2.17.78-2.17,2.64Z" transform="translate(-13.23 -38.52)" style="fill:#fff"></path><path d="M144.45,806.69a2,2,0,0,1-1.41-.59l-9-9a1.57,1.57,0,0,0-2.2,0l-9,9a2,2,0,1,1-2.83-2.82l9-9a5.55,5.55,0,0,1,7.85,0l9,9a2,2,0,0,1-1.41,3.41Z" transform="translate(-13.23 -38.52)" style="fill:#fff"></path><path d="M824.45,806.69a2,2,0,0,1-1.41-.59l-9-9a1.57,1.57,0,0,0-2.2,0l-9,9a2,2,0,1,1-2.83-2.82l9-9a5.55,5.55,0,0,1,7.85,0l9,9a2,2,0,0,1-1.41,3.41Z" transform="translate(-13.23 -38.52)" style="fill:#fff"></path><path d="M809,1269.69a5.51,5.51,0,0,1-3.93-1.63l-9-9a2,2,0,0,1,2.83-2.82l9,9a1.59,1.59,0,0,0,2.2,0l9-9a2,2,0,0,1,2.82,2.82l-9,9A5.49,5.49,0,0,1,809,1269.69Z" transform="translate(-13.23 -38.52)" style="fill:#fff"></path><rect x="1" y="1267.11" width="331.64" height="99.49" rx="49.74"></rect><path d="M296.12,1406.11H64a50.75,50.75,0,0,1,0-101.49H296.12a50.75,50.75,0,1,1,0,101.49ZM64,1306.62a48.75,48.75,0,0,0,0,97.49H296.12a48.75,48.75,0,1,0,0-97.49Z" transform="translate(-13.23 -38.52)" style="fill:#fff"></path><path d="M48.86,1367.52v-20.31h4.68c3.43,0,5.14,2,5.14,6a7.48,7.48,0,0,1-.56,3,4.29,4.29,0,0,1-1.95,2l3.14,9.27H56.23l-2.72-8.67H51.77v8.67ZM51.77,1350v6.33h1.66a3,3,0,0,0,1.23-.21,1.72,1.72,0,0,0,.71-.62,2.63,2.63,0,0,0,.31-1,10.25,10.25,0,0,0,0-2.71,2.57,2.57,0,0,0-.34-1,2.28,2.28,0,0,0-2.05-.8Z" transform="translate(-13.23 -38.52)" style="fill:#fff"></path><path d="M61,1367.52v-20.31h8.67V1350H63.93v6h5v2.74h-5v6h5.76v2.91Z" transform="translate(-13.23 -38.52)" style="fill:#fff"></path><path d="M70.26,1367.52l4.54-20.31h2.43l4.53,20.31H78.85l-.85-4.36H74l-.86,4.36Zm7.19-7.1L76,1353.06H76l-1.43,7.36Z" transform="translate(-13.23 -38.52)" style="fill:#fff"></path><path d="M83.19,1367.52v-20.31H87.5a5,5,0,0,1,3.81,1.37,5.43,5.43,0,0,1,1.3,3.88v9.5a5.69,5.69,0,0,1-1.39,4.21,5.47,5.47,0,0,1-4,1.35ZM86.1,1350v14.83h1.34a2.15,2.15,0,0,0,1.74-.61,3,3,0,0,0,.51-1.93v-9.78a3.12,3.12,0,0,0-.48-1.86,2.08,2.08,0,0,0-1.77-.65Z" transform="translate(-13.23 -38.52)" style="fill:#fff"></path><path d="M95.34,1367.52v-20.31H104V1350H98.26v6h5v2.74h-5v6H104v2.91Z" transform="translate(-13.23 -38.52)" style="fill:#fff"></path><path d="M105.9,1367.52v-20.31h4.68c3.43,0,5.14,2,5.14,6a7.48,7.48,0,0,1-.56,3,4.29,4.29,0,0,1-2,2l3.13,9.27h-3.08l-2.71-8.67h-1.74v8.67Zm2.91-17.57v6.33h1.66a2.94,2.94,0,0,0,1.22-.21,1.68,1.68,0,0,0,.72-.62,2.83,2.83,0,0,0,.31-1,10.25,10.25,0,0,0,0-2.71,2.74,2.74,0,0,0-.34-1,2.3,2.3,0,0,0-2.06-.8Z" transform="translate(-13.23 -38.52)" style="fill:#fff"></path><path d="M127.47,1353.06h-2.91v-.66a3.07,3.07,0,0,0-.47-1.73,1.74,1.74,0,0,0-1.58-.72,1.86,1.86,0,0,0-1,.22,2,2,0,0,0-.6.58,2.22,2.22,0,0,0-.31.84,5.18,5.18,0,0,0-.09,1,9.41,9.41,0,0,0,0,1,1.79,1.79,0,0,0,.22.71,1.62,1.62,0,0,0,.5.55,4.28,4.28,0,0,0,.89.45l2.23.89a5.16,5.16,0,0,1,1.57.87,3.69,3.69,0,0,1,.94,1.15,5.57,5.57,0,0,1,.43,1.56,16.6,16.6,0,0,1,.11,2,10.47,10.47,0,0,1-.25,2.38,4.93,4.93,0,0,1-.83,1.87,4.18,4.18,0,0,1-1.57,1.26,5.63,5.63,0,0,1-2.37.45,5.15,5.15,0,0,1-2-.37,4.68,4.68,0,0,1-1.57-1,5.24,5.24,0,0,1-1-1.53,4.74,4.74,0,0,1-.38-1.9v-1.08h2.91v.91a2.34,2.34,0,0,0,.47,1.44,1.82,1.82,0,0,0,1.58.64,2.61,2.61,0,0,0,1.16-.21,1.57,1.57,0,0,0,.64-.61,2.35,2.35,0,0,0,.27-1c0-.37,0-.79,0-1.24s0-1,0-1.31a2.35,2.35,0,0,0-.23-.83,1.62,1.62,0,0,0-.53-.51,5.87,5.87,0,0,0-.87-.43l-2.08-.86a4.59,4.59,0,0,1-2.53-2,7,7,0,0,1-.64-3.18,7.39,7.39,0,0,1,.31-2.17,5.17,5.17,0,0,1,.94-1.77,4.3,4.3,0,0,1,1.53-1.18,5,5,0,0,1,2.21-.44,5,5,0,0,1,2,.39,5.14,5.14,0,0,1,1.55,1.06,4.38,4.38,0,0,1,1.31,3.14Z" transform="translate(-13.23 -38.52)" style="fill:#fff"></path><path d="M129.64,1367.52v-20.31h2.91v8.7h3.6v-8.7h2.91v20.31h-2.91v-9h-3.6v9Z" transform="translate(-13.23 -38.52)" style="fill:#fff"></path><path d="M141.88,1367.52v-20.31h2.91v20.31Z" transform="translate(-13.23 -38.52)" style="fill:#fff"></path><path d="M147.62,1367.52v-20.31H152a6.47,6.47,0,0,1,2.11.31,4.12,4.12,0,0,1,1.66,1.11,4.47,4.47,0,0,1,1,1.87,11.79,11.79,0,0,1,.28,2.9,13.76,13.76,0,0,1-.16,2.31,4.6,4.6,0,0,1-.67,1.77,4.3,4.3,0,0,1-1.59,1.55,5.43,5.43,0,0,1-2.63.56h-1.48v7.93Zm2.91-17.57v6.9h1.39a2.92,2.92,0,0,0,1.38-.26,1.57,1.57,0,0,0,.71-.71,2.65,2.65,0,0,0,.27-1.05c0-.42,0-.89,0-1.4s0-.93,0-1.36a3,3,0,0,0-.25-1.13,1.65,1.65,0,0,0-.69-.74A2.72,2.72,0,0,0,152,1350Z" transform="translate(-13.23 -38.52)" style="fill:#fff"></path><path d="M166.45,1367.52V1350h-3.37v-2.74h9.65V1350h-3.37v17.57Z" transform="translate(-13.23 -38.52)" style="fill:#fff"></path><path d="M174,1367.52v-20.31h4.68c3.42,0,5.14,2,5.14,6a7.48,7.48,0,0,1-.56,3,4.26,4.26,0,0,1-2,2l3.14,9.27h-3.08l-2.71-8.67h-1.74v8.67Zm2.91-17.57v6.33h1.65a3,3,0,0,0,1.23-.21,1.66,1.66,0,0,0,.71-.62,2.63,2.63,0,0,0,.32-1,11.52,11.52,0,0,0,0-2.71,2.74,2.74,0,0,0-.34-1,2.3,2.3,0,0,0-2.06-.8Z" transform="translate(-13.23 -38.52)" style="fill:#fff"></path><path d="M186.16,1367.52v-20.31h8.68V1350h-5.76v6h5v2.74h-5v6h5.76v2.91Z" transform="translate(-13.23 -38.52)" style="fill:#fff"></path><path d="M196.61,1367.52v-20.31h2.79l4.4,12.24h.06v-12.24h2.91v20.31H204l-4.45-12.21h-.06v12.21Z" transform="translate(-13.23 -38.52)" style="fill:#fff"></path><path d="M209.39,1367.52v-20.31h4.31a5,5,0,0,1,3.81,1.37,5.43,5.43,0,0,1,1.3,3.88v9.5a5.69,5.69,0,0,1-1.39,4.21,5.47,5.47,0,0,1-4,1.35ZM212.3,1350v14.83h1.34a2.15,2.15,0,0,0,1.74-.61,3,3,0,0,0,.52-1.93v-9.78a3.12,3.12,0,0,0-.49-1.86,2.08,2.08,0,0,0-1.77-.65Z" transform="translate(-13.23 -38.52)" style="fill:#fff"></path><path d="M231,1353.06h-2.91v-.66a3.15,3.15,0,0,0-.47-1.73A1.74,1.74,0,0,0,226,1350a1.83,1.83,0,0,0-1,.22,2,2,0,0,0-.6.58,2.23,2.23,0,0,0-.32.84,6.17,6.17,0,0,0-.08,1,9.41,9.41,0,0,0,0,1,2,2,0,0,0,.21.71,1.86,1.86,0,0,0,.5.55,4.68,4.68,0,0,0,.9.45l2.23.89a5.28,5.28,0,0,1,1.57.87,3.69,3.69,0,0,1,.94,1.15,5.57,5.57,0,0,1,.43,1.56,16.6,16.6,0,0,1,.11,2,10.47,10.47,0,0,1-.25,2.38,5.09,5.09,0,0,1-.83,1.87,4.26,4.26,0,0,1-1.57,1.26,5.63,5.63,0,0,1-2.37.45,5.15,5.15,0,0,1-2-.37,4.68,4.68,0,0,1-1.57-1,5.06,5.06,0,0,1-1-1.53,4.58,4.58,0,0,1-.39-1.9v-1.08h2.91v.91a2.35,2.35,0,0,0,.48,1.44,1.82,1.82,0,0,0,1.58.64,2.57,2.57,0,0,0,1.15-.21,1.53,1.53,0,0,0,.65-.61,2.35,2.35,0,0,0,.27-1c0-.37,0-.79,0-1.24a11.66,11.66,0,0,0-.06-1.31,2.17,2.17,0,0,0-.22-.83,1.62,1.62,0,0,0-.53-.51,5.87,5.87,0,0,0-.87-.43l-2.09-.86a4.6,4.6,0,0,1-2.52-2,7,7,0,0,1-.64-3.18,7.39,7.39,0,0,1,.31-2.17,5,5,0,0,1,.94-1.77,4.3,4.3,0,0,1,1.53-1.18,5,5,0,0,1,2.21-.44,4.93,4.93,0,0,1,2,.39,5.19,5.19,0,0,1,1.56,1.06,4.42,4.42,0,0,1,1.31,3.14Z" transform="translate(-13.23 -38.52)" style="fill:#fff"></path><path d="M238,1367.52v-2.74l5.25-9.9a3.48,3.48,0,0,0,.45-1.3,13.2,13.2,0,0,0,.06-1.38c0-.25,0-.51,0-.78a2,2,0,0,0-.16-.73,1.3,1.3,0,0,0-.43-.53,1.36,1.36,0,0,0-.82-.21,1.31,1.31,0,0,0-1.43,1.45v1.66H238v-1.6a4.25,4.25,0,0,1,.34-1.71,4.59,4.59,0,0,1,2.31-2.36,4.09,4.09,0,0,1,1.71-.35,4.23,4.23,0,0,1,2,.41,3.89,3.89,0,0,1,1.35,1.13,4.65,4.65,0,0,1,.76,1.62,7.64,7.64,0,0,1,.24,1.94c0,.5,0,.91,0,1.24a7,7,0,0,1-.11,1,4,4,0,0,1-.29.91c-.13.31-.31.68-.54,1.12l-4.28,8.24h5.25v2.91Z" transform="translate(-13.23 -38.52)" style="fill:#fff"></path><path d="M248.65,1351.4a4.38,4.38,0,0,1,.36-1.82,4.11,4.11,0,0,1,2.34-2.24,4.63,4.63,0,0,1,3.28,0,4.14,4.14,0,0,1,1.38.87,4.23,4.23,0,0,1,1,1.37,4.38,4.38,0,0,1,.36,1.82v11.93a4.38,4.38,0,0,1-.36,1.82,4.23,4.23,0,0,1-1,1.37,4.14,4.14,0,0,1-1.38.87,4.63,4.63,0,0,1-3.28,0,4.11,4.11,0,0,1-2.34-2.24,4.38,4.38,0,0,1-.36-1.82Zm2.91,11.93a1.47,1.47,0,0,0,.4,1,1.5,1.5,0,0,0,2.06,0,1.47,1.47,0,0,0,.4-1V1351.4a1.47,1.47,0,0,0-.4-1,1.5,1.5,0,0,0-2.06,0,1.47,1.47,0,0,0-.4,1Z" transform="translate(-13.23 -38.52)" style="fill:#fff"></path><path d="M262.72,1367.52v-17.23l-2.91,2.14v-3.08l2.91-2.14h2.91v20.31Z" transform="translate(-13.23 -38.52)" style="fill:#fff"></path><path d="M270.94,1367.52l3.31-8.53-.06-.06a1.13,1.13,0,0,1-.44.19,3.39,3.39,0,0,1-.79.07,2.79,2.79,0,0,1-1.42-.37,2.93,2.93,0,0,1-1-.94,2.8,2.8,0,0,1-.32-.62,4.24,4.24,0,0,1-.17-.84,12.24,12.24,0,0,1-.11-1.29c0-.53,0-1.19,0-2s0-1.21,0-1.64a9.69,9.69,0,0,1,.11-1.1,3,3,0,0,1,.19-.74,4.06,4.06,0,0,1,.33-.66,4,4,0,0,1,1.52-1.45,4.53,4.53,0,0,1,2.16-.51,4.32,4.32,0,0,1,2.14.52,4.26,4.26,0,0,1,1.51,1.44,7,7,0,0,1,.34.66,3.4,3.4,0,0,1,.23.74c0,.31.07.67.09,1.1s0,1,0,1.64,0,1.15,0,1.56,0,.75-.09,1-.12.57-.18.81-.15.49-.25.76l-3.82,10.21Zm1.85-12.35a1.34,1.34,0,0,0,.43,1,1.4,1.4,0,0,0,1,.4,1.41,1.41,0,0,0,1-.4,1.36,1.36,0,0,0,.42-1v-3.77a1.36,1.36,0,0,0-.42-1.05,1.41,1.41,0,0,0-1-.4,1.4,1.4,0,0,0-1,.4,1.34,1.34,0,0,0-.43,1.05Z" transform="translate(-13.23 -38.52)" style="fill:#fff"></path><path d="M279.67,1367.69l3.76-20.65h2.29L282,1367.69Z" transform="translate(-13.23 -38.52)" style="fill:#fff"></path><path d="M286.83,1367.52v-2.74l5.25-9.9a3.71,3.71,0,0,0,.46-1.3c0-.37,0-.83,0-1.38,0-.25,0-.51,0-.78a1.82,1.82,0,0,0-.16-.73,1.3,1.3,0,0,0-.43-.53,1.36,1.36,0,0,0-.82-.21,1.31,1.31,0,0,0-1.43,1.45v1.66h-2.91v-1.6a4.25,4.25,0,0,1,.34-1.71,4.59,4.59,0,0,1,2.31-2.36,4.12,4.12,0,0,1,1.71-.35,4.21,4.21,0,0,1,2,.41,3.89,3.89,0,0,1,1.35,1.13,4.65,4.65,0,0,1,.76,1.62,7.64,7.64,0,0,1,.24,1.94c0,.5,0,.91,0,1.24a5.75,5.75,0,0,1-.11,1,4.53,4.53,0,0,1-.28.91c-.14.31-.32.68-.55,1.12l-4.28,8.24h5.25v2.91Z" transform="translate(-13.23 -38.52)" style="fill:#fff"></path><path d="M297.44,1351.4a4.38,4.38,0,0,1,.36-1.82,4.23,4.23,0,0,1,1-1.37,4.14,4.14,0,0,1,1.38-.87,4.63,4.63,0,0,1,3.28,0,4,4,0,0,1,1.38.87,4.23,4.23,0,0,1,1,1.37,4.38,4.38,0,0,1,.36,1.82v11.93a4.38,4.38,0,0,1-.36,1.82,4.23,4.23,0,0,1-1,1.37,4,4,0,0,1-1.38.87,4.63,4.63,0,0,1-3.28,0,4.14,4.14,0,0,1-1.38-.87,4.23,4.23,0,0,1-1-1.37,4.38,4.38,0,0,1-.36-1.82Zm2.91,11.93a1.47,1.47,0,0,0,.4,1,1.5,1.5,0,0,0,2.06,0,1.47,1.47,0,0,0,.4-1V1351.4a1.47,1.47,0,0,0-.4-1,1.5,1.5,0,0,0-2.06,0,1.47,1.47,0,0,0-.4,1Z" transform="translate(-13.23 -38.52)" style="fill:#fff"></path><path d="M287.14,929.34a6.7,6.7,0,0,1,.54-2.74,5.84,5.84,0,0,1,1.45-2,5.93,5.93,0,0,1,2-1.15,6.31,6.31,0,0,1,4.42,0,6.44,6.44,0,0,1,2,1.15,6,6,0,0,1,1.41,2,6.54,6.54,0,0,1,.54,2.74v1.29h-3.67v-1.29a2.46,2.46,0,0,0-.74-2,2.75,2.75,0,0,0-3.5,0,2.46,2.46,0,0,0-.73,2v13.53a2.44,2.44,0,0,0,.73,2,2.75,2.75,0,0,0,3.5,0,2.44,2.44,0,0,0,.74-2v-4.82h-2.92v-3.24h6.59v8.06a6.45,6.45,0,0,1-.54,2.77,5.63,5.63,0,0,1-1.41,1.91,6,6,0,0,1-2,1.19,6.31,6.31,0,0,1-4.42,0,5.55,5.55,0,0,1-2-1.19,5.47,5.47,0,0,1-1.45-1.91,6.61,6.61,0,0,1-.54-2.77Z" transform="translate(-13.23 -38.52)" style="fill:#fff"></path><path d="M301.8,948.92V923.29h10.94v3.45h-7.27v7.53h6.33v3.45h-6.33v7.53h7.27v3.67Z" transform="translate(-13.23 -38.52)" style="fill:#fff"></path><path d="M314.07,948.92V923.29h3.53l5.54,15.44h.08V923.29h3.67v25.63h-3.46l-5.61-15.41h-.08v15.41Z" transform="translate(-13.23 -38.52)" style="fill:#fff"></path><path d="M329.16,940.78v-3.67H340v3.67Z" transform="translate(-13.23 -38.52)" style="fill:#fff"></path><path d="M340.6,948.92l5.19-13.43L341,923.29h3.89l2.77,7.59,2.81-7.59h3.89l-4.9,12.2,5.29,13.43h-3.89l-3.2-8.64-3.17,8.64Z" transform="translate(-13.23 -38.52)" style="fill:#fff"></path><path d="M287.14,1238.94a6.68,6.68,0,0,1,.54-2.73,5.84,5.84,0,0,1,1.45-2,5.76,5.76,0,0,1,2-1.15,6.31,6.31,0,0,1,4.42,0,6.25,6.25,0,0,1,2,1.15,6,6,0,0,1,1.41,2,6.52,6.52,0,0,1,.54,2.73v1.3h-3.67v-1.3a2.45,2.45,0,0,0-.74-2,2.75,2.75,0,0,0-3.5,0,2.45,2.45,0,0,0-.73,2v13.54a2.44,2.44,0,0,0,.73,2,2.75,2.75,0,0,0,3.5,0,2.44,2.44,0,0,0,.74-2v-4.82h-2.92v-3.24h6.59v8.06a6.49,6.49,0,0,1-.54,2.77,5.63,5.63,0,0,1-1.41,1.91,6.17,6.17,0,0,1-2,1.19,6.46,6.46,0,0,1-4.42,0,5.7,5.7,0,0,1-2-1.19,5.47,5.47,0,0,1-1.45-1.91,6.64,6.64,0,0,1-.54-2.77Z" transform="translate(-13.23 -38.52)" style="fill:#fff"></path><path d="M301.8,1258.53V1232.9h10.94v3.45h-7.27v7.53h6.33v3.45h-6.33v7.53h7.27v3.67Z" transform="translate(-13.23 -38.52)" style="fill:#fff"></path><path d="M314.07,1258.53V1232.9h3.53l5.54,15.44h.08V1232.9h3.67v25.63h-3.46l-5.61-15.41h-.08v15.41Z" transform="translate(-13.23 -38.52)" style="fill:#fff"></path><path d="M329.16,1250.39v-3.67H340v3.67Z" transform="translate(-13.23 -38.52)" style="fill:#fff"></path><path d="M341.22,1258.53v-3.24l6.91-18.94h-6.55v-3.45h10.54v2.91l-7.05,19.26h7.05v3.46Z" transform="translate(-13.23 -38.52)" style="fill:#fff"></path><path d="M466,948.92V923.29h3.53l4.72,13.57h.07L479,923.29h3.56v25.63h-3.67V933.33h-.07l-3.64,11h-1.83l-3.6-11h-.07v15.59Z" transform="translate(-13.23 -38.52)" style="fill:#fff"></path><path d="M485.23,948.92V923.29h3.67v25.63Z" transform="translate(-13.23 -38.52)" style="fill:#fff"></path><path d="M491.56,948.92V923.29h3.68v22h7.27v3.67Z" transform="translate(-13.23 -38.52)" style="fill:#fff"></path><path d="M504,948.92V923.29h3.68v22h7.27v3.67Z" transform="translate(-13.23 -38.52)" style="fill:#fff"></path><path d="M516.4,948.92V923.29h11v3.45h-7.27v7.53h6.33v3.45h-6.33v7.53h7.27v3.67Z" transform="translate(-13.23 -38.52)" style="fill:#fff"></path><path d="M528.68,948.92V923.29h3.53l5.54,15.44h.07V923.29h3.68v25.63H538l-5.62-15.41h-.07v15.41Z" transform="translate(-13.23 -38.52)" style="fill:#fff"></path><path d="M543.76,948.92V923.29h3.53l5.55,15.44h.07V923.29h3.67v25.63h-3.46l-5.61-15.41h-.08v15.41Z" transform="translate(-13.23 -38.52)" style="fill:#fff"></path><path d="M559.1,948.92V923.29h3.67v25.63Z" transform="translate(-13.23 -38.52)" style="fill:#fff"></path><path d="M563.78,948.92l5.72-25.63h3.06l5.73,25.63h-3.68l-1.08-5.51h-5l-1.08,5.51Zm9.07-9-1.8-9.29H571l-1.8,9.29Z" transform="translate(-13.23 -38.52)" style="fill:#fff"></path><path d="M579.19,948.92V923.29h3.67v22h7.27v3.67Z" transform="translate(-13.23 -38.52)" style="fill:#fff"></path><path d="M603.49,930.67h-3.68v-.83a3.89,3.89,0,0,0-.59-2.18,2.21,2.21,0,0,0-2-.92A2.32,2.32,0,0,0,596,927a2.38,2.38,0,0,0-.76.72,3.06,3.06,0,0,0-.39,1.06,6.32,6.32,0,0,0-.11,1.25c0,.5,0,.92,0,1.26a2.62,2.62,0,0,0,.27.9,2.14,2.14,0,0,0,.63.68,6.61,6.61,0,0,0,1.14.58l2.8,1.11a6.81,6.81,0,0,1,2,1.1,4.73,4.73,0,0,1,1.19,1.46,6.41,6.41,0,0,1,.54,2,18.66,18.66,0,0,1,.15,2.5,13,13,0,0,1-.33,3,6.29,6.29,0,0,1-1,2.36,5.25,5.25,0,0,1-2,1.58,7.05,7.05,0,0,1-3,.58,6.52,6.52,0,0,1-2.48-.47,5.88,5.88,0,0,1-2-1.3,6.26,6.26,0,0,1-1.32-1.92,6,6,0,0,1-.48-2.4v-1.37h3.67v1.16a3,3,0,0,0,.59,1.81,2.32,2.32,0,0,0,2,.81,3.25,3.25,0,0,0,1.46-.27,1.88,1.88,0,0,0,.81-.77,3,3,0,0,0,.34-1.21c0-.46,0-1,0-1.56a15.15,15.15,0,0,0-.07-1.66,2.74,2.74,0,0,0-.29-1,2,2,0,0,0-.66-.65,8.08,8.08,0,0,0-1.1-.54l-2.63-1.08a5.86,5.86,0,0,1-3.18-2.57,8.88,8.88,0,0,1-.81-4,9.38,9.38,0,0,1,.39-2.73,6.33,6.33,0,0,1,1.19-2.24,5.44,5.44,0,0,1,1.93-1.49,6.46,6.46,0,0,1,2.79-.56,6,6,0,0,1,2.5.51,6.41,6.41,0,0,1,2,1.33,5.58,5.58,0,0,1,1.66,4Z" transform="translate(-13.23 -38.52)" style="fill:#fff"></path></svg> 