<?xml version="1.0" encoding="UTF-8"?> <!-- Generator: Adobe Illustrator 16.0.0, SVG Export Plug-In . SVG Version: 6.00 Build 0) --> <svg xmlns="http://www.w3.org/2000/svg" xmlns:xlink="http://www.w3.org/1999/xlink" id="Layer_1" x="0px" y="0px" width="832.662px" height="291.54px" viewBox="0 0 832.662 291.54" xml:space="preserve"> <g> <path fill="#FFFFFF" d="M444.247,58.96c-41.667,0-75.566,33.899-75.566,75.566c0,41.667,33.899,75.565,75.566,75.565 c22.729,0,44.036-10.089,58.459-27.681l-24.194-19.835c-8.456,10.313-20.945,16.23-34.265,16.23 c-18.913,0-35.094-11.917-41.428-28.638h116.993v-15.642C519.812,92.859,485.914,58.96,444.247,58.96 M402.819,118.883 c6.334-16.721,22.515-28.638,41.428-28.638s35.093,11.917,41.427,28.638H402.819z"></path> <path fill="#FFFFFF" d="M832.662,134.526c0-41.667-33.898-75.566-75.565-75.566s-75.565,33.899-75.565,75.566 c0,41.667,33.898,75.565,75.565,75.565c22.729,0,44.037-10.089,58.459-27.681l-24.192-19.835 c-8.458,10.314-20.946,16.23-34.267,16.23c-18.913,0-35.094-11.917-41.428-28.638h116.993V134.526z M715.669,118.883 c6.334-16.721,22.515-28.638,41.428-28.638s35.093,11.917,41.427,28.638H715.669z"></path> <path fill="#FFFFFF" d="M75.565,58.959c-16.527,0-31.829,5.337-44.28,14.373V0H0v134.285h0.002c0,0.08-0.002,0.16-0.002,0.241 c0,41.667,33.898,75.565,75.565,75.565s75.565-33.898,75.565-75.565C151.13,92.858,117.232,58.959,75.565,58.959 M75.565,178.806 c-24.417,0-44.28-19.864-44.28-44.28c0-24.416,19.863-44.281,44.28-44.281c24.416,0,44.28,19.865,44.28,44.281 C119.845,158.941,99.981,178.806,75.565,178.806"></path> <path fill="#FFFFFF" d="M670.702,66.661h-31.285V139.7c0,21.165-17.219,38.384-38.384,38.384s-38.385-17.22-38.385-38.384V66.661 h-31.285V139.7c0,38.416,31.254,69.668,69.67,69.668c13.08,0,25.329-3.626,35.798-9.923c-4.303,20.33-15.452,47.898-44.08,65.405 l16.323,26.689c27.224-16.649,46.519-42.711,55.798-75.368c6.345-22.329,5.97-40.749,5.83-44.214V66.661z"></path> <path fill="#FFFFFF" d="M357.371,66.661h-31.285v6.848c-12.496-9.142-27.888-14.549-44.521-14.549 c-41.667,0-75.566,33.899-75.566,75.566c0,41.667,33.899,75.565,75.566,75.565c15.712,0,30.317-4.823,42.42-13.062 c-3.921,20.514-14.785,49.609-44.566,67.822l16.324,26.689c27.223-16.649,46.518-42.711,55.798-75.368 c6.344-22.329,5.968-40.749,5.83-44.214V66.661z M281.565,178.806c-24.417,0-44.28-19.864-44.28-44.28 c0-24.416,19.863-44.281,44.28-44.281c24.416,0,44.28,19.865,44.28,44.281C325.845,158.941,305.981,178.806,281.565,178.806"></path> <rect x="162.201" y="66.661" fill="#FFFFFF" width="31.285" height="139.098"></rect> <path fill="#FFFFFF" d="M177.843,4.572c-10.234,0-18.53,8.296-18.53,18.53c0,10.234,8.296,18.531,18.53,18.531 s18.53-8.297,18.53-18.531C196.373,12.868,188.077,4.572,177.843,4.572"></path> </g> </svg> 