<?xml version="1.0" encoding="UTF-8"?> <svg xmlns="http://www.w3.org/2000/svg" id="Layer_1" data-name="Layer 1" viewBox="0 0 1119.77 3431.05"><title>Brain_Graphic</title><path d="M792.71-2113.86a102.16,102.16,0,0,0-27.43-3.73,102.05,102.05,0,0,0-83.8,43.72,57.69,57.69,0,0,0-46.67-23.74,57.76,57.76,0,0,0-57.75,57.75,57.67,57.67,0,0,0,5.21,24,78.4,78.4,0,0,0-33.58-7.52A78.73,78.73,0,0,0,470-1944.69a78.52,78.52,0,0,0,3.82,24.22,103.25,103.25,0,0,0-89,102.25A102.9,102.9,0,0,0,413.27-1747a75.87,75.87,0,0,0-25.89,57.14,76.06,76.06,0,0,0,76.07,76.06,75.88,75.88,0,0,0,27.27-5.05,132.55,132.55,0,0,0,122.68,82.33A132.52,132.52,0,0,0,745.53-1659a105.26,105.26,0,0,0,52.85,14.13A105.82,105.82,0,0,0,904.2-1750.72a105.85,105.85,0,0,0-3.86-28.38,68.13,68.13,0,0,0,35.5,9.92,68.41,68.41,0,0,0,64.72-46.3,85.22,85.22,0,0,0,24.94,3.71,85.17,85.17,0,0,0,85.17-85.17,85.2,85.2,0,0,0-56.81-80.33,74.52,74.52,0,0,0-74.5-73.21,74.92,74.92,0,0,0-15.6,1.64,61.32,61.32,0,0,0-59.93-48.39A61.24,61.24,0,0,0,852.25-2069" transform="translate(-236.66 3545.42)" style="fill:none;stroke:#fff;stroke-linecap:round;stroke-linejoin:round;stroke-width:45px"></path><path d="M455-1916.08a83.88,83.88,0,0,1,101.57,61.28,83.81,83.81,0,0,1-19.2,76.4" transform="translate(-236.66 3545.42)" style="fill:none;stroke:#fff;stroke-linecap:round;stroke-miterlimit:10;stroke-width:45px"></path><path d="M658.22-1795.18a132.71,132.71,0,0,1,87.69,124.84" transform="translate(-236.66 3545.42)" style="fill:none;stroke:#fff;stroke-linecap:round;stroke-miterlimit:10;stroke-width:45px"></path><path d="M639.31-1658.49c-6.44-45,21.66-86.16,62.76-92" transform="translate(-236.66 3545.42)" style="fill:none;stroke:#fff;stroke-linecap:round;stroke-miterlimit:10;stroke-width:45px"></path><path d="M538.33-1660a86.76,86.76,0,0,1-39.45,38" transform="translate(-236.66 3545.42)" style="fill:none;stroke:#fff;stroke-linecap:round;stroke-miterlimit:10;stroke-width:45px"></path><path d="M404.84-1740.31a86.64,86.64,0,0,1,47.68-27" transform="translate(-236.66 3545.42)" style="fill:none;stroke:#fff;stroke-linecap:round;stroke-miterlimit:10;stroke-width:45px"></path><path d="M854.24-2066.69a83.89,83.89,0,0,1-7.68,118.38,83.81,83.81,0,0,1-76.67,18.1" transform="translate(-236.66 3545.42)" style="fill:none;stroke:#fff;stroke-linecap:round;stroke-miterlimit:10;stroke-width:50px"></path><path d="M572.16-2021.43c42,17.2,63.35,62.29,47.62,100.71" transform="translate(-236.66 3545.42)" style="fill:none;stroke:#fff;stroke-linecap:round;stroke-miterlimit:10;stroke-width:45px"></path><path d="M783.91-2001.87a61.4,61.4,0,0,1-12.73-36.67" transform="translate(-236.66 3545.42)" style="fill:none;stroke:#fff;stroke-linecap:round;stroke-miterlimit:10;stroke-width:45px"></path><path d="M917.89-1770.52c-43.68-12.43-69.87-54.87-58.51-94.8" transform="translate(-236.66 3545.42)" style="fill:none;stroke:#fff;stroke-linecap:round;stroke-miterlimit:10;stroke-width:45px"></path><path d="M834.2-1789.63a86.66,86.66,0,0,1,54.53,5.33" transform="translate(-236.66 3545.42)" style="fill:none;stroke:#fff;stroke-linecap:round;stroke-miterlimit:10;stroke-width:45px"></path><path d="M781.7-1831.68c-45.07,5.56-85.72-23.34-90.8-64.54" transform="translate(-236.66 3545.42)" style="fill:none;stroke:#fff;stroke-linecap:round;stroke-miterlimit:10;stroke-width:45px"></path><path d="M982.53-1893.3c20.8,20.8,29.3,50.85,19.3,78.32" transform="translate(-236.66 3545.42)" style="fill:none;stroke:#fff;stroke-linecap:round;stroke-miterlimit:10;stroke-width:45px"></path><path d="M918.57-1943.8c24.12-16.83,55.19-19.92,80.49-5.27" transform="translate(-236.66 3545.42)" style="fill:none;stroke:#fff;stroke-linecap:round;stroke-miterlimit:10;stroke-width:45px"></path><path d="M685.72-2000.34a43.55,43.55,0,0,1,20,18.92" transform="translate(-236.66 3545.42)" style="fill:none;stroke:#fff;stroke-linecap:round;stroke-miterlimit:10;stroke-width:45px"></path><path d="M896.23-2223.17c197.78,53.43,347.28,224.46,368.84,433.44l65.46,535a34.17,34.17,0,0,1-33.28,41.92H1160.46l-20.72,205.09a88.8,88.8,0,0,1-88.8,88.8L852.33-929.27v763.63" transform="translate(-236.66 3545.42)" style="fill:none;stroke:#fff;stroke-linecap:round;stroke-miterlimit:10;stroke-width:50px"></path><path d="M767.37-1237.71c-276.73,0-503.6-222.39-505.71-499.11v2c0-252.33,184.91-463.21,427.31-500a84.36,84.36,0,0,0,71.81-83.35v-42.48" transform="translate(-236.66 3545.42)" style="fill:none;stroke:#fff;stroke-linecap:round;stroke-miterlimit:10;stroke-width:50px"></path><path d="M963.39-239l-91.88,91.88a26.56,26.56,0,0,1-37.56,0L742.07-239" transform="translate(-236.66 3545.42)" style="fill:none;stroke:#fff;stroke-linecap:round;stroke-miterlimit:10;stroke-width:50px"></path><path d="M524.51-3420.52" transform="translate(-236.66 3545.42)" style="fill:none;stroke:#fff;stroke-linecap:round;stroke-miterlimit:10;stroke-width:50px"></path><path d="M524.51-3420.52a331.55,331.55,0,0,1,239.32-97.38,331.71,331.71,0,0,1,328.35,338c-1.84,114-61,214-150,272.53-114.75,75.51-182.57,204.82-182.57,342.18v44.46" transform="translate(-236.66 3545.42)" style="fill:none;stroke:#fff;stroke-linecap:round;stroke-miterlimit:10;stroke-width:55px"></path><circle cx="524.12" cy="1153.5" r="47.38" style="fill:#fff"></circle><path d="M793.69-2115.86a83.87,83.87,0,0,1,52.79-106.23,83.55,83.55,0,0,1,51.88-.51" transform="translate(-236.66 3545.42)" style="fill:none;stroke:#fff;stroke-linecap:round;stroke-miterlimit:10;stroke-width:50px"></path></svg> 