<?xml version="1.0" encoding="UTF-8"?> <!-- Generator: Adobe Illustrator 16.0.0, SVG Export Plug-In . SVG Version: 6.00 Build 0) --> <svg xmlns="http://www.w3.org/2000/svg" xmlns:xlink="http://www.w3.org/1999/xlink" id="Hero_Graphic" x="0px" y="0px" width="692.969px" height="985.395px" viewBox="0.531 185.105 692.969 985.395" xml:space="preserve"> <g> <path fill-rule="evenodd" clip-rule="evenodd" fill="none" d="M580.369,641.017c-15.091-13.207-29.808-26.087-45.082-39.456 c6.801-1.395,12.146-2.067,17.238,3.135c6.39,6.528,13.37,12.591,20.68,18.075C579.345,627.377,582.005,632.752,580.369,641.017z"></path> <path fill-rule="evenodd" clip-rule="evenodd" fill="none" d="M578.371,598.312c0,2.618,0,4.62,0,7.41 c-2.716-2.322-4.887-4.178-8.117-6.94C573.56,598.59,575.689,598.467,578.371,598.312z"></path> <path fill="none" d="M346.5,1170.5c-115.313,0-230.625,0-345.969,0c0-267.932,0-535.863,0-803.897c199.532,0,399.094,0,598.813,0 c0,267.897,0,535.897,0,803.897c-83.207,0-166.525,0-249.844,0c2.56-11.366-0.763-21.258-8.06-30.471 c8-2.796,15.647-5.455,23.284-8.145c3.439-1.212,6.286-3.617,5.639-7.249c-0.513-2.881-2.468-5.982-4.695-7.954 c-2.535-2.244-6.08-3.35-9.193-4.938c-5.062-2.582-10.128-5.154-16.331-8.31c7.695-2.626,13.95-4.769,20.21-6.895 c4.7-1.596,10.158-2.459,10.589-8.909c0.43-6.438-4.807-8.057-9.292-10.232c-6.483-3.146-12.944-6.337-20.337-9.961 c8.796-4.032,16.649-7.233,24.055-11.26c2.341-1.273,4.753-4.72,4.816-7.229c0.062-2.501-2.454-5.382-4.459-7.515 c-1.513-1.609-4.001-2.302-6.055-3.401c-4.696-2.514-9.393-5.026-14.966-8.01c7.549-2.468,13.855-4.571,20.189-6.587 c4.015-1.277,7.458-3.022,7.839-7.884c0.375-4.798-2.569-7.146-6.369-9.118c-7.147-3.708-14.192-7.612-22.164-11.911 c8.244-3.679,15.453-6.998,22.749-10.114c4.513-1.927,6.497-5.054,6.681-10.022c0.541-14.651,1.255-29.303,2.334-43.922 c0.207-2.808,1.817-5.992,3.761-8.099c5.188-5.625,10.907-10.763,16.422-16.087c3.631-3.504,7.272-6.996,11.511-11.072 c7.332,33.682,14.456,66.403,21.617,99.298c52.558-11.541,104.355-22.915,156.473-34.359c-0.268-1.826-0.392-3.292-0.704-4.717 c-14.353-65.331-28.735-130.656-43.033-196c-0.482-2.207-0.298-4.605-0.146-6.896c0.462-6.947,0.872-13.908,1.698-20.816 c0.325-2.729,1.003-5.924,2.696-7.899c16.375-19.103,33.062-37.937,49.458-57.023c1.623-1.889,2.774-4.981,2.654-7.442 c-0.948-19.302-2.255-38.586-3.462-57.874c-0.422-6.756-0.875-13.511-1.335-20.592c-26.111,1.742-51.513,3.536-76.932,5.041 c-4.555,0.27-7.562,2.03-10.438,5.441c-10.314,12.226-20.911,24.213-31.417,36.275c-1.126,1.293-2.363,2.488-4.002,4.203 c-4.15-28.117-8.132-55.294-12.21-82.456c-0.492-3.284,0.187-5.244,3.197-7.347c3.428-2.395,6.599-5.794,8.608-9.455 c5.335-9.718,4.793-19.648-1.583-28.767c-6.944-9.929-16.921-12.883-28.571-11.129c-3.712,0.559-7.418,1.154-11.49,1.789 c-0.39-10.273,2.613-18.881,8.137-26.688c6.192-8.752,14.366-15.244,23.805-20.151c3.957-2.057,5.864-5.04,4.664-9.331 c-1.173-4.193-4.478-5.563-8.594-5.055c-23.929,2.954-42.392-7.045-57.697-24.402c-9.335-10.585-16.492-22.547-21.903-35.565 c-1.478-3.556-3.935-6.121-7.943-5.471c-4.139,0.671-6.631,3.215-6.901,7.867c-0.251,4.303-1.005,8.604-1.873,12.837 c-3.689,17.999-9.804,34.932-22.253,48.955c-9.076,10.225-20.463,16.232-33.868,18.729c-5.804,1.081-8.938,5.555-6.483,9.883 c1.383,2.439,4.835,4.485,7.718,5.161c12.413,2.912,23.761,7.66,32.843,16.873c5.089,5.163,8.629,11.23,10.356,18.817 c-5.498,0.891-10.54,1.747-15.596,2.521c-13.587,2.076-23.057,12.087-24.004,25.426c-0.936,13.169,7.293,24.781,20.456,28.319 c2.709,0.729,3.728,1.707,4.139,4.483c2.023,13.666,4.346,27.288,6.509,40.934c5.707,36.006,11.406,72.014,17.02,108.035 c0.26,1.667,0.3,4.08-0.664,5.105c-5.093,5.417-10.54,10.5-15.963,15.795c-8.346-6.439-16.251-12.533-24.15-18.637 c-26.895-20.778-53.735-41.628-80.697-62.318c-19.553-15.005-44.034-11.852-59.358,7.453c-3.936,4.959-7.784,9.987-11.667,14.987 c-3.747,4.825-7.486,9.656-11.11,14.331c-24.174-10.054-43.777-3.529-56.878,18.491c-7.491,12.591-14.979,25.185-22.396,37.819 c-1.346,2.293-2.708,3.596-5.762,3.696c-18.259,0.604-31.925,10.644-38.127,27.854c-8.628,23.943-17.24,47.895-25.638,71.919 c-7.765,22.216,3.026,45.155,25.184,53.094c75.948,27.213,151.955,54.26,227.95,81.343c26.764,9.538,50.33,4.812,70.495-15.695 c8.645-8.79,17.669-17.206,26.542-25.77c0.953-0.92,2.056-1.686,3.876-3.16c-0.476,8.829-0.689,16.493-1.445,24.104 c-0.18,1.813-1.783,4.261-3.395,5.029c-9.907,4.726-19.993,9.079-30.046,13.498c-3.572,1.57-6.361,3.705-6.509,7.987 c-0.147,4.279,2.478,6.601,5.939,8.419c6.603,3.47,13.149,7.047,20.544,11.023c-7.614,2.518-14.305,4.82-21.056,6.929 c-4.031,1.26-6.912,3.513-7.172,7.915c-0.247,4.193,2.359,6.658,5.861,8.479c7.229,3.759,14.402,7.621,22.217,11.769 c-1.967,0.973-3.396,1.722-4.858,2.395c-6.651,3.059-13.515,5.738-19.864,9.327c-2.345,1.325-4.772,4.751-4.816,7.261 c-0.044,2.494,2.333,5.768,4.589,7.398c3.587,2.593,7.966,4.084,11.989,6.083c3.17,1.575,6.308,3.213,10.236,5.219 c-8.785,2.992-16.64,5.274-24.121,8.438c-2.45,1.036-5.062,4.159-5.52,6.703c-0.414,2.298,1.733,5.294,3.297,7.615 c0.823,1.221,2.801,1.68,4.28,2.439c7.162,3.679,14.332,7.342,22.654,11.603c-9.729,3.368-18.168,6.235-26.565,9.218 c-5.248,1.864-7.539,5.163-6.646,9.667c0.976,4.922,4.488,6.527,9.143,6.747c11.796,0.557,16.101,4.982,16.444,16.661 c0.033,1.128,0.004,2.258,0.004,3.584C338.416,1169.183,342.458,1169.842,346.5,1170.5z"></path> <path fill-rule="evenodd" clip-rule="evenodd" d="M346.5,1170.5c-4.042-0.658-8.084-1.317-12.414-2.022 c0-1.326,0.029-2.456-0.004-3.584c-0.344-11.679-4.648-16.104-16.444-16.661c-4.654-0.22-8.167-1.825-9.143-6.747 c-0.893-4.504,1.398-7.803,6.646-9.667c8.397-2.982,16.837-5.85,26.565-9.218c-8.322-4.261-15.492-7.924-22.654-11.603 c-1.479-0.76-3.457-1.219-4.28-2.439c-1.563-2.321-3.711-5.317-3.297-7.615c0.458-2.544,3.069-5.667,5.52-6.703 c7.481-3.164,15.336-5.446,24.121-8.438c-3.929-2.006-7.066-3.644-10.236-5.219c-4.023-1.999-8.402-3.49-11.989-6.083 c-2.256-1.631-4.633-4.904-4.589-7.398c0.044-2.51,2.472-5.936,4.816-7.261c6.35-3.589,13.213-6.269,19.864-9.327 c1.463-0.673,2.892-1.422,4.858-2.395c-7.814-4.147-14.988-8.01-22.217-11.769c-3.502-1.82-6.108-4.285-5.861-8.479 c0.26-4.402,3.141-6.655,7.172-7.915c6.751-2.108,13.441-4.411,21.056-6.929c-7.395-3.977-13.941-7.554-20.544-11.023 c-3.462-1.818-6.087-4.14-5.939-8.419c0.147-4.282,2.937-6.417,6.509-7.987c10.053-4.419,20.139-8.772,30.046-13.498 c1.611-0.769,3.215-3.216,3.395-5.029c0.756-7.611,0.97-15.275,1.445-24.104c-1.82,1.475-2.923,2.24-3.876,3.16 c-8.873,8.563-17.897,16.979-26.542,25.77c-20.165,20.507-43.73,25.233-70.495,15.695c-75.995-27.083-152.002-54.13-227.95-81.343 c-22.157-7.938-32.949-30.878-25.184-53.094c8.398-24.024,17.01-47.976,25.638-71.919c6.202-17.211,19.868-27.25,38.127-27.854 c3.054-0.101,4.416-1.403,5.762-3.696c7.417-12.635,14.905-25.229,22.396-37.819c13.101-22.021,32.704-28.545,56.878-18.491 c3.624-4.675,7.363-9.506,11.11-14.331c3.883-5,7.73-10.028,11.667-14.987c15.324-19.305,39.805-22.458,59.358-7.453 c26.962,20.69,53.803,41.54,80.697,62.318c7.899,6.104,15.805,12.197,24.15,18.637c5.423-5.295,10.87-10.378,15.963-15.795 c0.964-1.025,0.924-3.438,0.664-5.105c-5.613-36.021-11.312-72.029-17.02-108.035c-2.163-13.646-4.485-27.268-6.509-40.934 c-0.411-2.776-1.43-3.755-4.139-4.483c-13.163-3.538-21.392-15.15-20.456-28.319c0.947-13.339,10.417-23.35,24.004-25.426 c5.056-0.773,10.098-1.63,15.596-2.521c-1.728-7.587-5.268-13.654-10.356-18.817c-9.082-9.213-20.43-13.961-32.843-16.873 c-2.883-0.676-6.335-2.722-7.718-5.161c-2.454-4.328,0.68-8.802,6.483-9.883c13.405-2.496,24.792-8.504,33.868-18.729 c12.449-14.023,18.563-30.956,22.253-48.955c0.868-4.232,1.622-8.534,1.873-12.837c0.271-4.652,2.763-7.196,6.901-7.867 c4.009-0.65,6.466,1.915,7.943,5.471c5.411,13.019,12.568,24.98,21.903,35.565c15.306,17.357,33.769,27.356,57.697,24.402 c4.116-0.509,7.421,0.861,8.594,5.055c1.2,4.291-0.707,7.274-4.664,9.331c-9.438,4.907-17.612,11.399-23.805,20.151 c-5.523,7.807-8.526,16.414-8.137,26.688c4.072-0.635,7.778-1.23,11.49-1.789c11.65-1.754,21.627,1.2,28.571,11.129 c6.376,9.118,6.918,19.049,1.583,28.767c-2.01,3.661-5.181,7.061-8.608,9.455c-3.011,2.103-3.689,4.062-3.197,7.347 c4.078,27.162,8.06,54.339,12.21,82.456c1.639-1.715,2.876-2.91,4.002-4.203c10.506-12.062,21.103-24.05,31.417-36.275 c2.877-3.411,5.884-5.172,10.438-5.441c25.419-1.505,50.82-3.299,76.932-5.041c0.46,7.081,0.913,13.836,1.335,20.592 c1.207,19.288,2.514,38.572,3.462,57.874c0.12,2.461-1.031,5.554-2.654,7.442c-16.396,19.087-33.083,37.921-49.458,57.023 c-1.693,1.976-2.371,5.171-2.696,7.899c-0.826,6.908-1.236,13.869-1.698,20.816c-0.151,2.29-0.336,4.688,0.146,6.896 c14.298,65.344,28.681,130.669,43.033,196c0.312,1.425,0.437,2.891,0.704,4.717c-52.117,11.444-103.915,22.818-156.473,34.359 c-7.161-32.895-14.285-65.616-21.617-99.298c-4.238,4.076-7.88,7.568-11.511,11.072c-5.515,5.324-11.233,10.462-16.422,16.087 c-1.943,2.106-3.554,5.291-3.761,8.099c-1.079,14.619-1.793,29.271-2.334,43.922c-0.184,4.969-2.168,8.096-6.681,10.022 c-7.296,3.116-14.505,6.436-22.749,10.114c7.972,4.299,15.017,8.203,22.164,11.911c3.8,1.972,6.744,4.32,6.369,9.118 c-0.381,4.861-3.824,6.606-7.839,7.884c-6.334,2.016-12.641,4.119-20.189,6.587c5.573,2.983,10.27,5.496,14.966,8.01 c2.054,1.1,4.542,1.792,6.055,3.401c2.005,2.133,4.521,5.014,4.459,7.515c-0.063,2.51-2.476,5.956-4.816,7.229 c-7.405,4.026-15.259,7.228-24.055,11.26c7.393,3.624,13.854,6.815,20.337,9.961c4.485,2.176,9.722,3.794,9.292,10.232 c-0.431,6.45-5.889,7.313-10.589,8.909c-6.26,2.126-12.515,4.269-20.21,6.895c6.203,3.155,11.27,5.728,16.331,8.31 c3.113,1.588,6.658,2.693,9.193,4.938c2.228,1.972,4.183,5.073,4.695,7.954c0.647,3.632-2.199,6.037-5.639,7.249 c-7.637,2.689-15.284,5.349-23.284,8.145c7.297,9.213,10.619,19.104,8.06,30.471C348.5,1170.5,347.5,1170.5,346.5,1170.5z M456.098,665.471c-11.605,0.281-22.071,4.316-30.736,12.709c-66.676,64.576-133.379,129.123-199.986,193.771 c-18.234,17.698-18.535,44.729-0.971,63.18c8.502,8.933,17.097,17.776,25.721,26.592c18.418,18.828,45.259,19.361,64.261,0.99 c66.491-64.286,132.924-128.633,199.29-193.047c18.068-17.537,18.541-44.498,1.306-62.84c-8.9-9.471-17.983-18.773-27.119-28.019 C479.266,670.105,468.704,665.812,456.098,665.471z M539.123,822.472c-23.973,5.262-47.366,10.361-70.729,15.6 c-1.658,0.372-3.328,1.516-4.586,2.724c-13.34,12.81-26.661,25.643-39.78,38.677c-1.282,1.273-1.982,4.097-1.607,5.926 c3.74,18.252,7.763,36.447,11.707,54.658c2.492,11.506,4.987,23.013,7.591,35.021c41.937-9.212,83.386-18.317,124.946-27.447 c-3.21-14.482-6.225-28.079-9.282-41.873c-26.188,5.732-51.806,11.34-77.873,17.046c-1.18-5.586-2.25-10.655-3.359-15.909 c26.244-5.775,51.707-11.378,77.729-17.104c-1.85-8.442-3.61-16.481-5.464-24.943c-14.871,3.231-29.267,6.36-44.158,9.596 c-1.178-5.407-2.281-10.479-3.447-15.835c14.927-3.316,29.299-6.51,44.083-9.794C542.927,839.836,541.087,831.437,539.123,822.472z M442.023,548.211c-31.037,4.839-61.729,9.624-92.609,14.438c7.611,48.131,15.133,95.69,22.784,144.072 c1.915-1.745,3.145-2.808,4.31-3.936c12.203-11.811,24.457-23.569,36.571-35.47c9.698-9.527,21.164-15.419,34.589-17.453 c2.882-0.437,5.811-0.56,9.124-0.865C451.855,615.31,446.99,582.114,442.023,548.211z M244.378,829.863 c-55.82-19.774-111.287-39.536-166.849-59.025c-13.636-4.782-26.799,2.221-31.871,16.306c-8.34,23.162-16.556,46.369-24.796,69.566 c-5.731,16.134,0.431,29.081,16.633,34.873c53.1,18.979,106.208,37.932,159.315,56.89c8.417,3.005,16.844,5.985,25.267,8.977 c-1.268-2.432-3.034-4.141-4.604-6.015c-4.693-5.602-10.03-10.838-13.719-17.047c-2.792-4.698-6.007-7.389-11.021-8.965 c-7.377-2.32-14.586-5.174-22.059-7.869c10.104-28.322,19.97-55.976,29.897-83.803c9.137,3.257,17.569,6.347,26.076,9.213 c1.503,0.507,3.975,0.793,4.883-0.038C235.914,838.912,239.916,834.481,244.378,829.863z M193.735,757.215 c18.072,10.752,35.75,21.269,53.686,31.94c-4.046,6.926-7.845,13.43-11.845,20.279c3.155,1.086,5.748,1.979,8.337,2.869 c3.878-6.413,7.462-12.341,11.21-18.538c5.928,3.488,11.461,6.744,17.358,10.215c4.312-4.664,8.354-9.035,12.625-13.653 c-1.284-0.801-2.789-1.783-4.334-2.697c-21.345-12.63-42.694-25.252-64.044-37.872c-23.07-13.637-46.111-27.322-69.228-40.88 c-11.547-6.772-25.759-4.891-32.702,5.474c-9.228,13.773-17.31,28.314-26.172,43.002c5.558,1.983,10.612,3.588,15.496,5.605 c2.838,1.173,4.157,0.288,5.521-2.155c3.162-5.667,6.569-11.197,9.891-16.774c4.484-7.529,8.981-15.051,13.624-22.829 c18.104,10.771,35.774,21.284,53.706,31.951c-6.428,10.871-12.592,21.297-18.755,31.72c6.799,4.004,6.793,4,10.484-2.211 C183.594,774.245,188.604,765.835,193.735,757.215z M537.554,708.782c13.611-15.586,27.376-31.349,41.362-47.365 c-21.378-18.689-42.37-37.042-63.554-55.563c-13.613,15.666-26.776,30.813-40.316,46.396c13.456,4.201,23.009,12.865,31.859,22.829 c5.81-6.61,11.167-12.706,16.771-19.082c4.261,3.728,8.188,7.163,12.229,10.698c-6.096,7.015-11.756,13.528-17.146,19.731 C525.136,694.012,531.222,701.251,537.554,708.782z M373.424,399.099c-7.392,27.125-19.312,49.953-44.308,64.466 c17.037,8.45,28.752,20.755,34.04,38.584c6.108-0.811,11.67-1.549,17.824-2.366c-0.836-5.852-1.831-11.225-2.29-16.643 c-0.26-3.062-1.439-4.539-4.247-5.825c-8.72-3.997-12.934-13.52-10.393-22.482c2.273-8.017,9.175-13.633,17.438-14.19 c7.632-0.516,15.326,4.074,18.621,11.107c3.469,7.404,1.762,16.211-4.085,22.152c-1.264,1.284-2.935,3.171-2.81,4.644 c0.53,6.254,1.666,12.457,2.64,19.077c6.212-1.11,11.997-2.145,17.827-3.187c0.017-18.965,7.684-33.948,21.116-46.88 C406.597,441.147,388.623,422.822,373.424,399.099z M328.177,748.566c-13.052-10.08-26.233-20.257-39.41-30.439 c-20.962-16.197-41.899-32.428-62.891-48.586c-10.41-8.012-23.535-8.751-31.957-0.017c-9.516,9.868-17.505,21.208-26.404,32.213 c6.194,3.657,11.604,6.852,17.252,10.188c8.472-10.862,16.712-21.427,25.072-32.146c16.638,12.926,32.801,25.482,49.338,38.329 c-6.749,8.748-13.3,17.239-20.021,25.951c2.479,1.46,4.458,2.626,6.809,4.01c6.562-8.415,12.961-16.622,19.541-25.06 c16.914,13.142,33.39,25.943,50.094,38.922C319.616,757.663,323.718,753.304,328.177,748.566z M337.721,547.557 c0.576-0.079,2.059-0.262,3.533-0.491c13.941-2.175,27.878-4.372,41.821-6.533c21.815-3.383,43.644-6.687,65.444-10.158 c4.256-0.678,7.218-3.373,8.507-7.561c1.285-4.176,0.296-7.919-2.736-11.044c-3.386-3.488-7.561-3.604-12.057-2.894 c-24.985,3.954-49.984,7.812-74.979,11.706c-10.688,1.665-21.389,3.266-32.059,5.041c-6.532,1.086-10.36,6.112-9.739,12.371 C326.028,543.747,330.673,547.668,337.721,547.557z M164.536,758.848c-8.667-5.152-17.039-10.13-25.725-15.294 c-5.187,8.738-10.217,17.214-15.507,26.125c9.907,3.498,19.206,6.782,28.757,10.155 C156.301,772.702,160.337,765.913,164.536,758.848z M489.768,815.581c0.122,0.321,0.243,0.644,0.365,0.965 c15.135-3.349,30.271-6.698,45.507-10.069c-2.227-10.034-4.269-19.235-6.45-29.07C515.755,790.415,502.762,802.998,489.768,815.581 z M224.93,735.697c3.899-5.032,7.539-9.73,11.381-14.689c-7.983-6.203-15.66-12.169-23.63-18.362 c-4.644,5.991-8.995,11.605-13.702,17.68C207.647,725.46,216.031,730.426,224.93,735.697z M580.369,641.017 c1.636-8.265-1.024-13.64-7.164-18.246c-7.31-5.484-14.29-11.547-20.68-18.075c-5.092-5.202-10.438-4.529-17.238-3.135 C550.562,614.93,565.279,627.81,580.369,641.017z M191.052,793.66c9.949,3.515,19.25,6.8,28.766,10.161 c1.835-3.154,3.455-5.937,5.24-9.004c-8.8-5.225-17.121-10.166-25.641-15.225C196.532,784.445,194,788.703,191.052,793.66z M292.005,764.225c-8.19-6.344-15.845-12.272-23.67-18.332c-2.94,3.845-5.411,7.075-8.129,10.629 c8.837,5.226,17.209,10.178,25.836,15.279C288.023,769.284,289.838,766.979,292.005,764.225z M388.864,459.657 c-3.075-1.907-5.02-4.057-6.515-3.779c-1.548,0.286-3.529,2.858-3.664,4.562c-0.096,1.195,2.636,3.707,4.02,3.647 C384.391,464.014,385.987,461.861,388.864,459.657z M216.951,856.929c-2.372-0.803-4.317-1.461-6.564-2.222 c-1.739,4.974-3.318,9.493-5.368,15.355C209.508,865.121,212.95,861.332,216.951,856.929z M578.371,598.312 c-2.683,0.155-4.812,0.278-8.117,0.47c3.23,2.763,5.401,4.618,8.117,6.94C578.371,602.932,578.371,600.93,578.371,598.312z M195.303,908.422c0-3.139,0-6.249,0-9.538C191.094,906.292,191.089,907.567,195.303,908.422z"></path> <path fill-rule="evenodd" clip-rule="evenodd" fill="none" d="M456.098,665.471c12.606,0.341,23.168,4.635,31.765,13.336 c9.136,9.245,18.219,18.548,27.119,28.019c17.235,18.342,16.763,45.303-1.306,62.84c-66.366,64.414-132.799,128.761-199.29,193.047 c-19.001,18.371-45.843,17.838-64.261-0.99c-8.624-8.815-17.219-17.659-25.721-26.592c-17.563-18.45-17.263-45.481,0.971-63.18 c66.607-64.647,133.31-129.194,199.986-193.771C434.027,669.787,444.492,665.752,456.098,665.471z M343.879,885.796 c63.373,0.114,106.823-60.718,86.489-119.149c-0.657-1.891-2.499-4.12-4.294-4.751c-35.585-12.503-68.113-6.809-95.154,19.562 c-26.726,26.063-33.348,58.131-22.178,93.724c0.579,1.844,2.618,3.832,4.455,4.581C323.478,883.95,334.244,885.93,343.879,885.796z "></path> <path fill-rule="evenodd" clip-rule="evenodd" fill="none" d="M539.123,822.472c1.964,8.965,3.804,17.364,5.771,26.341 c-14.784,3.284-29.156,6.478-44.083,9.794c1.166,5.356,2.27,10.428,3.447,15.835c14.892-3.235,29.287-6.364,44.158-9.596 c1.854,8.462,3.614,16.501,5.464,24.943c-26.022,5.727-51.485,11.329-77.729,17.104c1.109,5.254,2.18,10.323,3.359,15.909 c26.067-5.706,51.685-11.313,77.873-17.046c3.058,13.794,6.072,27.391,9.282,41.873c-41.561,9.13-83.01,18.235-124.946,27.447 c-2.604-12.009-5.099-23.516-7.591-35.021c-3.944-18.211-7.967-36.406-11.707-54.658c-0.375-1.829,0.325-4.652,1.607-5.926 c13.119-13.034,26.44-25.867,39.78-38.677c1.258-1.208,2.928-2.352,4.586-2.724C491.757,832.833,515.151,827.733,539.123,822.472z"></path> <path fill-rule="evenodd" clip-rule="evenodd" fill="none" d="M442.023,548.211c4.968,33.903,9.832,67.099,14.769,100.787 c-3.313,0.306-6.242,0.429-9.124,0.865c-13.425,2.034-24.891,7.926-34.589,17.453c-12.114,11.9-24.368,23.659-36.571,35.47 c-1.165,1.128-2.395,2.19-4.31,3.936c-7.651-48.382-15.173-95.941-22.784-144.072C380.293,557.835,410.986,553.05,442.023,548.211z "></path> <path fill-rule="evenodd" clip-rule="evenodd" fill="none" d="M244.378,829.863c-4.462,4.618-8.464,9.049-12.848,13.062 c-0.908,0.831-3.38,0.545-4.883,0.038c-8.507-2.866-16.938-5.956-26.076-9.213c-9.928,27.827-19.793,55.48-29.897,83.803 c7.473,2.695,14.682,5.549,22.059,7.869c5.014,1.576,8.23,4.267,11.021,8.965c3.689,6.209,9.026,11.445,13.719,17.047 c1.57,1.874,3.336,3.583,4.604,6.015c-8.422-2.991-16.849-5.972-25.267-8.977c-53.107-18.958-106.215-37.91-159.315-56.89 c-16.202-5.792-22.365-18.739-16.633-34.873c8.241-23.197,16.457-46.404,24.796-69.566c5.072-14.085,18.234-21.088,31.871-16.306 C133.091,790.327,188.558,810.089,244.378,829.863z M95.973,890.974c10.036-28.179,19.915-55.915,29.884-83.907 c-19.983-7.12-39.3-14.004-58.914-20.993c-10.057,28.232-19.901,55.869-29.876,83.873C56.881,877.019,76.22,883.923,95.973,890.974 z M192.254,830.771c-19.892-7.091-39.223-13.982-58.918-21.005c-10.044,28.192-19.887,55.82-29.883,83.879 c19.825,7.07,39.261,14.001,58.915,21.01C172.397,886.503,182.206,858.974,192.254,830.771z"></path> <path fill-rule="evenodd" clip-rule="evenodd" fill="none" d="M193.735,757.215c-5.13,8.62-10.141,17.03-15.142,25.445 c-3.691,6.211-3.685,6.215-10.484,2.211c6.163-10.423,12.327-20.849,18.755-31.72c-17.931-10.667-35.602-21.181-53.706-31.951 c-4.643,7.778-9.14,15.3-13.624,22.829c-3.322,5.577-6.729,11.107-9.891,16.774c-1.363,2.443-2.682,3.328-5.521,2.155 c-4.884-2.018-9.938-3.622-15.496-5.605c8.862-14.688,16.944-29.229,26.172-43.002c6.943-10.364,21.155-12.246,32.702-5.474 c23.117,13.558,46.158,27.243,69.228,40.88c21.35,12.62,42.699,25.242,64.044,37.872c1.545,0.914,3.05,1.896,4.334,2.697 c-4.271,4.618-8.312,8.989-12.625,13.653c-5.897-3.471-11.43-6.727-17.358-10.215c-3.748,6.197-7.332,12.125-11.21,18.538 c-2.589-0.891-5.182-1.783-8.337-2.869c4-6.85,7.799-13.354,11.845-20.279C229.484,778.483,211.807,767.967,193.735,757.215z"></path> <path fill-rule="evenodd" clip-rule="evenodd" fill="none" d="M537.554,708.782c-6.332-7.531-12.418-14.771-18.795-22.356 c5.391-6.203,11.051-12.717,17.146-19.731c-4.041-3.535-7.969-6.971-12.229-10.698c-5.604,6.376-10.961,12.472-16.771,19.082 c-8.851-9.964-18.403-18.628-31.859-22.829c13.54-15.582,26.703-30.729,40.316-46.396c21.184,18.521,42.176,36.874,63.554,55.563 C564.93,677.434,551.165,693.196,537.554,708.782z"></path> <path fill-rule="evenodd" clip-rule="evenodd" fill="none" d="M373.424,399.099c15.199,23.724,33.173,42.049,61.375,48.457 c-13.433,12.932-21.1,27.915-21.116,46.88c-5.83,1.042-11.615,2.076-17.827,3.187c-0.974-6.62-2.109-12.823-2.64-19.077 c-0.125-1.473,1.546-3.359,2.81-4.644c5.847-5.941,7.554-14.748,4.085-22.152c-3.295-7.033-10.989-11.623-18.621-11.107 c-8.264,0.558-15.165,6.174-17.438,14.19c-2.541,8.963,1.673,18.485,10.393,22.482c2.808,1.286,3.987,2.763,4.247,5.825 c0.459,5.418,1.454,10.791,2.29,16.643c-6.154,0.817-11.716,1.556-17.824,2.366c-5.288-17.829-17.003-30.134-34.04-38.584 C354.113,449.052,366.032,426.224,373.424,399.099z"></path> <path fill-rule="evenodd" clip-rule="evenodd" fill="none" d="M328.177,748.566c-4.459,4.737-8.561,9.097-12.577,13.365 c-16.704-12.979-33.18-25.78-50.094-38.922c-6.579,8.438-12.979,16.645-19.541,25.06c-2.351-1.384-4.331-2.55-6.809-4.01 c6.721-8.712,13.272-17.203,20.021-25.951c-16.537-12.847-32.7-25.403-49.338-38.329c-8.36,10.719-16.6,21.283-25.072,32.146 c-5.648-3.336-11.058-6.53-17.252-10.188c8.899-11.005,16.889-22.345,26.404-32.213c8.422-8.734,21.547-7.995,31.957,0.017 c20.992,16.158,41.929,32.389,62.891,48.586C301.944,728.31,315.125,738.486,328.177,748.566z"></path> <path fill-rule="evenodd" clip-rule="evenodd" fill="none" d="M337.721,547.557c-7.048,0.111-11.693-3.81-12.264-9.562 c-0.621-6.259,3.207-11.285,9.739-12.371c10.67-1.775,21.37-3.376,32.059-5.041c24.994-3.895,49.993-7.752,74.979-11.706 c4.496-0.711,8.671-0.595,12.057,2.894c3.032,3.125,4.021,6.868,2.736,11.044c-1.289,4.188-4.251,6.883-8.507,7.561 c-21.801,3.472-43.629,6.775-65.444,10.158c-13.943,2.161-27.88,4.358-41.821,6.533 C339.78,547.295,338.297,547.478,337.721,547.557z"></path> <path fill-rule="evenodd" clip-rule="evenodd" fill="none" d="M164.536,758.848c-4.2,7.065-8.235,13.854-12.475,20.986 c-9.551-3.373-18.85-6.657-28.757-10.155c5.29-8.911,10.32-17.387,15.507-26.125C147.497,748.718,155.869,753.695,164.536,758.848z "></path> <path fill-rule="evenodd" clip-rule="evenodd" fill="none" d="M489.768,815.581c12.994-12.583,25.987-25.166,39.422-38.175 c2.182,9.835,4.224,19.036,6.45,29.07c-15.236,3.371-30.372,6.721-45.507,10.069C490.011,816.225,489.89,815.902,489.768,815.581z"></path> <path fill-rule="evenodd" clip-rule="evenodd" fill="none" d="M224.93,735.697c-8.899-5.271-17.283-10.237-25.951-15.372 c4.708-6.074,9.059-11.688,13.702-17.68c7.97,6.193,15.647,12.159,23.63,18.362C232.469,725.967,228.829,730.665,224.93,735.697z"></path> <path fill-rule="evenodd" clip-rule="evenodd" fill="none" d="M191.052,793.66c2.948-4.957,5.48-9.215,8.365-14.067 c8.52,5.059,16.841,10,25.641,15.225c-1.785,3.067-3.404,5.85-5.24,9.004C210.302,800.46,201.001,797.175,191.052,793.66z"></path> <path fill-rule="evenodd" clip-rule="evenodd" fill="none" d="M292.005,764.225c-2.167,2.754-3.982,5.06-5.963,7.576 c-8.627-5.102-16.999-10.054-25.836-15.279c2.718-3.554,5.188-6.784,8.129-10.629C276.16,751.952,283.815,757.881,292.005,764.225z "></path> <path fill-rule="evenodd" clip-rule="evenodd" fill="none" d="M388.864,459.657c-2.877,2.204-4.473,4.356-6.159,4.43 c-1.384,0.06-4.115-2.452-4.02-3.647c0.135-1.703,2.116-4.275,3.664-4.562C383.844,455.601,385.788,457.75,388.864,459.657z"></path> <path fill-rule="evenodd" clip-rule="evenodd" fill="none" d="M216.951,856.929c-4,4.403-7.443,8.192-11.932,13.134 c2.049-5.862,3.629-10.382,5.368-15.355C212.634,855.468,214.579,856.126,216.951,856.929z"></path> <path fill-rule="evenodd" clip-rule="evenodd" fill="none" d="M195.303,908.422c-4.214-0.854-4.208-2.13,0-9.538 C195.303,902.173,195.303,905.283,195.303,908.422z"></path> <path fill-rule="evenodd" clip-rule="evenodd" d="M343.879,885.796c-9.635,0.134-20.401-1.846-30.682-6.033 c-1.837-0.749-3.876-2.737-4.455-4.581c-11.17-35.593-4.548-67.66,22.178-93.724c27.041-26.371,59.569-32.065,95.154-19.562 c1.795,0.631,3.637,2.86,4.294,4.751C450.702,825.078,407.252,885.91,343.879,885.796z M419.107,793.468 c-0.36-2.728-1.117-8.163-1.779-13.609c-0.39-3.205-2.035-4.673-5.257-5.521c-52.92-13.947-102.246,33.567-90.461,87.181 c0.723,3.285,2.177,5.011,5.579,5.881C373.521,879.252,419.009,844.085,419.107,793.468z"></path> <path fill-rule="evenodd" clip-rule="evenodd" d="M95.973,890.974c-19.753-7.051-39.093-13.955-58.906-21.027 c9.976-28.004,19.82-55.641,29.876-83.873c19.613,6.989,38.93,13.873,58.914,20.993C115.888,835.059,106.01,862.795,95.973,890.974 z M105.024,816.975c-9.553-3.405-18.692-6.663-28.204-10.055c-6.386,17.957-12.586,35.391-18.904,53.153 c9.619,3.427,18.645,6.642,28.167,10.034C92.435,852.288,98.654,834.845,105.024,816.975z"></path> <path fill-rule="evenodd" clip-rule="evenodd" d="M192.254,830.771c-10.048,28.203-19.857,55.732-29.887,83.884 c-19.654-7.009-39.089-13.939-58.915-21.01c9.996-28.059,19.839-55.687,29.883-83.879 C153.031,816.788,172.362,823.68,192.254,830.771z M152.48,893.819c6.38-17.931,12.614-35.449,18.923-53.18 c-9.688-3.445-18.709-6.653-28.177-10.021c-6.353,17.82-12.564,35.247-18.937,53.124 C133.78,887.136,142.906,890.397,152.48,893.819z"></path> <path fill-rule="evenodd" clip-rule="evenodd" fill="none" d="M419.107,793.468c-0.098,50.617-45.586,85.784-91.918,73.931 c-3.402-0.87-4.856-2.596-5.579-5.881c-11.785-53.613,37.541-101.128,90.461-87.181c3.222,0.849,4.867,2.316,5.257,5.521 C417.99,785.305,418.746,790.74,419.107,793.468z M400.795,820.788c-0.014-17.537-13.878-31.354-31.426-31.319 c-17.451,0.034-31.28,14.059-31.158,31.598c0.12,17.199,14.009,31.089,31.197,31.199 C386.693,852.376,400.809,838.22,400.795,820.788z"></path> <path fill-rule="evenodd" clip-rule="evenodd" fill="none" d="M105.024,816.975c-6.371,17.87-12.589,35.313-18.941,53.133 c-9.522-3.393-18.548-6.607-28.167-10.034c6.317-17.763,12.518-35.196,18.904-53.153 C86.332,810.312,95.471,813.569,105.024,816.975z"></path> <path fill-rule="evenodd" clip-rule="evenodd" fill="none" d="M152.48,893.819c-9.574-3.422-18.7-6.684-28.19-10.076 c6.373-17.877,12.584-35.304,18.937-53.124c9.468,3.367,18.489,6.575,28.177,10.021C165.094,858.37,158.86,875.889,152.48,893.819z "></path> <path fill-rule="evenodd" clip-rule="evenodd" d="M400.795,820.788c0.014,17.432-14.103,31.588-31.387,31.478 c-17.188-0.11-31.077-14-31.197-31.199c-0.122-17.539,13.707-31.563,31.158-31.598 C386.917,789.434,400.781,803.251,400.795,820.788z M384.547,820.832c0.014-8.427-6.905-15.315-15.241-15.175 c-8.184,0.138-14.817,6.89-14.826,15.091c-0.01,8.543,6.665,15.126,15.245,15.037C378.053,835.698,384.534,829.159,384.547,820.832 z"></path> <path fill-rule="evenodd" clip-rule="evenodd" fill="none" d="M384.547,820.832c-0.013,8.327-6.494,14.866-14.822,14.953 c-8.58,0.089-15.255-6.494-15.245-15.037c0.009-8.201,6.643-14.953,14.826-15.091C377.642,805.517,384.561,812.405,384.547,820.832 z"></path> </g> <g> <path fill="none" d="M693.5,493.5c0,23.325,0,46.649,0,69.98c-95.957,0.007-191.913,0.007-287.935,0.007 c0-134.229,0-268.469,0-402.849c95.935,0,191.935,0,287.935,0c0,106.606,0,213.233,0,319.861c-0.34-1.442-0.766-2.871-1.008-4.33 c-1.889-11.384-6.121-21.751-13.385-30.783c-20.281-25.22-55.658-31.726-85.354-15.139c-10.435,5.828-19.846,13.471-30.199,19.466 c-7.698,4.458-15.832,8.866-24.348,11.072c-21.059,5.454-38.766-11.917-34.812-33.306c2.534-13.716,10.677-24.002,21.389-32.104 c10.606-8.023,21.826-15.247,32.939-22.576c1.836-1.211,4.57-1.825,6.773-1.598c26.347,2.72,50.414-2.86,71.171-19.779 c15.609-12.723,22.731-29.28,19.951-49.48c-2.421-17.594-10.413-32.421-23.319-44.62c-10.155-9.599-21.771-17.071-34.418-22.802 c-54.735-24.801-110.604-46.75-167.527-66.011c-6.24-2.112-12.535-4.067-19.011-6.162c-1.618,4.956-3.072,9.366-4.491,13.786 c-0.398,1.24-0.694,2.514-1.098,3.993c1.211,0.487,2.248,0.983,3.332,1.33c56.463,18.061,111.504,39.878,165.838,63.466 c12.596,5.468,24.714,12.323,36.33,19.682c11.513,7.292,19.576,17.954,23.803,31.164c5.585,17.461,1.035,31.835-13.598,42.85 c-8.791,6.618-18.656,10.916-29.469,12.861c-4.65,0.837-9.398,1.117-14.933,1.744c1.295-2.994,2.168-4.93,2.976-6.894 c7.707-18.754,3.462-38.848-10.914-51.707c-21.529-19.258-56.24-9.418-62.035,17.928c-3.414,16.108,2.702,29.522,14.713,40.199 c4.52,4.018,9.861,7.108,14.959,10.715c-6.733,4.691-13.681,9.232-20.301,14.209c-13.143,9.88-23.92,21.747-29.402,37.613 c-6.168,17.851-4.184,34.648,8.321,49.146c12.573,14.575,28.95,18.855,47.508,14.919c12.596-2.672,23.456-9.165,34.04-16.226 c9.27-6.182,18.35-12.812,28.201-17.919c20.393-10.569,45.676-4.648,58.881,12.902c13.785,18.321,12.711,44.116-3.805,60.867 c-7.73,7.839-17.377,13.829-26.368,20.364c-3.839,2.791-8.22,4.835-12.48,7.29c3.12,5.62,5.995,10.799,9.033,16.271 c13.723-7.222,26.678-14.655,37.831-24.822c10.283-9.375,18.125-20.38,21.756-34.027C691.902,500.559,692.662,497.019,693.5,493.5z "></path> <path fill-rule="evenodd" clip-rule="evenodd" d="M693.5,493.5c-0.838,3.519-1.599,7.059-2.529,10.553 c-3.631,13.647-11.473,24.652-21.756,34.027c-11.153,10.167-24.108,17.601-37.831,24.822c-3.038-5.472-5.913-10.65-9.033-16.271 c4.261-2.455,8.642-4.499,12.48-7.29c8.991-6.535,18.638-12.525,26.368-20.364c16.516-16.751,17.59-42.546,3.805-60.867 c-13.205-17.551-38.488-23.472-58.881-12.902c-9.852,5.106-18.932,11.737-28.201,17.919c-10.584,7.061-21.444,13.554-34.04,16.226 c-18.558,3.937-34.935-0.344-47.508-14.919c-12.505-14.498-14.489-31.296-8.321-49.146c5.482-15.866,16.26-27.733,29.402-37.613 c6.62-4.977,13.567-9.518,20.301-14.209c-5.098-3.606-10.439-6.697-14.959-10.715c-12.011-10.677-18.127-24.091-14.713-40.199 c5.795-27.346,40.506-37.186,62.035-17.928c14.376,12.859,18.621,32.953,10.914,51.707c-0.808,1.964-1.681,3.899-2.976,6.894 c5.534-0.627,10.282-0.907,14.933-1.744c10.812-1.945,20.678-6.243,29.469-12.861c14.633-11.015,19.183-25.389,13.598-42.85 c-4.227-13.21-12.29-23.872-23.803-31.164c-11.616-7.358-23.734-14.214-36.33-19.682c-54.334-23.588-109.375-45.405-165.838-63.466 c-1.084-0.347-2.121-0.843-3.332-1.33c0.403-1.479,0.699-2.753,1.098-3.993c1.419-4.42,2.873-8.83,4.491-13.786 c6.476,2.095,12.771,4.05,19.011,6.162c56.923,19.261,112.792,41.21,167.527,66.011c12.646,5.73,24.263,13.203,34.418,22.802 c12.906,12.199,20.898,27.026,23.319,44.62c2.78,20.2-4.342,36.758-19.951,49.48c-20.757,16.919-44.824,22.499-71.171,19.779 c-2.203-0.228-4.938,0.387-6.773,1.598c-11.113,7.329-22.333,14.553-32.939,22.576c-10.712,8.103-18.854,18.389-21.389,32.104 c-3.953,21.389,13.754,38.76,34.812,33.306c8.516-2.206,16.649-6.614,24.348-11.072c10.354-5.995,19.765-13.638,30.199-19.466 c29.695-16.587,65.072-10.081,85.354,15.139c7.264,9.032,11.496,19.399,13.385,30.783c0.242,1.459,0.668,2.888,1.008,4.33 C693.5,484.833,693.5,489.167,693.5,493.5z M565.778,328.099c0.212-9.706-4.697-18.248-12.951-22.536 c-6.996-3.634-15.383-2.563-21.369,2.728c-5.389,4.763-6.974,12.109-3.766,19.673c5.141,12.121,15.865,17.362,27.41,21.318 c0.873,0.299,2.705-0.944,3.52-1.938C563.182,341.772,565.643,335.35,565.778,328.099z"></path> <path fill-rule="evenodd" clip-rule="evenodd" fill="none" d="M565.78,328.1c-0.137,7.25-2.598,13.673-7.158,19.243 c-0.814,0.994-2.646,2.237-3.52,1.938c-11.545-3.956-22.27-9.197-27.41-21.318c-3.208-7.563-1.623-14.91,3.766-19.673 c5.986-5.291,14.373-6.361,21.369-2.728C561.08,309.851,565.99,318.393,565.78,328.1z"></path> </g> </svg> 