<?xml version="1.0" encoding="UTF-8"?> <!-- Generator: Adobe Illustrator 16.0.0, SVG Export Plug-In . SVG Version: 6.00 Build 0) --> <svg xmlns="http://www.w3.org/2000/svg" xmlns:xlink="http://www.w3.org/1999/xlink" id="Layer_1" x="0px" y="0px" width="185.612px" height="191.703px" viewBox="0 0 185.612 191.703" xml:space="preserve"> <g> <path d="M4.973,41.44c0-6.244,1.082-11.793,3.252-16.651c2.167-4.854,5.073-9.017,8.716-12.489 c3.643-3.467,7.846-6.114,12.619-7.935c4.768-1.821,9.756-2.732,14.96-2.732c5.203,0,10.188,0.911,14.96,2.732 c4.769,1.821,8.976,4.468,12.618,7.935c3.643,3.472,6.545,7.635,8.715,12.489c2.168,4.858,3.252,10.407,3.252,16.651v108.752 c0,6.245-1.084,11.798-3.252,16.651c-2.17,4.858-5.073,9.021-8.715,12.488c-3.642,3.472-7.85,6.114-12.618,7.936 C54.707,189.089,49.723,190,44.52,190c-5.204,0-10.192-0.911-14.96-2.732c-4.773-1.821-8.976-4.464-12.619-7.936 c-3.643-3.468-6.549-7.63-8.716-12.488c-2.171-4.854-3.252-10.406-3.252-16.651V41.44z M31.511,150.192 c0,3.817,1.211,6.984,3.643,9.497c2.427,2.517,5.549,3.772,9.366,3.772c3.813,0,6.935-1.256,9.366-3.772 c2.427-2.513,3.643-5.68,3.643-9.497V41.44c0-3.813-1.216-6.98-3.643-9.496c-2.431-2.513-5.553-3.773-9.366-3.773 c-3.817,0-6.939,1.26-9.366,3.773c-2.431,2.516-3.643,5.683-3.643,9.496V150.192z"></path> <path d="M91.297,188.438v-24.977l47.872-90.281c2.427-4.508,3.813-8.456,4.163-11.838c0.346-3.382,0.521-7.585,0.521-12.619 c0-2.252-0.045-4.638-0.13-7.154c-0.09-2.513-0.565-4.724-1.432-6.635c-0.87-1.907-2.171-3.512-3.902-4.813 c-1.736-1.301-4.252-1.952-7.545-1.952c-3.992,0-7.155,1.13-9.496,3.382c-2.342,2.256-3.513,5.553-3.513,9.887v15.09H91.297V41.96 c0-5.549,1.041-10.752,3.122-15.61c2.082-4.854,4.943-9.106,8.586-12.749c3.468-3.643,7.631-6.545,12.488-8.716 c4.854-2.167,10.058-3.252,15.61-3.252c6.936,0,12.879,1.26,17.822,3.772c4.943,2.517,9.062,5.943,12.358,10.277 c3.122,4.338,5.419,9.281,6.895,14.83c1.472,5.553,2.211,11.448,2.211,17.692c0,4.512-0.089,8.285-0.26,11.317 c-0.175,3.037-0.521,5.943-1.041,8.716c-0.52,2.777-1.39,5.553-2.602,8.326c-1.215,2.776-2.861,6.159-4.943,10.147l-39.026,75.19 h47.872v26.538H91.297z"></path> </g> </svg> 