<?xml version="1.0" encoding="UTF-8"?> <!-- Generator: Adobe Illustrator 16.0.0, SVG Export Plug-In . SVG Version: 6.00 Build 0) --> <svg xmlns="http://www.w3.org/2000/svg" xmlns:xlink="http://www.w3.org/1999/xlink" id="Layer_1" x="0px" y="0px" width="185.612px" height="191.703px" viewBox="0 0 185.612 191.703" xml:space="preserve"> <g> <path d="M4.973,41.44c0-6.244,1.082-11.793,3.252-16.651c2.167-4.854,5.073-9.017,8.716-12.489 c3.643-3.467,7.846-6.114,12.619-7.935c4.768-1.821,9.756-2.732,14.96-2.732c5.203,0,10.188,0.911,14.96,2.732 c4.769,1.821,8.976,4.468,12.618,7.935c3.643,3.472,6.545,7.635,8.715,12.489c2.168,4.858,3.252,10.407,3.252,16.651v108.752 c0,6.245-1.084,11.798-3.252,16.651c-2.17,4.858-5.073,9.021-8.715,12.488c-3.642,3.472-7.85,6.114-12.618,7.936 C54.707,189.089,49.723,190,44.52,190c-5.204,0-10.192-0.911-14.96-2.732c-4.773-1.821-8.976-4.464-12.619-7.936 c-3.643-3.468-6.549-7.63-8.716-12.488c-2.171-4.854-3.252-10.406-3.252-16.651V41.44z M31.511,150.192 c0,3.817,1.211,6.984,3.643,9.497c2.427,2.517,5.549,3.772,9.366,3.772c3.813,0,6.935-1.256,9.366-3.772 c2.427-2.513,3.643-5.68,3.643-9.497V41.44c0-3.813-1.216-6.98-3.643-9.496c-2.431-2.513-5.553-3.773-9.366-3.773 c-3.817,0-6.939,1.26-9.366,3.773c-2.431,2.516-3.643,5.683-3.643,9.496V150.192z"></path> <path d="M120.046,188.438V31.293L93.508,50.806V22.708l26.538-19.513h26.538v185.244H120.046z"></path> </g> </svg> 