<?xml version="1.0" encoding="UTF-8"?> <svg xmlns="http://www.w3.org/2000/svg" id="Layer_1" data-name="Layer 1" viewBox="0 0 55.4 55.32"><title>BuildOut_Icon</title><g style="opacity:0.15"><path d="M51.73,30.79c6.67-4,6.67-14.31,6.67-14.35a.65.65,0,0,0-.65-.65,22,22,0,0,0-4.92.61,8.15,8.15,0,0,0-8-7h0A21.57,21.57,0,0,0,45.45,4a.65.65,0,0,0-.65-.66s-9.93,0-14.35,6.68c-3.7-5.92-14.31-6.68-14.34-6.68a.66.66,0,0,0-.66.66,23.46,23.46,0,0,0,.67,4.78,8.15,8.15,0,0,0-7.36,8.1c0,.05,0,.09,0,.14a23.13,23.13,0,0,0-5.11-.79.66.66,0,0,0-.66.65s0,9.69,6.68,14.35C3,36.5,3,45.55,3,45.58a.67.67,0,0,0,.66.66,21.63,21.63,0,0,0,5.14-.71,8.14,8.14,0,0,0,8,7.3A22.14,22.14,0,0,0,16,58a.66.66,0,0,0,.66.66S26.79,58.4,31,52.12c3.88,6.56,14.27,6.56,14.31,6.56A.66.66,0,0,0,46,58a22.67,22.67,0,0,0-.64-4.57,8.14,8.14,0,0,0,7.61-8.11,2.85,2.85,0,0,0,0-.29,21.25,21.25,0,0,0,4.86.74.65.65,0,0,0,.65-.66S58.16,35.93,51.73,30.79Zm5.14-13.47A16.84,16.84,0,0,1,50.62,30a13.21,13.21,0,0,0-7.31-2.25c-.41,0-.81,0-1.22.06C43.69,22,49.65,17.66,56.87,17.32ZM49.43,30.79c-1.84,2.31-10.13,2.08-12.09-.06C39.78,28.2,47,28.6,49.43,30.79ZM44.78,10.7a6.82,6.82,0,0,1,6.75,6.05C47.25,18,42.1,21,40.64,28a13.68,13.68,0,0,0-4.48,1.85c-1.08-.33-4.18-3.56-4.39-5a13.29,13.29,0,0,0,1.44-3.8C40,19.63,43,14.87,44.36,10.74,44.5,10.73,44.64,10.7,44.78,10.7Zm-9.7,20.19a12.28,12.28,0,0,0-4.38,4.65c-.83-1.33-3.77-4.12-4.43-4.26,2.13-1.42,4.3-4.74,4.43-4.91A13.39,13.39,0,0,0,35.08,30.89Zm8.84-26c-.33,7.22-4.7,13.18-10.48,14.77,0-.4.06-.81.06-1.22a13.23,13.23,0,0,0-2.24-7.3A16.76,16.76,0,0,1,43.92,4.89ZM30.62,24.57c-1.23-.93-3.36-8.38-.17-12.24C32.61,15,32.85,20.68,30.62,24.57Zm-1-13.43a13.16,13.16,0,0,0-2.25,7.3c0,.41,0,.82.07,1.22C21.68,18.07,17.32,12.11,17,4.89A16.76,16.76,0,0,1,29.65,11.14Zm-13.17-1c1.32,4.37,4.33,9.7,11.21,11a13.64,13.64,0,0,0,1.83,4.44c-.8,1.35-3.11,4.05-4.72,4.73a14.18,14.18,0,0,0-3.95-1.64c-1.47-6.72-6.49-9.79-10.74-11.2,0-.19,0-.37,0-.55A6.8,6.8,0,0,1,16.48,10.11Zm7.6,21.18c-2,2.16-9.26,2.31-12.1-.05C16.13,28.1,22.84,29.86,24.08,31.29ZM4.54,17.77c7.22.33,13.18,4.7,14.77,10.48-.4,0-.81-.06-1.21-.06a13.24,13.24,0,0,0-7.31,2.24A16.76,16.76,0,0,1,4.54,17.77Zm0,26.93A16.76,16.76,0,0,1,10.79,32a13.16,13.16,0,0,0,7.31,2.25c.4,0,.81,0,1.21-.07C17.72,40,11.76,44.37,4.54,44.7Zm12.35,6.83a6.82,6.82,0,0,1-6.78-6.38C14.26,43.8,19.16,40.78,20.76,34a13.61,13.61,0,0,0,4.48-1.86c.32.17,4,2.91,4.53,4.74a15.36,15.36,0,0,0-1.58,4c-6.59,1.58-9.63,6.44-11,10.58Zm.6,5.61a18.25,18.25,0,0,1,.75-4.42h0v-.1c1.54-5.09,5.18-9,9.7-10.25a12.09,12.09,0,0,0-.07,1.21,13.16,13.16,0,0,0,2.25,7.31A16.76,16.76,0,0,1,17.49,57.14ZM31,49.7c-2.65-2.29-2.41-10.25-.25-12.15C33.93,39.73,32.92,48.37,31,49.7Zm.8,1.19A13.16,13.16,0,0,0,34,43.58a12.1,12.1,0,0,0-.06-1.21C39.72,44,44.09,49.92,44.42,57.14A16.8,16.8,0,0,1,31.75,50.89ZM45,52.15c-1.3-4.31-4.31-9.67-11.24-11.23a13.48,13.48,0,0,0-1.83-4.45,9.84,9.84,0,0,1,4.61-4.56,15.68,15.68,0,0,0,4.15,1.64,16.1,16.1,0,0,0,10.91,11.1c0,.23.06.46.06.69A6.84,6.84,0,0,1,45,52.15ZM42.09,33.78c.41,0,.81.06,1.22.06a13.21,13.21,0,0,0,7.31-2.25,16.84,16.84,0,0,1,6.25,12.67C51.48,44.46,43.69,39.56,42.09,33.78Z" transform="translate(-3 -3.35)" style="fill:#93b2d3"></path></g></svg> 