<?xml version="1.0" encoding="UTF-8"?> <svg xmlns="http://www.w3.org/2000/svg" xmlns:xlink="http://www.w3.org/1999/xlink" id="Layer_1" data-name="Layer 1" viewBox="0 0 1341.39 908.53"><defs><clipPath id="clip-path" transform="translate(219.86 -119.97)"><ellipse cx="378.15" cy="574.23" rx="215.05" ry="102.27" style="fill:none"></ellipse></clipPath></defs><title>Optimization_Diagram</title><g style="clip-path:url(#clip-path)"><path d="M975.44,722.69,721.14,468.38l2.83-2.83,254.3,254.31Zm-20,0L701.14,468.38l2.83-2.83,254.3,254.31Zm-20,0L681.14,468.38l2.83-2.83,254.3,254.31Zm-20,0L661.14,468.38l2.83-2.83,254.3,254.31Zm-20,0L641.14,468.38l2.83-2.83,254.3,254.31Zm-20,0L621.14,468.38l2.83-2.83,254.3,254.31Zm-20,0L601.14,468.38l2.83-2.83,254.3,254.31Zm-20,0L581.14,468.38l2.83-2.83,254.3,254.31Zm-20,0L561.14,468.38l2.83-2.83,254.3,254.31Zm-20,0L541.14,468.38l2.83-2.83,254.3,254.31Zm-20,0L521.14,468.38l2.83-2.83,254.3,254.31Zm-20,0L501.14,468.38l2.83-2.83,254.3,254.31Zm-21,0L480.14,468.38l2.83-2.83,254.3,254.31Zm-20,0L460.14,468.38l2.83-2.83,254.3,254.31Zm-20,0L440.14,468.38l2.83-2.83,254.3,254.31Zm-20,0L420.14,468.38l2.83-2.83,254.3,254.31Zm-20,0L400.14,468.38l2.83-2.83,254.3,254.31Zm-20,0L380.14,468.38l2.83-2.83,254.3,254.31Zm-20,0L360.14,468.38l2.83-2.83,254.3,254.31Zm-20,0L340.14,468.38l2.83-2.83,254.3,254.31Zm-20,0L320.14,468.38l2.83-2.83,254.3,254.31Zm-20,0L300.14,468.38l2.83-2.83,254.3,254.31Zm-20,0L280.14,468.38l2.83-2.83,254.3,254.31Zm-20,0L260.14,468.38l2.83-2.83,254.3,254.31Zm-19,0L241.14,468.38l2.83-2.83,254.3,254.31Zm-20,0L221.14,468.38l2.83-2.83,254.3,254.31Zm-20,0L201.14,468.38l2.83-2.83,254.3,254.31Zm-20,0L181.14,468.38l2.83-2.83,254.3,254.31Zm-20,0L161.14,468.38l2.83-2.83,254.3,254.31Zm-20,0L141.14,468.38l2.83-2.83,254.3,254.31Zm-20,0L121.14,468.38l2.83-2.83,254.3,254.31Zm-20,0L101.14,468.38l2.83-2.83,254.3,254.31Zm-20,0L81.14,468.38,84,465.55l254.3,254.31Zm-20,0L61.14,468.38,64,465.55l254.3,254.31Zm-20,0L41.14,468.38,44,465.55l254.3,254.31Zm-20,0L21.14,468.38,24,465.55l254.3,254.31Zm-21,0L.14,468.38,3,465.55l254.3,254.31Zm-20,0L-19.86,468.38l2.83-2.83,254.3,254.31Zm-20,0L-39.86,468.38l2.83-2.83,254.3,254.31Zm-20,0L-59.86,468.38l2.83-2.83,254.3,254.31Zm-20,0L-79.86,468.38l2.83-2.83,254.3,254.31Zm-20,0L-99.86,468.38l2.83-2.83,254.3,254.31Zm-20,0-254.3-254.31,2.83-2.83,254.3,254.31Zm-20,0-254.3-254.31,2.83-2.83,254.3,254.31Zm-20,0-254.3-254.31,2.83-2.83L97.27,719.86Zm-20,0-254.3-254.31,2.83-2.83L77.27,719.86Zm-20,0-254.3-254.31,2.83-2.83L57.27,719.86Zm-20,0-254.3-254.31,2.83-2.83L37.27,719.86Z" transform="translate(219.86 -119.97)" style="fill:#fff"></path></g><path d="M380.15,678.5a279.28,279.28,0,1,1,197.47-81.8A277.44,277.44,0,0,1,380.15,678.5Zm0-554.53a275.27,275.27,0,1,0,194.64,80.62A273.45,273.45,0,0,0,380.15,124Z" transform="translate(219.86 -119.97)" style="fill:#fff"></path><path d="M380.15,1028.5a279.28,279.28,0,1,1,197.47-81.8A277.44,277.44,0,0,1,380.15,1028.5Zm0-554.53a275.27,275.27,0,1,0,194.64,80.62A273.45,273.45,0,0,0,380.15,474Z" transform="translate(219.86 -119.97)" style="fill:#fff"></path><circle cx="600.01" cy="454.27" r="74.08" style="fill:#fff"></circle><path d="M380.15,657.31a83.08,83.08,0,1,1,83.08-83.08A83.17,83.17,0,0,1,380.15,657.31Zm0-148.15a65.08,65.08,0,1,0,65.08,65.07A65.14,65.14,0,0,0,380.15,509.16Z" transform="translate(219.86 -119.97)"></path><circle cx="600.01" cy="454.27" r="30.34"></circle><path d="M739.7,354.56h-196v-4h196A27.57,27.57,0,0,0,767.24,323V267.56h4V323A31.58,31.58,0,0,1,739.7,354.56Z" transform="translate(219.86 -119.97)" style="fill:#fff"></path><circle cx="766.28" cy="232.1" r="14.75" style="fill:#fff"></circle><circle cx="988.28" cy="148.1" r="14.75" style="fill:#fff"></circle><path d="M770.28,903.06h-4V847.61a27.57,27.57,0,0,0-27.54-27.55h-196v-4h196a31.57,31.57,0,0,1,31.54,31.55Z" transform="translate(219.86 -119.97)" style="fill:#fff"></path><circle cx="765.32" cy="698.6" r="14.75" style="fill:#fff"></circle><circle cx="987.32" cy="782.6" r="14.75" style="fill:#fff"></circle><path d="M840.52,560.47a22.57,22.57,0,0,0-11.91-3.57c-4.71,0-8,1.86-8,5s3.63,4,8.67,4.86l2.37.39c7.5,1.23,13.38,4.44,13.38,11.76,0,9.27-8.16,13.68-17.19,13.68-6.36,0-13.2-1.86-17.7-5.49l4.35-6.75a22.17,22.17,0,0,0,13.38,4.53c4.65,0,8.25-1.83,8.25-5.07,0-2.91-3.06-4-8.91-4.92l-2.67-.42c-7.41-1.17-12.81-4.44-12.81-12,0-8.76,7.8-13.32,16.74-13.32a29.55,29.55,0,0,1,16.05,4.47Z" transform="translate(219.86 -119.97)" style="fill:#fff"></path><path d="M881.05,583.21l6.24-20.4h8.19l-9.84,29.07H876.7l-6.45-19.65-6.39,19.65H855l-9.84-29.07h8.34l6.21,20.31,6.51-20.31h8.25Z" transform="translate(219.86 -119.97)" style="fill:#fff"></path><path d="M923.8,577.3a22.45,22.45,0,0,1-.15,2.64H903c.84,4.2,3.78,6,7.47,6a11.75,11.75,0,0,0,7.35-2.79l4.59,5c-3.3,3-7.5,4.41-12.39,4.41-8.91,0-15.09-6.06-15.09-15.21S901,562,909.67,562C918,562,923.77,568.24,923.8,577.3Zm-20.73-2.7h12.87c-.72-3.72-3-5.82-6.33-5.82C905.92,568.78,903.76,571,903.07,574.6Z" transform="translate(219.86 -119.97)" style="fill:#fff"></path><path d="M954.22,577.3a22.45,22.45,0,0,1-.15,2.64H933.46c.84,4.2,3.78,6,7.47,6a11.75,11.75,0,0,0,7.35-2.79l4.59,5c-3.3,3-7.5,4.41-12.39,4.41-8.91,0-15.09-6.06-15.09-15.21s6-15.39,14.7-15.39C948.46,562,954.19,568.24,954.22,577.3Zm-20.73-2.7h12.87c-.72-3.72-3-5.82-6.33-5.82C936.34,568.78,934.18,571,933.49,574.6Z" transform="translate(219.86 -119.97)" style="fill:#fff"></path><path d="M978.4,569.77H967.87v10.62c0,3.63,1.92,5,4.35,5a11.36,11.36,0,0,0,5.46-1.89l2.88,6.12a16.22,16.22,0,0,1-9.63,3.06c-7.2,0-10.89-4.08-10.89-11.61V569.77h-5.61v-7H960v-8.64h7.83v8.64H978.4Z" transform="translate(219.86 -119.97)" style="fill:#fff"></path><path d="M1023.31,560.47a22.57,22.57,0,0,0-11.91-3.57c-4.71,0-8,1.86-8,5s3.63,4,8.67,4.86l2.37.39c7.5,1.23,13.38,4.44,13.38,11.76,0,9.27-8.16,13.68-17.19,13.68-6.36,0-13.2-1.86-17.7-5.49l4.35-6.75a22.17,22.17,0,0,0,13.38,4.53c4.65,0,8.25-1.83,8.25-5.07,0-2.91-3.06-4-8.91-4.92l-2.67-.42c-7.41-1.17-12.81-4.44-12.81-12,0-8.76,7.8-13.32,16.74-13.32a29.55,29.55,0,0,1,16,4.47Z" transform="translate(219.86 -119.97)" style="fill:#fff"></path><path d="M1062.16,577.33c0,8.73-6.06,15.3-14.07,15.3a10.64,10.64,0,0,1-8.55-3.78v15h-7.8V562.81h7.65V566a10.54,10.54,0,0,1,8.67-4C1056.1,562,1062.16,568.6,1062.16,577.33Zm-23,0c0,4.59,3,8,7.47,8,4.62,0,7.5-3.57,7.5-8s-2.88-8-7.5-8C1042.18,569.32,1039.15,572.74,1039.15,577.33Z" transform="translate(219.86 -119.97)" style="fill:#fff"></path><path d="M1095.19,577.33c0,8.76-6.69,15.3-15.75,15.3s-15.69-6.54-15.69-15.3,6.66-15.3,15.69-15.3S1095.19,568.57,1095.19,577.33Zm-23.46,0c0,4.71,3.3,8,7.71,8a8,8,0,0,0,0-16C1075,569.32,1071.73,572.62,1071.73,577.33Z" transform="translate(219.86 -119.97)" style="fill:#fff"></path><path d="M1119.37,569.77h-10.53v10.62c0,3.63,1.92,5,4.35,5a11.36,11.36,0,0,0,5.46-1.89l2.88,6.12a16.22,16.22,0,0,1-9.63,3.06c-7.2,0-10.89-4.08-10.89-11.61V569.77h-5.61v-7H1101v-8.64h7.83v8.64h10.53Z" transform="translate(219.86 -119.97)" style="fill:#fff"></path><path d="M314.87,291.44l-11.18,28.83.19.19a3.78,3.78,0,0,1,1.5-.63,11.79,11.79,0,0,1,2.65-.24,9.61,9.61,0,0,1,4.82,1.26,9.71,9.71,0,0,1,3.47,3.18,11,11,0,0,1,1.06,2.12,15.91,15.91,0,0,1,.67,2.79c.13,1.16.23,2.62.29,4.39s.1,4,.1,6.7c0,2.25,0,4.1-.1,5.54s-.16,2.66-.29,3.62a13.1,13.1,0,0,1-.72,2.6,17.66,17.66,0,0,1-1.11,2.22,13.3,13.3,0,0,1-5.15,4.92,15.23,15.23,0,0,1-7.28,1.73,14.51,14.51,0,0,1-7.23-1.78,14,14,0,0,1-5.11-4.87,12.3,12.3,0,0,1-1.21-2.22,9.83,9.83,0,0,1-.62-2.6,22.87,22.87,0,0,1-.39-3.62c-.07-1.44-.1-3.29-.1-5.54s0-3.87.1-5.25.16-2.59.29-3.62a15.43,15.43,0,0,1,.58-2.65c.25-.8.54-1.65.86-2.55l12.92-34.52Zm-6.26,41.75a4.67,4.67,0,0,0-1.45-3.57,4.89,4.89,0,0,0-6.75,0,4.66,4.66,0,0,0-1.44,3.57v12.72a4.66,4.66,0,0,0,1.44,3.57,4.89,4.89,0,0,0,6.75,0,4.67,4.67,0,0,0,1.45-3.57Z" transform="translate(219.86 -119.97)" style="fill:#fff"></path><path d="M324.8,360.08l17.26-59.38h-10.8v7.9h-8.68V291.44h29.31v9.84l-16.68,58.8Z" transform="translate(219.86 -119.97)" style="fill:#fff"></path><path d="M356.81,367.22v-17h9.83v9.83Z" transform="translate(219.86 -119.97)" style="fill:#fff"></path><path d="M400.86,291.44v9.26H381.39v18.51a11.05,11.05,0,0,1,3.47-2.27,11.79,11.79,0,0,1,4.72-.91,11.24,11.24,0,0,1,8.15,3q3.13,3,3.13,9.11v17.74a15,15,0,0,1-1.2,6.17,14.59,14.59,0,0,1-3.23,4.63,14.06,14.06,0,0,1-4.68,2.94,15.7,15.7,0,0,1-11.08,0,14.06,14.06,0,0,1-4.68-2.94,14.44,14.44,0,0,1-3.23-4.63,15,15,0,0,1-1.2-6.17V343h9.83v2.51a5.23,5.23,0,0,0,1.4,3.9,4.88,4.88,0,0,0,3.61,1.4,4.34,4.34,0,0,0,3.42-1.35,5.41,5.41,0,0,0,1.21-3.76v-16.1a5,5,0,0,0-1.3-3.47,4.27,4.27,0,0,0-3.33-1.45,4.71,4.71,0,0,0-2.12.44,5.49,5.49,0,0,0-1.45,1,4,4,0,0,0-.86,1.25c-.32.58-.52.93-.58,1.06h-8.68v-37Z" transform="translate(219.86 -119.97)" style="fill:#fff"></path><path d="M405,305.61a15,15,0,0,1,1.2-6.16,14.48,14.48,0,0,1,3.23-4.63,13.74,13.74,0,0,1,4.68-2.94,15.7,15.7,0,0,1,11.08,0,13.74,13.74,0,0,1,4.68,2.94,14.33,14.33,0,0,1,3.23,4.63,15,15,0,0,1,1.21,6.16v40.3a15,15,0,0,1-1.21,6.17,14.44,14.44,0,0,1-3.23,4.63,14.06,14.06,0,0,1-4.68,2.94,15.7,15.7,0,0,1-11.08,0,14.06,14.06,0,0,1-4.68-2.94,14.59,14.59,0,0,1-3.23-4.63,15,15,0,0,1-1.2-6.17Zm9.83,40.3a4.85,4.85,0,0,0,1.35,3.52,5,5,0,0,0,6.94,0,4.85,4.85,0,0,0,1.35-3.52v-40.3a4.84,4.84,0,0,0-1.35-3.51,5,5,0,0,0-6.94,0,4.84,4.84,0,0,0-1.35,3.51Z" transform="translate(219.86 -119.97)" style="fill:#fff"></path><path d="M438.46,305.61a15,15,0,0,1,1.2-6.16,14.48,14.48,0,0,1,3.23-4.63,13.74,13.74,0,0,1,4.68-2.94,15.73,15.73,0,0,1,11.09,0,13.8,13.8,0,0,1,4.67,2.94,14.33,14.33,0,0,1,3.23,4.63,15,15,0,0,1,1.21,6.16v40.3a15,15,0,0,1-1.21,6.17,14.44,14.44,0,0,1-3.23,4.63,14.11,14.11,0,0,1-4.67,2.94,15.73,15.73,0,0,1-11.09,0,14.06,14.06,0,0,1-4.68-2.94,14.59,14.59,0,0,1-3.23-4.63,15,15,0,0,1-1.2-6.17Zm9.83,40.3a4.85,4.85,0,0,0,1.35,3.52,5,5,0,0,0,6.94,0,4.85,4.85,0,0,0,1.35-3.52v-40.3a4.84,4.84,0,0,0-1.35-3.51,5,5,0,0,0-6.94,0,4.84,4.84,0,0,0-1.35,3.51Z" transform="translate(219.86 -119.97)" style="fill:#fff"></path><path d="M300.8,837.08q4.43,0,6.12-1.06c1.12-.71,1.69-2.35,1.69-4.92v-8.87a4.83,4.83,0,0,0-1.3-3.47,4.68,4.68,0,0,0-3.52-1.35,4.14,4.14,0,0,0-3.71,1.64,5.72,5.72,0,0,0-1.11,3.18v5.6h-9.84v-5.69a14.33,14.33,0,0,1,1.16-5.69,13.86,13.86,0,0,1,3.18-4.63,15.9,15.9,0,0,1,4.73-3.08,14.48,14.48,0,0,1,5.78-1.16,12.85,12.85,0,0,1,6.7,1.59,15.43,15.43,0,0,1,4,3.23,21.16,21.16,0,0,1,1.69,2.31,11.51,11.51,0,0,1,1.2,2.8,38.34,38.34,0,0,1,.87,9.45c0,2.38-.05,4.3-.14,5.78a12.13,12.13,0,0,1-.73,3.67,7.34,7.34,0,0,1-1.88,2.6,21.63,21.63,0,0,1-3.32,2.31,19.5,19.5,0,0,1,3.52,2.7,8.09,8.09,0,0,1,1.78,2.89,15.07,15.07,0,0,1,.67,4.1c.07,1.58.1,3.58.1,6,0,2.25-.05,4.11-.14,5.59a29.63,29.63,0,0,1-.44,3.66,11.2,11.2,0,0,1-.77,2.6,15.89,15.89,0,0,1-1.25,2.22,15.41,15.41,0,0,1-4.68,4.48,13.86,13.86,0,0,1-7.47,1.79,17.54,17.54,0,0,1-4.92-.77,13.45,13.45,0,0,1-4.72-2.51,13.7,13.7,0,0,1-3.52-4.53,15.26,15.26,0,0,1-1.4-6.85v-5.59H299v5.11a5.59,5.59,0,0,0,1.3,3.81,4.9,4.9,0,0,0,7,0,5.92,5.92,0,0,0,1.3-4v-9.83q0-4.05-1.55-5.31a4.28,4.28,0,0,0-2.36-1,31.46,31.46,0,0,0-3.9-.19Z" transform="translate(219.86 -119.97)" style="fill:#fff"></path><path d="M322.59,826.09c0-1.86.06-3.45.19-4.77a15.18,15.18,0,0,1,1.78-6,19.14,19.14,0,0,1,1.59-2.41A13.29,13.29,0,0,1,331,809a14.74,14.74,0,0,1,12.54,0,13.37,13.37,0,0,1,4.82,3.9,23.86,23.86,0,0,1,1.63,2.41,13.62,13.62,0,0,1,1.16,2.61,14.3,14.3,0,0,1,.63,3.42c.09,1.32.14,2.91.14,4.77,0,2.06,0,3.79-.09,5.21a16.4,16.4,0,0,1-.58,3.76,8.9,8.9,0,0,1-1.5,2.94,18.56,18.56,0,0,1-2.74,2.74,14.64,14.64,0,0,1,2.74,2.7,9.17,9.17,0,0,1,1.5,3.18,21.45,21.45,0,0,1,.58,4.49c.06,1.77.09,3.93.09,6.5,0,2.13-.05,3.88-.14,5.26a30.74,30.74,0,0,1-.44,3.61,9.67,9.67,0,0,1-.82,2.61,19.72,19.72,0,0,1-1.3,2.21,13.7,13.7,0,0,1-4.62,4.29,15.9,15.9,0,0,1-14.66,0,13.83,13.83,0,0,1-4.63-4.29,23.34,23.34,0,0,1-1.3-2.21,10.43,10.43,0,0,1-.82-2.61,33.24,33.24,0,0,1-.43-3.61c-.1-1.38-.14-3.13-.14-5.26,0-2.57,0-4.73.09-6.5a20.81,20.81,0,0,1,.58-4.49,9.16,9.16,0,0,1,1.49-3.18,15,15,0,0,1,2.75-2.7,19.19,19.19,0,0,1-2.75-2.74,8.87,8.87,0,0,1-1.49-2.94,15.87,15.87,0,0,1-.58-3.76C322.62,829.88,322.59,828.15,322.59,826.09Zm19.47-3.86a4.55,4.55,0,0,0-1.45-3.42,4.77,4.77,0,0,0-6.75,0,4.58,4.58,0,0,0-1.44,3.42v10a4.58,4.58,0,0,0,1.44,3.42,4.77,4.77,0,0,0,6.75,0,4.55,4.55,0,0,0,1.45-3.42Zm0,27a4.59,4.59,0,0,0-1.45-3.43,4.79,4.79,0,0,0-6.75,0,4.61,4.61,0,0,0-1.44,3.43v13.49a4.61,4.61,0,0,0,1.44,3.43,4.79,4.79,0,0,0,6.75,0,4.59,4.59,0,0,0,1.45-3.43Z" transform="translate(219.86 -119.97)" style="fill:#fff"></path><path d="M356.81,883.93V867h9.83v9.83Z" transform="translate(219.86 -119.97)" style="fill:#fff"></path><path d="M371.56,876.8v-9.26l17.73-33.45a12.24,12.24,0,0,0,1.55-4.39A46.66,46.66,0,0,0,391,825c0-.83,0-1.72,0-2.65a6.45,6.45,0,0,0-.53-2.46,4.51,4.51,0,0,0-1.44-1.78,4.65,4.65,0,0,0-2.8-.73,4.45,4.45,0,0,0-4.82,4.92v5.59h-9.83v-5.4a14.55,14.55,0,0,1,1.15-5.78,15,15,0,0,1,3.18-4.72,14.44,14.44,0,0,1,4.63-3.23,13.94,13.94,0,0,1,5.79-1.21,14.42,14.42,0,0,1,6.6,1.4,13.13,13.13,0,0,1,4.58,3.81,16.38,16.38,0,0,1,2.55,5.49,25.3,25.3,0,0,1,.82,6.56c0,1.67,0,3.07-.09,4.19a26.92,26.92,0,0,1-.39,3.23,13.85,13.85,0,0,1-1,3.08c-.45,1-1.06,2.29-1.83,3.76L383.13,867h17.73v9.83Z" transform="translate(219.86 -119.97)" style="fill:#fff"></path><path d="M405,822.33a15.06,15.06,0,0,1,1.2-6.17,14.59,14.59,0,0,1,3.23-4.63,14.06,14.06,0,0,1,4.68-2.94,15.73,15.73,0,0,1,11.09,0,14.11,14.11,0,0,1,4.67,2.94,14.44,14.44,0,0,1,3.23,4.63,15.06,15.06,0,0,1,1.21,6.17v40.3a15.06,15.06,0,0,1-1.21,6.17,14.28,14.28,0,0,1-3.23,4.62,14,14,0,0,1-4.67,3,15.73,15.73,0,0,1-11.09,0,13.92,13.92,0,0,1-4.68-3,14.44,14.44,0,0,1-3.23-4.62,15.06,15.06,0,0,1-1.2-6.17Zm9.83,40.3a4.88,4.88,0,0,0,1.35,3.52,5,5,0,0,0,6.94,0,4.88,4.88,0,0,0,1.35-3.52v-40.3a4.87,4.87,0,0,0-1.35-3.52,5,5,0,0,0-6.94,0,4.87,4.87,0,0,0-1.35,3.52Z" transform="translate(219.86 -119.97)" style="fill:#fff"></path><path d="M438.46,822.33a15.06,15.06,0,0,1,1.2-6.17,14.59,14.59,0,0,1,3.23-4.63,14.06,14.06,0,0,1,4.68-2.94,15.73,15.73,0,0,1,11.09,0,14.11,14.11,0,0,1,4.67,2.94,14.44,14.44,0,0,1,3.23,4.63,15.06,15.06,0,0,1,1.21,6.17v40.3a15.06,15.06,0,0,1-1.21,6.17,14.28,14.28,0,0,1-3.23,4.62,14,14,0,0,1-4.67,3,15.73,15.73,0,0,1-11.09,0,13.92,13.92,0,0,1-4.68-3,14.44,14.44,0,0,1-3.23-4.62,15.06,15.06,0,0,1-1.2-6.17Zm9.83,40.3a4.88,4.88,0,0,0,1.35,3.52,5,5,0,0,0,6.94,0,4.88,4.88,0,0,0,1.35-3.52v-40.3a4.87,4.87,0,0,0-1.35-3.52,5,5,0,0,0-6.94,0,4.87,4.87,0,0,0-1.35,3.52Z" transform="translate(219.86 -119.97)" style="fill:#fff"></path><path d="M834.93,241.89c0,7.84-5.3,11.74-11.88,11.74s-11.86-3.9-11.86-11.74V224h2.56V241.7c0,6.46,4,9.47,9.3,9.47s9.3-3,9.3-9.47V224h2.58Z" transform="translate(219.86 -119.97)" style="fill:#fff"></path><path d="M853.74,237.35a12.4,12.4,0,0,0-6.68-2c-3.08,0-5.24,1.34-5.24,3.56,0,1.82,1.44,2.83,4.48,3.18l2.52.3c4.1.48,6.47,2.18,6.47,5.3,0,3.73-3.42,5.91-8.49,5.91a13.4,13.4,0,0,1-8.1-2.52l1.11-1.78a10.75,10.75,0,0,0,7,2.22c3.56,0,6-1.21,6-3.69,0-1.82-1.51-2.93-4.55-3.26l-2.53-.28c-4.47-.5-6.39-2.45-6.39-5.25,0-3.63,3.12-5.79,7.67-5.79a13.78,13.78,0,0,1,7.73,2.22Z" transform="translate(219.86 -119.97)" style="fill:#fff"></path><path d="M876.34,243.34c0,.36,0,.69,0,1H859.77a7.37,7.37,0,0,0,7.63,7.23,9.19,9.19,0,0,0,6.66-2.81l1.28,1.64a10.66,10.66,0,0,1-8.09,3.25c-5.76,0-9.91-4.15-9.91-10.17s4.21-10.18,9.76-10.18C872.36,233.28,876.28,237.45,876.34,243.34Zm-16.53-1.07h14.1c-.35-4.08-3.14-6.87-6.85-6.87C863.06,235.4,860.27,238.27,859.81,242.27Z" transform="translate(219.86 -119.97)" style="fill:#fff"></path><path d="M892.41,234l-.61,2.32a7.77,7.77,0,0,0-3.5-.8c-3.29,0-5.63,2.67-5.63,6.65v11.12H880.3V233.6h2.35V237a6.81,6.81,0,0,1,6.07-3.69A8.14,8.14,0,0,1,892.41,234Z" transform="translate(219.86 -119.97)" style="fill:#fff"></path><path d="M908.08,237.35a12.41,12.41,0,0,0-6.69-2c-3.08,0-5.23,1.34-5.23,3.56,0,1.82,1.44,2.83,4.48,3.18l2.51.3c4.11.48,6.48,2.18,6.48,5.3,0,3.73-3.42,5.91-8.49,5.91a13.4,13.4,0,0,1-8.1-2.52l1.11-1.78a10.74,10.74,0,0,0,7,2.22c3.57,0,6-1.21,6-3.69,0-1.82-1.51-2.93-4.55-3.26l-2.53-.28c-4.47-.5-6.39-2.45-6.39-5.25,0-3.63,3.12-5.79,7.66-5.79a13.73,13.73,0,0,1,7.73,2.22Z" transform="translate(219.86 -119.97)" style="fill:#fff"></path><path d="M944,250.88l6.69-17.28h2.47l-7.73,19.71h-2.81l-6.49-17.22-6.46,17.22h-2.78l-7.73-19.71h2.53l6.66,17.26,6.48-17.26h2.68Z" transform="translate(219.86 -119.97)" style="fill:#fff"></path><path d="M958.29,237a8,8,0,0,1,7-3.73c4.94,0,8.29,3.06,8.29,7.94v12.09h-2.38V242c0-4-2.31-6.42-6.33-6.42a6.37,6.37,0,0,0-6.6,6.54v11.23H955.9V223.14h2.39Z" transform="translate(219.86 -119.97)" style="fill:#fff"></path><path d="M997.82,243.46a10.25,10.25,0,1,1-10.26-10.18A10,10,0,0,1,997.82,243.46Zm-18.06,0a7.81,7.81,0,1,0,7.8-7.94A7.66,7.66,0,0,0,979.76,243.46Z" transform="translate(219.86 -119.97)" style="fill:#fff"></path><path d="M831.1,287.46a9.8,9.8,0,0,1-9.87,10.16,8.87,8.87,0,0,1-7.78-4.06v3.75h-2.38V267.14h2.38v14.21a8.92,8.92,0,0,1,7.78-4.07A9.82,9.82,0,0,1,831.1,287.46Zm-17.81,0a7.68,7.68,0,1,0,7.66-7.94A7.57,7.57,0,0,0,813.29,287.46Z" transform="translate(219.86 -119.97)" style="fill:#fff"></path><path d="M853.51,297.31h-2.37v-3.79a8.9,8.9,0,0,1-7.81,4.1,10.18,10.18,0,0,1,0-20.34,9,9,0,0,1,7.81,4.11V277.6h2.37Zm-17.6-9.85a7.68,7.68,0,1,0,7.69-7.94A7.62,7.62,0,0,0,835.91,287.46Z" transform="translate(219.86 -119.97)" style="fill:#fff"></path><path d="M876.72,285.22v12.09h-2.39V286c0-4-2.3-6.41-6.33-6.41a6.37,6.37,0,0,0-6.6,6.54v11.23H859V277.6h2.36v3.45a7.92,7.92,0,0,1,7-3.77C873.37,277.28,876.72,280.34,876.72,285.22Z" transform="translate(219.86 -119.97)" style="fill:#fff"></path><path d="M884.41,285.91h3.2l8.3-8.31h3l-9.38,9.3,9.55,10.41h-3l-8.44-9.24h-3.2v9.24H882V267.14h2.39Z" transform="translate(219.86 -119.97)" style="fill:#fff"></path><path d="M929.47,287.46a10.25,10.25,0,1,1-10.27-10.18A10,10,0,0,1,929.47,287.46Zm-18.06,0a7.81,7.81,0,1,0,7.79-7.94A7.65,7.65,0,0,0,911.41,287.46Z" transform="translate(219.86 -119.97)" style="fill:#fff"></path><path d="M951.13,285.22v12.09h-2.39V286c0-4-2.31-6.41-6.33-6.41a6.37,6.37,0,0,0-6.6,6.54v11.23h-2.39V277.6h2.37v3.45a7.92,7.92,0,0,1,7-3.77C947.78,277.28,951.13,280.34,951.13,285.22Z" transform="translate(219.86 -119.97)" style="fill:#fff"></path><path d="M958.81,297.31h-2.38V267.14h2.38Z" transform="translate(219.86 -119.97)" style="fill:#fff"></path><path d="M967.23,270.51a1.71,1.71,0,1,1-1.71-1.73A1.71,1.71,0,0,1,967.23,270.51Zm-.52,26.8h-2.39V277.6h2.39Z" transform="translate(219.86 -119.97)" style="fill:#fff"></path><path d="M989.92,285.22v12.09h-2.38V286c0-4-2.31-6.41-6.33-6.41a6.37,6.37,0,0,0-6.6,6.54v11.23h-2.39V277.6h2.37v3.45a7.91,7.91,0,0,1,7-3.77C986.57,277.28,989.92,280.34,989.92,285.22Z" transform="translate(219.86 -119.97)" style="fill:#fff"></path><path d="M1012.65,287.34c0,.35,0,.69,0,1H996.08a7.37,7.37,0,0,0,7.63,7.23,9.19,9.19,0,0,0,6.66-2.81l1.28,1.64a10.65,10.65,0,0,1-8.09,3.24c-5.76,0-9.91-4.14-9.91-10.16s4.21-10.18,9.76-10.18C1008.67,277.28,1012.59,281.45,1012.65,287.34Zm-16.53-1.07h14.1c-.35-4.09-3.14-6.87-6.85-6.87C999.37,279.4,996.58,282.27,996.12,286.27Z" transform="translate(219.86 -119.97)" style="fill:#fff"></path><path d="M833.93,876.4c0,7.83-5.3,11.73-11.88,11.73s-11.86-3.9-11.86-11.73V858.48h2.56v17.73c0,6.45,4,9.47,9.3,9.47s9.3-3,9.3-9.47V858.48h2.58Z" transform="translate(219.86 -119.97)" style="fill:#fff"></path><path d="M852.74,871.85a12.48,12.48,0,0,0-6.68-2c-3.08,0-5.24,1.34-5.24,3.56,0,1.82,1.44,2.83,4.48,3.19l2.52.29c4.1.48,6.47,2.18,6.47,5.3,0,3.73-3.42,5.91-8.49,5.91a13.4,13.4,0,0,1-8.1-2.52l1.11-1.78a10.69,10.69,0,0,0,7,2.22c3.56,0,6-1.21,6-3.68,0-1.83-1.51-2.94-4.55-3.27l-2.53-.27c-4.47-.51-6.39-2.46-6.39-5.26,0-3.63,3.12-5.79,7.67-5.79a13.7,13.7,0,0,1,7.73,2.23Z" transform="translate(219.86 -119.97)" style="fill:#fff"></path><path d="M875.34,877.84c0,.36,0,.69,0,1H858.77a7.37,7.37,0,0,0,7.63,7.22,9.22,9.22,0,0,0,6.66-2.8l1.28,1.63a10.66,10.66,0,0,1-8.09,3.25c-5.76,0-9.91-4.15-9.91-10.16s4.21-10.19,9.76-10.19C871.36,867.78,875.28,872,875.34,877.84Zm-16.53-1.07h14.1c-.35-4.08-3.14-6.87-6.85-6.87C862.06,869.9,859.27,872.77,858.81,876.77Z" transform="translate(219.86 -119.97)" style="fill:#fff"></path><path d="M891.41,868.52l-.61,2.32a7.76,7.76,0,0,0-3.5-.79c-3.29,0-5.63,2.66-5.63,6.64v11.12H879.3V868.1h2.35v3.35a6.83,6.83,0,0,1,6.07-3.69A8.14,8.14,0,0,1,891.41,868.52Z" transform="translate(219.86 -119.97)" style="fill:#fff"></path><path d="M907.08,871.85a12.49,12.49,0,0,0-6.69-2c-3.08,0-5.23,1.34-5.23,3.56,0,1.82,1.44,2.83,4.48,3.19l2.51.29c4.11.48,6.48,2.18,6.48,5.3,0,3.73-3.42,5.91-8.49,5.91a13.4,13.4,0,0,1-8.1-2.52l1.11-1.78a10.68,10.68,0,0,0,7,2.22c3.57,0,6-1.21,6-3.68,0-1.83-1.51-2.94-4.55-3.27l-2.53-.27c-4.47-.51-6.39-2.46-6.39-5.26,0-3.63,3.12-5.79,7.66-5.79A13.65,13.65,0,0,1,908.1,870Z" transform="translate(219.86 -119.97)" style="fill:#fff"></path><path d="M939.72,887.81h-2.37V884a8.91,8.91,0,0,1-7.82,4.11,10.18,10.18,0,0,1,0-20.35,9,9,0,0,1,7.82,4.11V868.1h2.37ZM922.12,878a7.68,7.68,0,1,0,7.69-7.94A7.62,7.62,0,0,0,922.12,878Z" transform="translate(219.86 -119.97)" style="fill:#fff"></path><path d="M961.12,872V868.1h2.39v18.37c0,6.56-4.54,10-10.35,10a12.54,12.54,0,0,1-8.29-2.84l1.21-1.74a11.47,11.47,0,0,0,7.08,2.41c4.42,0,8-2.54,8-7.69v-2.81a8.59,8.59,0,0,1-7.68,4.15c-5.56,0-9.79-4.17-9.79-10.08s4.23-10.06,9.79-10.06A8.61,8.61,0,0,1,961.12,872Zm-15,5.89a7.62,7.62,0,1,0,7.61-7.81A7.51,7.51,0,0,0,946.08,877.84Z" transform="translate(219.86 -119.97)" style="fill:#fff"></path><path d="M986.45,877.84c0,.36,0,.69,0,1H969.88a7.37,7.37,0,0,0,7.63,7.22,9.22,9.22,0,0,0,6.66-2.8l1.28,1.63a10.66,10.66,0,0,1-8.09,3.25c-5.76,0-9.91-4.15-9.91-10.16s4.21-10.19,9.76-10.19C982.47,867.78,986.39,872,986.45,877.84Zm-16.53-1.07H984c-.36-4.08-3.14-6.87-6.85-6.87C973.17,869.9,970.38,872.77,969.92,876.77Z" transform="translate(219.86 -119.97)" style="fill:#fff"></path><path d="M1006.5,871.89V857.64h2.37v30.17h-2.37V884a8.91,8.91,0,0,1-7.82,4.11,10.18,10.18,0,0,1,0-20.35A9,9,0,0,1,1006.5,871.89ZM991.27,878A7.68,7.68,0,1,0,999,870,7.62,7.62,0,0,0,991.27,878Z" transform="translate(219.86 -119.97)" style="fill:#fff"></path><path d="M830.1,922a9.8,9.8,0,0,1-9.87,10.16,8.88,8.88,0,0,1-7.78-4.07v3.75h-2.38V901.64h2.38v14.21a8.92,8.92,0,0,1,7.78-4.07A9.82,9.82,0,0,1,830.1,922Zm-17.81,0A7.68,7.68,0,1,0,820,914,7.57,7.57,0,0,0,812.29,922Z" transform="translate(219.86 -119.97)" style="fill:#fff"></path><path d="M851.48,921.84c0,.36,0,.69,0,1H834.91a7.37,7.37,0,0,0,7.63,7.22,9.19,9.19,0,0,0,6.66-2.81l1.28,1.64a10.66,10.66,0,0,1-8.09,3.25c-5.76,0-9.91-4.15-9.91-10.16s4.21-10.19,9.76-10.19C847.5,911.78,851.42,916,851.48,921.84ZM835,920.77h14.1c-.35-4.08-3.14-6.87-6.85-6.87C838.2,913.9,835.41,916.77,835,920.77Z" transform="translate(219.86 -119.97)" style="fill:#fff"></path><path d="M868.58,914.28h-9.1V925c0,3.34,1.76,4.86,4.38,4.86a7.06,7.06,0,0,0,4.4-1.5l1.13,1.78a8.81,8.81,0,0,1-5.72,2c-4.1,0-6.57-2.29-6.57-7.06V914.28h-4.53V912.1h4.53v-6.43h2.38v6.43h9.1Z" transform="translate(219.86 -119.97)" style="fill:#fff"></path><path d="M894.18,929.38l6.68-17.28h2.47l-7.73,19.71h-2.81l-6.49-17.22-6.45,17.22h-2.79l-7.73-19.71h2.53l6.67,17.26L885,912.1h2.68Z" transform="translate(219.86 -119.97)" style="fill:#fff"></path><path d="M923.44,921.84c0,.36,0,.69,0,1H906.87a7.36,7.36,0,0,0,7.62,7.22,9.2,9.2,0,0,0,6.67-2.81l1.27,1.64a10.63,10.63,0,0,1-8.08,3.25c-5.76,0-9.91-4.15-9.91-10.16s4.21-10.19,9.76-10.19C919.46,911.78,923.38,916,923.44,921.84Zm-16.53-1.07H921c-.36-4.08-3.14-6.87-6.85-6.87C910.16,913.9,907.37,916.77,906.91,920.77Z" transform="translate(219.86 -119.97)" style="fill:#fff"></path><path d="M944.83,921.84c0,.36,0,.69,0,1H928.26a7.36,7.36,0,0,0,7.62,7.22,9.17,9.17,0,0,0,6.66-2.81l1.28,1.64a10.65,10.65,0,0,1-8.09,3.25c-5.76,0-9.91-4.15-9.91-10.16s4.22-10.19,9.77-10.19C940.85,911.78,944.76,916,944.83,921.84Zm-16.53-1.07h14.1c-.36-4.08-3.15-6.87-6.85-6.87C931.54,913.9,928.76,916.77,928.3,920.77Z" transform="translate(219.86 -119.97)" style="fill:#fff"></path><path d="M966.49,919.72v12.09H964.1V920.46c0-4-2.31-6.41-6.33-6.41a6.37,6.37,0,0,0-6.6,6.53v11.23h-2.39V912.1h2.37v3.45a7.92,7.92,0,0,1,7-3.77C963.14,911.78,966.49,914.84,966.49,919.72Z" transform="translate(219.86 -119.97)" style="fill:#fff"></path><path d="M978.85,907a9.87,9.87,0,0,1,8.73-4.84c5.89,0,9.18,3.89,9.18,8.88,0,3.6-2,6.26-4,8.32l-9.6,10.1h14.63v2.34H979.56v-1.93l11.35-11.94c1.89-2,3.27-4.15,3.27-6.89a6.23,6.23,0,0,0-6.66-6.54,7.83,7.83,0,0,0-6.89,3.94Z" transform="translate(219.86 -119.97)" style="fill:#fff"></path><path d="M1024.56,917.15c0,9.34-5.39,15-12,15s-12-5.64-12-15,5.38-15,12-15S1024.56,907.78,1024.56,917.15Zm-21.37,0c0,8,4.23,12.61,9.4,12.61s9.39-4.57,9.39-12.61-4.21-12.62-9.39-12.62S1003.19,909.08,1003.19,917.15Z" transform="translate(219.86 -119.97)" style="fill:#fff"></path><path d="M1039.76,921.86h-11.35V919.7h11.35Z" transform="translate(219.86 -119.97)" style="fill:#fff"></path><path d="M1059.77,910a7,7,0,0,1-5,7c3.31,1,5.66,3.48,5.66,7,0,5.49-4.84,8.11-9.91,8.11a12.15,12.15,0,0,1-9.18-3.67l1.57-1.65a10.57,10.57,0,0,0,7.55,3c3.91,0,7.39-1.88,7.39-5.91,0-3.64-3.39-5.78-7.52-5.78h-4v-2.26h4c3.86,0,6.87-2,6.87-5.76,0-3.37-3-5.64-7.1-5.64a8.31,8.31,0,0,0-6.77,3.44l-1.8-1.51a10.29,10.29,0,0,1,8.72-4.23C1055.92,902.17,1059.77,905.39,1059.77,910Z" transform="translate(219.86 -119.97)" style="fill:#fff"></path><path d="M1069,914.07a10.05,10.05,0,0,1,4-.82c5.78,0,10,4,10,9.45s-4.34,9.43-10.24,9.43-10.27-4-10.27-9.43a11,11,0,0,1,1.91-6l8.88-14.27h3ZM1065,922.7c0,4.15,3.26,7.14,7.73,7.14s7.71-3,7.71-7.14-3.27-7.17-7.71-7.17S1065,918.55,1065,922.7Z" transform="translate(219.86 -119.97)" style="fill:#fff"></path><circle cx="989.2" cy="454.27" r="14.95"></circle><path d="M769.34,594.18a20,20,0,1,1,19.94-19.95A20,20,0,0,1,769.34,594.18Zm0-29.9a10,10,0,1,0,9.94,10A10,10,0,0,0,769.34,564.28Z" transform="translate(219.86 -119.97)" style="fill:#fff"></path><rect x="650.95" y="452.27" width="321.25" height="4" style="fill:#fff"></rect></svg> 