<?xml version="1.0" encoding="UTF-8"?> <!-- Generator: Adobe Illustrator 16.0.0, SVG Export Plug-In . SVG Version: 6.00 Build 0) --> <svg xmlns="http://www.w3.org/2000/svg" xmlns:xlink="http://www.w3.org/1999/xlink" id="Layer_1" x="0px" y="0px" width="598.572px" height="538.893px" viewBox="-3.308 150.365 598.572 538.893" xml:space="preserve"> <title>pharmaceutical marketing icon design</title> <linearGradient id="SVGID_1_" gradientUnits="userSpaceOnUse" x1="52.7908" y1="742.5674" x2="102.3028" y2="783.079" gradientTransform="matrix(6.9332 0 0 -6.9332 -289.5253 5670.6089)"> <stop offset="0" style="stop-color:#EC323F"></stop> <stop offset="0.11" style="stop-color:#EC3A3D"></stop> <stop offset="0.29" style="stop-color:#EB5139"></stop> <stop offset="0.51" style="stop-color:#EA7632"></stop> <stop offset="0.52" style="stop-color:#EA7932"></stop> <stop offset="0.68" style="stop-color:#E9982D"></stop> <stop offset="1" style="stop-color:#E7DF20"></stop> </linearGradient> <path fill="url(#SVGID_1_)" d="M367.248,556.419c-34.11,0-92.002-3.675-124.033-61.15c0,0,53.662,3.536,79.176-18.373 c-15.199-10.694-28.788-23.513-40.351-38.062c-55.004-71.136-56.332-170.074-3.259-242.661 c-67.009-63.486-172.795-60.63-236.281,6.378s-60.631,172.796,6.378,236.282l250.426,250.425L433.53,548.445 C411.867,553.926,389.592,556.605,367.248,556.419z"></path> <linearGradient id="SVGID_2_" gradientUnits="userSpaceOnUse" x1="79.4275" y1="749.2031" x2="123.8775" y2="789.7031" gradientTransform="matrix(6.9332 0 0 -6.9332 -289.5253 5670.6089)"> <stop offset="0" style="stop-color:#3F58A6"></stop> <stop offset="0.12" style="stop-color:#3C69AE"></stop> <stop offset="0.56" style="stop-color:#31A2CA"></stop> <stop offset="0.74" style="stop-color:#3FB1CA"></stop> <stop offset="1" style="stop-color:#50C3CB"></stop> </linearGradient> <path fill="url(#SVGID_2_)" d="M546.956,429.195l2.08-2.427c61.637-61.761,61.637-161.764,0-223.524 c-61.922-61.651-162.098-61.433-223.749,0.489c-0.319,0.321-0.638,0.644-0.955,0.967c-54.815,57.499-59.298,146.456-10.538,209.173 c15.358,19.345,35.11,34.746,57.614,44.927l22.048,12.133c0,0-30.575,44.373-82.297,45.136 C437.274,544.009,543.49,433.979,546.956,429.195z"></path> </svg> 