<?xml version="1.0" encoding="UTF-8"?> <svg xmlns="http://www.w3.org/2000/svg" id="Layer_1" data-name="Layer 1" viewBox="0 0 526.17 730.01"><title>Reach_Graphic</title><polyline points="464.33 579.63 464.33 617.99 498.5 617.99 498.5 579.63" style="fill:none"></polyline><path d="M3549.35,670.55v41.89h15.73q7.32,0,11.66-2a15.92,15.92,0,0,0,6.78-5.83,26.58,26.58,0,0,0,3-9.36,90.16,90.16,0,0,0,.82-12.88,93.77,93.77,0,0,0-.68-11.79" transform="translate(-3521.68 -90.92)" style="fill:none"></path><polygon points="449.27 0 437.71 0 437.71 533.24 498.5 579.63 498.5 617.99 464.33 617.99 464.33 579.63 423.43 533.24 423.43 0 411.87 0 411.87 533.24 436.66 579.63 436.66 728.38 464.33 728.38 464.33 642.4 498.5 642.4 498.5 728.38 526.16 728.38 526.16 579.63 449.27 533.24 449.27 0"></polygon><path d="M3908.17,773.74a24.05,24.05,0,0,1-1.63,9.49,16.43,16.43,0,0,1-4.07,6,17.29,17.29,0,0,1-5.83,3.12,20.23,20.23,0,0,1-5.83.95q-9.49,0-13.15-5.7t-3.67-14.1V674.74c0-1.45.07-2.85.18-4.19l24.2-46.38V90.92h-11.64V624.17l-40.4,46.38V775.37q0,13.29,4.2,21.83a42,42,0,0,0,10.72,14,37.72,37.72,0,0,0,14.64,7.59,61.82,61.82,0,0,0,16,2.17,41,41,0,0,0,17.23-3.66,45,45,0,0,0,14-9.9,46.81,46.81,0,0,0,9.36-14.24,43,43,0,0,0,3.39-17V764.25h-27.66Z" transform="translate(-3521.68 -90.92)"></path><path d="M3924.14,624.17V90.92h-11.59V624.17l-4.45,46.38c0,.58.07,1.16.07,1.75v9.22h27.66v-11Z" transform="translate(-3521.68 -90.92)"></path><path d="M3867.86,90.92H3850V624.17l-91.64,46.38L3725.09,819.3h27.67l8.13-41.49h37.7l8.14,41.49h27.67l-33.22-148.75,66.68-46.38ZM3765.78,751.77l13.56-70h.54l13.56,70Z" transform="translate(-3521.68 -90.92)"></path><polygon points="289.22 533.24 289.22 0 277.66 0 277.66 533.24 115.54 579.63 115.54 728.38 197.99 728.38 197.99 700.72 143.2 700.72 143.2 644.03 190.94 644.03 190.94 617.99 143.2 617.99 143.2 579.63 289.22 533.24"></polygon><path d="M3789.77,90.92h-11.56V624.17l-191.57,46.38a93.77,93.77,0,0,1,.68,11.79,90.16,90.16,0,0,1-.82,12.88,26.58,26.58,0,0,1-3,9.36,15.92,15.92,0,0,1-6.78,5.83q-4.35,2-11.66,2h-15.73V670.55l213.26-46.38V90.92h-11.56V624.17l-229.37,46.38V819.3h27.67V736.85h16.54l25.77,82.45H3621l-29.84-88.14q13.29-7.33,18.58-19.26t5.29-29a111.28,111.28,0,0,0-.66-12.33l175.45-46.38Z" transform="translate(-3521.68 -90.92)"></path></svg> 