<?xml version="1.0" encoding="UTF-8"?> <!-- Generator: Adobe Illustrator 16.0.0, SVG Export Plug-In . SVG Version: 6.00 Build 0) --> <svg xmlns="http://www.w3.org/2000/svg" xmlns:xlink="http://www.w3.org/1999/xlink" id="Layer_1" x="0px" y="0px" width="135.367px" height="144.98px" viewBox="0 0 135.367 144.98" xml:space="preserve"> <g> <path fill="#FFFFFF" d="M0,30.638c0-4.806,0.832-9.077,2.503-12.816c1.668-3.736,3.905-6.94,6.708-9.612 c2.804-2.669,6.039-4.706,9.712-6.107C22.594,0.701,26.433,0,30.438,0s7.841,0.701,11.514,2.103 c3.67,1.402,6.909,3.438,9.712,6.107c2.803,2.672,5.038,5.876,6.708,9.612c1.668,3.739,2.503,8.01,2.503,12.816v83.705 c0,4.806-0.835,9.08-2.503,12.815c-1.67,3.739-3.905,6.943-6.708,9.612c-2.804,2.673-6.042,4.706-9.712,6.107 c-3.673,1.401-7.509,2.103-11.514,2.103s-7.844-0.701-11.515-2.103c-3.673-1.401-6.908-3.435-9.712-6.107 c-2.804-2.669-5.041-5.873-6.708-9.612C0.832,123.423,0,119.148,0,114.343V30.638z M20.425,114.343c0,2.938,0.933,5.375,2.804,7.31 c1.868,1.936,4.271,2.902,7.209,2.902c2.935,0,5.338-0.967,7.209-2.902c1.868-1.935,2.803-4.371,2.803-7.31V30.638 c0-2.935-0.936-5.373-2.803-7.309c-1.871-1.934-4.274-2.904-7.209-2.904c-2.938,0-5.341,0.97-7.209,2.904 c-1.871,1.937-2.804,4.374-2.804,7.309V114.343z"></path> <path fill="#FFFFFF" d="M98.722,61.276c6.139,0,10.379-0.732,12.716-2.203c2.334-1.468,3.504-4.872,3.504-10.213V30.438 c0-2.935-0.9-5.338-2.703-7.209c-1.802-1.868-4.239-2.804-7.309-2.804c-3.604,0-6.177,1.136-7.709,3.404 c-1.537,2.271-2.303,4.474-2.303,6.608v11.614H74.492V30.237c0-4.136,0.801-8.076,2.403-11.814c1.602-3.736,3.805-6.94,6.608-9.612 c2.803-2.669,6.073-4.806,9.812-6.408C97.051,0.801,101.056,0,105.33,0c5.607,0,10.244,1.101,13.918,3.304 c3.67,2.203,6.439,4.44,8.31,6.708c1.333,1.602,2.503,3.204,3.505,4.806s1.834,3.539,2.502,5.807 c1.203,4.406,1.803,10.948,1.803,19.625c0,4.94-0.1,8.946-0.301,12.015c-0.199,3.072-0.699,5.607-1.502,7.609 c-0.936,2.137-2.236,3.939-3.904,5.407c-1.67,1.471-3.973,3.073-6.908,4.806c3.204,2.002,5.639,3.874,7.309,5.607 c1.668,1.736,2.904,3.739,3.705,6.007c0.801,2.403,1.268,5.241,1.402,8.511c0.131,3.273,0.199,7.444,0.199,12.516 c0,4.674-0.1,8.545-0.301,11.614c-0.199,3.072-0.5,5.606-0.9,7.609c-0.4,2.137-0.936,3.938-1.602,5.407 c-0.67,1.471-1.537,3.003-2.604,4.605c-2.537,3.738-5.775,6.843-9.713,9.312c-3.938,2.472-9.111,3.704-15.519,3.704 c-3.204,0-6.608-0.535-10.213-1.602s-6.877-2.804-9.812-5.207c-2.938-2.402-5.375-5.537-7.31-9.411 c-1.937-3.87-2.903-8.61-2.903-14.218v-11.615h20.425v10.613c0,3.205,0.901,5.842,2.704,7.91c1.802,2.072,4.236,3.104,7.309,3.104 c3.069,0,5.507-1.031,7.309-3.104c1.803-2.068,2.703-4.837,2.703-8.311V92.715c0-5.607-1.069-9.277-3.203-11.014 c-1.201-1.067-2.838-1.733-4.906-2.002c-2.071-0.266-4.775-0.4-8.11-0.4V61.276z"></path> </g> </svg> 