<?xml version="1.0" encoding="UTF-8"?> <!-- Generator: Adobe Illustrator 16.0.0, SVG Export Plug-In . SVG Version: 6.00 Build 0) --> <svg xmlns="http://www.w3.org/2000/svg" xmlns:xlink="http://www.w3.org/1999/xlink" id="Layer_1" x="0px" y="0px" width="119.147px" height="144.981px" viewBox="0 0 119.147 144.981" xml:space="preserve"> <g> <path fill="#FFFFFF" d="M0,30.638c0-4.806,0.832-9.077,2.503-12.816c1.668-3.736,3.905-6.94,6.708-9.612 c2.804-2.669,6.039-4.706,9.712-6.107C22.594,0.701,26.433,0,30.438,0s7.841,0.701,11.514,2.103 c3.67,1.402,6.909,3.438,9.712,6.107c2.803,2.672,5.038,5.876,6.708,9.612c1.668,3.739,2.503,8.01,2.503,12.816v83.705 c0,4.806-0.835,9.08-2.503,12.816c-1.67,3.739-3.905,6.943-6.708,9.612c-2.804,2.672-6.042,4.706-9.712,6.107 c-3.673,1.402-7.509,2.103-11.514,2.103s-7.844-0.701-11.515-2.103c-3.673-1.401-6.908-3.435-9.712-6.107 c-2.804-2.669-5.041-5.873-6.708-9.612C0.832,123.423,0,119.148,0,114.343V30.638z M20.425,114.343 c0,2.938,0.933,5.375,2.804,7.309c1.868,1.937,4.271,2.903,7.209,2.903c2.935,0,5.338-0.967,7.209-2.903 c1.868-1.934,2.803-4.371,2.803-7.309V30.638c0-2.935-0.936-5.373-2.803-7.309c-1.871-1.934-4.274-2.904-7.209-2.904 c-2.938,0-5.341,0.97-7.209,2.904c-1.871,1.937-2.804,4.374-2.804,7.309V114.343z"></path> <path fill="#FFFFFF" d="M98.722,143.779V22.828L78.296,37.847V16.22L98.722,1.201h20.426v142.578H98.722z"></path> </g> </svg> 