<?xml version="1.0" encoding="UTF-8"?> <!-- Generator: Adobe Illustrator 16.0.0, SVG Export Plug-In . SVG Version: 6.00 Build 0) --> <svg xmlns="http://www.w3.org/2000/svg" xmlns:xlink="http://www.w3.org/1999/xlink" id="Layer_1" x="0px" y="0px" width="135.367px" height="144.98px" viewBox="0 0 135.367 144.98" xml:space="preserve"> <g> <path fill="#FFFFFF" d="M0,30.638c0-4.806,0.832-9.077,2.503-12.816c1.668-3.736,3.905-6.94,6.708-9.612 c2.804-2.669,6.039-4.706,9.712-6.107C22.594,0.701,26.433,0,30.438,0s7.841,0.701,11.514,2.103 c3.67,1.402,6.909,3.438,9.712,6.107c2.803,2.672,5.038,5.876,6.708,9.612c1.668,3.739,2.503,8.01,2.503,12.816v83.705 c0,4.806-0.835,9.08-2.503,12.815c-1.67,3.739-3.905,6.943-6.708,9.612c-2.804,2.673-6.042,4.706-9.712,6.107 c-3.673,1.401-7.509,2.103-11.514,2.103s-7.844-0.701-11.515-2.103c-3.673-1.401-6.908-3.435-9.712-6.107 c-2.804-2.669-5.041-5.873-6.708-9.612C0.832,123.423,0,119.148,0,114.343V30.638z M20.425,114.343c0,2.938,0.933,5.375,2.804,7.31 c1.868,1.936,4.271,2.902,7.209,2.902c2.935,0,5.338-0.967,7.209-2.902c1.868-1.935,2.803-4.371,2.803-7.31V30.638 c0-2.935-0.936-5.373-2.803-7.309c-1.871-1.934-4.274-2.904-7.209-2.904c-2.938,0-5.341,0.97-7.209,2.904 c-1.871,1.937-2.804,4.374-2.804,7.309V114.343z"></path> <path fill="#FFFFFF" d="M74.492,143.779v-19.225l36.846-69.486c1.867-3.47,2.935-6.508,3.203-9.111 c0.267-2.603,0.4-5.838,0.4-9.712c0-1.733-0.033-3.57-0.1-5.507c-0.068-1.934-0.435-3.636-1.102-5.106 c-0.67-1.467-1.67-2.704-3.004-3.705c-1.336-1.001-3.272-1.502-5.807-1.502c-3.073,0-5.507,0.87-7.309,2.603 c-1.802,1.737-2.704,4.274-2.704,7.61v11.614H74.492V31.039c0-4.271,0.801-8.276,2.403-12.015c1.602-3.736,3.805-7.009,6.608-9.812 c2.669-2.804,5.873-5.038,9.612-6.708C96.851,0.835,100.856,0,105.13,0c5.338,0,9.912,0.97,13.718,2.903 c3.805,1.937,6.974,4.575,9.512,7.91c2.402,3.338,4.17,7.143,5.307,11.414c1.133,4.274,1.701,8.811,1.701,13.617 c0,3.473-0.068,6.376-0.199,8.711c-0.135,2.337-0.4,4.574-0.801,6.708c-0.4,2.137-1.07,4.274-2.004,6.408 c-0.936,2.137-2.202,4.74-3.805,7.81l-30.037,57.872h36.846v20.426H74.492z"></path> </g> </svg> 