<?xml version="1.0" encoding="UTF-8"?> <!-- Generator: Adobe Illustrator 16.0.0, SVG Export Plug-In . SVG Version: 6.00 Build 0) --> <svg xmlns="http://www.w3.org/2000/svg" xmlns:xlink="http://www.w3.org/1999/xlink" id="Layer_1" x="0px" y="0px" width="1527.152px" height="1929.094px" viewBox="0 0 1527.152 1929.094" xml:space="preserve"> <g> <g> <defs> <rect id="SVGID_1_" x="205.306" y="-239.939" transform="matrix(0.9809 -0.1946 0.1946 0.9809 -150.399 161.254)" width="1080.539" height="2172.179"></rect> </defs> <clipPath id="SVGID_2_"> <use xlink:href="#SVGID_1_" overflow="visible"></use> </clipPath> <path clip-path="url(#SVGID_2_)" fill="none" stroke="#000000" stroke-width="60" stroke-miterlimit="10" d="M817.926,1211.004 c-119.06,23.621-207.821,114.133-234.968,224.715c67.307,91.85,183.901,141.621,302.959,118.004 c119.064-23.623,207.827-114.137,234.975-224.723C1053.585,1237.156,936.99,1187.383,817.926,1211.004z"></path> </g> <g> <defs> <rect id="SVGID_3_" x="205.306" y="-239.939" transform="matrix(0.9809 -0.1946 0.1946 0.9809 -150.399 161.254)" width="1080.539" height="2172.179"></rect> </defs> <clipPath id="SVGID_4_"> <use xlink:href="#SVGID_3_" overflow="visible"></use> </clipPath> <path clip-path="url(#SVGID_4_)" fill="none" stroke="#000000" stroke-width="60" stroke-miterlimit="10" d="M767.515,1399.109 c9.249,46.617,54.539,76.908,101.155,67.662c46.618-9.25,76.91-54.535,67.662-101.156c-9.249-46.615-54.538-76.91-101.154-67.658 C788.562,1307.205,758.269,1352.494,767.515,1399.109z"></path> </g> <g> <defs> <rect id="SVGID_5_" x="205.306" y="-239.939" transform="matrix(0.9809 -0.1946 0.1946 0.9809 -150.399 161.254)" width="1080.539" height="2172.179"></rect> </defs> <clipPath id="SVGID_6_"> <use xlink:href="#SVGID_5_" overflow="visible"></use> </clipPath> <circle clip-path="url(#SVGID_6_)" fill="none" stroke="#000000" stroke-width="60" stroke-linecap="round" stroke-miterlimit="10" cx="851.76" cy="1381.538" r="510.285"></circle> </g> <g> <defs> <rect id="SVGID_7_" x="205.306" y="-239.939" transform="matrix(0.9809 -0.1946 0.1946 0.9809 -150.399 161.254)" width="1080.539" height="2172.179"></rect> </defs> <clipPath id="SVGID_8_"> <use xlink:href="#SVGID_7_" overflow="visible"></use> </clipPath> <path clip-path="url(#SVGID_8_)" fill="none" stroke="#000000" stroke-width="60" stroke-linecap="round" stroke-miterlimit="10" d=" M540.026-189.793L694.945,591.09l77.496-15.375c26.482-5.256,52.208,11.954,57.464,38.438l0,0 c5.254,26.482-11.955,52.208-38.438,57.46L636.47,702.363c-26.481,5.253-43.687,30.979-38.435,57.462l0.823,4.152 c5.253,26.481,30.981,43.69,57.461,38.436l202.943-40.261"></path> </g> <g> <defs> <rect id="SVGID_9_" x="205.306" y="-239.939" transform="matrix(0.9809 -0.1946 0.1946 0.9809 -150.399 161.254)" width="1080.539" height="2172.179"></rect> </defs> <clipPath id="SVGID_10_"> <use xlink:href="#SVGID_9_" overflow="visible"></use> </clipPath> <line clip-path="url(#SVGID_10_)" fill="none" stroke="#000000" stroke-width="60" stroke-linecap="round" stroke-miterlimit="10" x1="414.58" y1="-164.906" x2="569.497" y2="615.977"></line> </g> <g> <defs> <rect id="SVGID_11_" x="205.306" y="-239.939" transform="matrix(0.9809 -0.1946 0.1946 0.9809 -150.399 161.254)" width="1080.539" height="2172.179"></rect> </defs> <clipPath id="SVGID_12_"> <use xlink:href="#SVGID_11_" overflow="visible"></use> </clipPath> <circle clip-path="url(#SVGID_12_)" fill="none" stroke="#000000" stroke-width="60" stroke-linecap="round" stroke-miterlimit="10" cx="851.76" cy="1381.538" r="418.471"></circle> </g> </g> </svg> 